<svg width="91" height="86" viewBox="0 0 91 86" fill="none" xmlns="http://www.w3.org/2000/svg">
<g id="basil:headset-solid">
<path id="Vector" d="M16.5338 29.8993C14.3393 30.4634 12.4008 31.7015 11.0185 33.4219C9.6361 35.1424 8.88688 37.2493 8.88672 39.4167V50.1667C8.88672 52.7802 9.97547 55.2866 11.9135 57.1346C13.8515 58.9826 16.4799 60.0208 19.2207 60.0208H28.6152C29.3627 60.0208 30.0795 59.7377 30.6081 59.2337C31.1366 58.7297 31.4335 58.0461 31.4335 57.3333V32.25C31.4335 31.5372 31.1366 30.8537 30.6081 30.3497C30.0795 29.8456 29.3627 29.5625 28.6152 29.5625H22.2833C23.8954 20.7117 33.3463 13.4375 45.5253 13.4375C57.7043 13.4375 67.1552 20.7117 68.7673 29.5625H62.4354C61.6879 29.5625 60.9711 29.8456 60.4425 30.3497C59.914 30.8537 59.6171 31.5372 59.6171 32.25V57.3333C59.6171 58.8168 60.8797 60.0208 62.4354 60.0208H68.6846C68.0495 62.5716 66.5307 64.8435 64.3738 66.4691C62.2169 68.0948 59.548 68.9791 56.7987 68.9792H52.496C51.842 67.4374 50.6459 66.1605 49.1129 65.3674C47.5799 64.5743 45.8053 64.3143 44.0933 64.632C42.3812 64.9497 40.8384 65.8252 39.7291 67.1087C38.6199 68.3921 38.0133 70.0035 38.0133 71.6667C38.0133 73.3298 38.6199 74.9412 39.7291 76.2246C40.8384 77.5081 42.3812 78.3837 44.0933 78.7014C45.8053 79.0191 47.5799 78.7591 49.1129 77.9659C50.6459 77.1728 51.842 75.896 52.496 74.3542H56.7987C65.8174 74.3542 73.2729 67.9758 74.4792 59.6948C76.6826 59.1368 78.6308 57.9 80.0207 56.1768C81.4105 54.4536 82.164 52.3406 82.1639 50.1667V39.4167C82.1637 37.2493 81.4145 35.1424 80.0321 33.4219C78.6498 31.7015 76.7113 30.4634 74.5167 29.8993C73.0775 17.3433 60.2784 8.0625 45.5253 8.0625C30.7722 8.0625 17.9693 17.3433 16.5338 29.8993Z" fill="#00CAFF"/>
</g>
</svg>
