<svg width="44" height="44" viewBox="0 0 44 44" fill="none" xmlns="http://www.w3.org/2000/svg">
<g id="carbon:clean">
<path id="Vector" d="M35.8575 26.4012C35.8575 27.1473 35.2526 27.7521 34.5065 27.7521H29.1029C28.3568 27.7521 27.752 27.1473 27.752 26.4012C27.752 25.6551 28.3568 25.0503 29.1029 25.0503H34.5065C35.2526 25.0503 35.8575 25.6551 35.8575 26.4012ZM41.2611 37.2086C41.2611 37.9546 40.6563 38.5595 39.9102 38.5595H34.5065C33.7605 38.5595 33.1556 37.9546 33.1556 37.2086C33.1556 36.4625 33.7604 35.8576 34.5065 35.8576H39.9102C40.6563 35.8576 41.2611 36.4625 41.2611 37.2086ZM38.5593 31.8049C38.5593 32.551 37.9545 33.1558 37.2084 33.1558H31.8047C31.0586 33.1558 30.4538 32.551 30.4538 31.8049C30.4538 31.0588 31.0586 30.454 31.8047 30.454H37.2084C37.9545 30.454 38.5593 31.0588 38.5593 31.8049Z" fill="white"/>
<path id="Vector_2" d="M23.7052 27.7521C23.6957 26.6122 23.3916 25.4941 22.8226 24.5064C22.2536 23.5186 21.4389 22.6947 20.4576 22.1147L29.7816 5.95474C30.154 5.30937 29.933 4.48434 29.288 4.11147C28.6423 3.73823 27.8162 3.95937 27.4434 4.60529L17.8827 21.1677C16.6265 20.8871 15.32 20.9259 14.0826 21.2806C12.8453 21.6353 11.7166 22.2946 10.7999 23.1981C5.74202 28.0763 6.13379 39.4807 6.1527 39.9644C6.16666 40.3132 6.31513 40.6431 6.56698 40.8849C6.81883 41.1266 7.1545 41.2615 7.50362 41.2612H27.7552C28.0388 41.2612 28.3151 41.172 28.5451 41.0062C28.7751 40.8405 28.9472 40.6065 29.0368 40.3375C29.1265 40.0685 29.1292 39.7782 29.0447 39.5075C28.9601 39.2369 28.7926 38.9997 28.5658 38.8296C23.7835 35.2415 23.7052 27.825 23.7052 27.7521ZM16.852 23.6953C17.9332 23.7071 18.9682 24.1354 19.7417 24.891C20.5152 25.6467 20.9675 26.6714 21.0047 27.7521C21.0047 27.8034 21.0074 28.0331 21.0277 28.3856L13.0572 24.8408C13.5823 24.4079 14.1881 24.0837 14.8396 23.887C15.491 23.6903 16.1751 23.6252 16.852 23.6953ZM21.6072 38.5594C20.5274 37.4599 19.8391 36.0359 19.6484 34.5066H16.9465C17.0433 35.9444 17.4924 37.3362 18.2542 38.5594H15.2511C14.6956 36.8062 14.3576 34.9914 14.2447 33.1557H11.5429C11.63 34.9859 11.9315 36.7995 12.4412 38.5594H8.84103C8.8829 36.0791 9.23279 30.5998 11.2767 27.005L21.4532 31.5306C21.9421 34.0694 22.9845 36.4692 24.5063 38.5594H21.6072Z" fill="white"/>
</g>
</svg>
