<svg xmlns="http://www.w3.org/2000/svg" width="36" height="35" viewBox="0 0 36 35" fill="none">
<path fill-rule="evenodd" clip-rule="evenodd" d="M6.05314 0.647461H12.5388C15.5233 0.647461 17.9435 3.06769 17.9435 6.05216V12.5378C17.9435 15.5223 15.5233 17.9425 12.5388 17.9425H6.05314C3.06866 17.9425 0.648438 15.5223 0.648438 12.5378V6.05216C0.648438 3.06769 3.06866 0.647461 6.05314 0.647461ZM12.5385 16.3213C14.6247 16.3213 16.3218 14.6242 16.3218 12.538V6.05233C16.3218 3.96612 14.6247 2.26904 12.5385 2.26904H6.05282C3.96661 2.26904 2.26953 3.96612 2.26953 6.05233V12.538C2.26953 14.6242 3.96661 16.3213 6.05282 16.3213H12.5385ZM4.97266 9.29495C4.97266 6.90716 6.90862 4.97119 9.29642 4.97119C11.6842 4.97119 13.6202 6.90716 13.6202 9.29495C13.6202 11.6827 11.6842 13.6187 9.29642 13.6187C6.90862 13.6187 4.97266 11.6827 4.97266 9.29495ZM6.59375 9.29512C6.59375 10.7847 7.80656 11.9975 9.2961 11.9975C10.7856 11.9975 11.9985 10.7847 11.9985 9.29512C11.9985 7.80451 10.7856 6.59277 9.2961 6.59277C7.80656 6.59277 6.59375 7.80451 6.59375 9.29512ZM14.5195 4.64694C14.5195 4.96514 14.2615 5.22308 13.9433 5.22308C13.6251 5.22308 13.3672 4.96514 13.3672 4.64694C13.3672 4.32875 13.6251 4.0708 13.9433 4.0708C14.2615 4.0708 14.5195 4.32875 14.5195 4.64694Z" fill="#000083"/>
</svg>