<svg xmlns="http://www.w3.org/2000/svg" width="36" height="35" viewBox="0 0 36 35" fill="none">
  <circle cx="17.8849" cy="17.295" r="17.295" fill="#00CAFF"/>
  <path fill-rule="evenodd" clip-rule="evenodd" d="M4.60946 2.45805C4.60946 3.50278 3.76254 4.3497 2.71782 4.3497C1.67309 4.3497 0.826172 3.50278 0.826172 2.45805C0.826172 1.41332 1.67309 0.566406 2.71782 0.566406C3.76254 0.566406 4.60946 1.41332 4.60946 2.45805ZM0.826172 5.97119H4.69378V17.8615H0.826172V5.97119ZM15.2282 6.11063C15.2145 6.10631 15.2011 6.10187 15.1876 6.09742C15.1607 6.08853 15.1338 6.07965 15.105 6.07172C15.0531 6.05983 15.0012 6.0501 14.9483 6.04145C14.7429 6.00038 14.518 5.97119 14.2543 5.97119C11.9994 5.97119 10.5694 7.61098 10.0981 8.24441V5.97119H6.23047V17.8615H10.0981V11.3759C10.0981 11.3759 13.0209 7.30507 14.2543 10.295V17.8615H18.1208V9.83771C18.1208 8.04119 16.8896 6.54409 15.2282 6.11063Z" fill="#000083"/>
</svg>