<svg width="44" height="44" viewBox="0 0 44 44" fill="none" xmlns="http://www.w3.org/2000/svg">
<g id="Handshake / undefined">
<path id="Vector" d="M22.7838 6.07422C22.3616 6.07422 21.9846 6.26789 21.7369 6.57121L21.6341 6.64906C17.7716 5.47814 13.4017 6.41031 10.3469 9.44557C7.62964 12.1454 6.58709 15.8791 7.21921 19.3722L7.19216 19.3989L5.46812 21.112C3.96896 22.6015 3.96896 25.0165 5.46812 26.5061C6.34884 27.3812 7.55107 27.7421 8.69703 27.589C8.86589 28.2128 9.19665 28.8022 9.68929 29.2917C10.3589 29.9571 11.2143 30.3251 12.0895 30.3962C12.1609 31.2661 12.5314 32.1162 13.2011 32.7816C13.9017 33.4776 14.8056 33.8485 15.7227 33.894C15.7687 34.8051 16.1419 35.703 16.8423 36.399C18.2117 37.7596 20.3585 37.8773 21.8623 36.752L22.5585 37.4439C24.065 38.9407 26.5073 38.9407 28.0139 37.4439C28.681 36.7809 29.0526 35.9357 29.1288 35.0699C29.9986 34.9958 30.8479 34.6282 31.5138 33.9665C32.1815 33.3031 32.5517 32.4568 32.625 31.5903C33.4834 31.5101 34.3199 31.1434 34.9776 30.4897C35.4931 29.9776 35.8313 29.3562 35.9924 28.7006C37.1212 28.8344 38.2983 28.4711 39.1645 27.6105C40.6637 26.1209 40.6637 23.7058 39.1645 22.2164L37.6632 20.7246L37.9717 19.5241C38.6423 16.9135 38.3051 14.1484 37.027 11.7736C35.1402 8.26751 31.4672 6.08324 27.4744 6.08324H24.5804C24.457 6.07725 24.3331 6.07422 24.2084 6.07422H22.7838ZM28.051 14.9815L34.2899 21.1805L34.2969 21.1879L34.3208 21.2123L37.2478 24.1206C37.6886 24.5585 37.6886 25.2683 37.2478 25.706C36.8072 26.1439 36.0929 26.1439 35.6521 25.706L32.7251 22.7978C32.1959 22.272 31.3378 22.272 30.8086 22.7978L30.7793 22.827C30.2499 23.3527 30.2499 24.2054 30.7793 24.7312L33.0611 26.9984C33.502 27.4367 33.502 28.1472 33.0611 28.5855C32.659 28.9848 32.0272 29.0208 31.5859 28.6908C31.0442 28.2859 30.2848 28.3409 29.8079 28.8195C29.3311 29.2982 29.2834 30.0533 29.6964 30.5872C30.0357 31.0261 30.002 31.66 29.5973 32.062C29.1891 32.4677 28.5445 32.4983 28.1023 32.1524C27.5643 31.7315 26.7946 31.7756 26.3088 32.2553C25.8228 32.735 25.7737 33.4994 26.1939 34.0367C26.5428 34.4827 26.5098 35.1295 26.0972 35.5395C25.6492 35.9845 24.9231 35.9845 24.4752 35.5395L23.8057 34.8743L23.9951 34.6859C25.4943 33.1962 25.4943 30.7813 23.9951 29.2917C23.2946 28.5957 22.3908 28.2249 21.4736 28.1793C21.4277 27.2682 21.0545 26.3703 20.3541 25.6745C19.6845 25.0091 18.8291 24.641 17.9539 24.57C17.8825 23.7002 17.512 22.85 16.8423 22.1845C15.9615 21.3094 14.7593 20.9485 13.6133 21.1016C13.4445 20.4778 13.1137 19.8884 12.6211 19.3989C11.8441 18.6269 10.817 18.255 9.79905 18.2832C9.53463 15.8106 10.3561 13.2451 12.2635 11.3499C14.0363 9.58844 16.3919 8.75907 18.7136 8.86176L16.0164 10.9053C14.1722 12.3025 13.8169 14.9274 15.2233 16.7646C16.6266 18.5977 19.2531 18.9533 21.093 17.5591L24.4952 14.9815H28.051ZM17.648 13.0588L23.3008 8.77605H24.2084C24.2976 8.77605 24.386 8.77845 24.4737 8.78315C24.4977 8.78443 24.5218 8.78508 24.546 8.78508H27.4744C30.4792 8.78508 33.2351 10.4289 34.6479 13.054C35.539 14.7098 35.8186 16.6176 35.4473 18.449L29.6616 12.6914C29.4071 12.4283 29.0566 12.2797 28.6906 12.2797H24.0413C23.7466 12.2797 23.4602 12.3759 23.2253 12.5538L19.4615 15.4055C18.8065 15.9017 17.8681 15.7747 17.3687 15.1223C16.8725 14.4741 16.9973 13.5518 17.648 13.0588ZM11.6059 27.3873C11.3035 27.0869 11.2086 26.6582 11.3213 26.2774C11.3728 26.1032 11.4677 25.9391 11.6059 25.8019L13.33 24.0889C13.7706 23.651 14.485 23.651 14.9257 24.0889C15.3613 24.5217 15.3662 25.2204 14.9406 25.6592L14.9252 25.6745L13.2011 27.3875L13.1863 27.4023C13.0513 27.5316 12.8918 27.6207 12.7231 27.6701C12.3397 27.7821 11.9083 27.6879 11.6059 27.3873ZM10.721 21.3201C10.857 21.4607 10.9488 21.6281 10.9964 21.8048C11.0973 22.1791 11 22.5951 10.7045 22.8887L8.98043 24.6017C8.53978 25.0396 7.82536 25.0396 7.38473 24.6017C6.94408 24.164 6.94408 23.4541 7.38473 23.0163L9.10877 21.3033C9.54942 20.8654 10.2638 20.8654 10.7045 21.3033L10.721 21.3201ZM20.3545 34.4946C20.2162 34.6322 20.0506 34.7266 19.875 34.7775C19.4921 34.8892 19.061 34.7948 18.7588 34.4946C18.4567 34.1943 18.3617 33.7662 18.474 33.3856C18.5255 33.211 18.6204 33.0467 18.7588 32.9091L20.4829 31.196C20.9235 30.7583 21.6381 30.7583 22.0786 31.196C22.5192 31.6339 22.5192 32.3437 22.0786 32.7816L20.3545 34.4946ZM16.7135 30.8774C16.5754 31.0146 16.4104 31.1088 16.2353 31.16C15.8519 31.2722 15.4203 31.178 15.1178 30.8774C14.8152 30.5767 14.7204 30.1479 14.8333 29.7669C14.883 29.5992 14.9728 29.4411 15.1028 29.3069L15.1182 29.2917L16.8423 27.5788L16.8571 27.5638C17.2988 27.1411 18.0019 27.1459 18.4375 27.5788C18.8782 28.0166 18.8782 28.7265 18.4375 29.1642L16.7135 30.8774Z" fill="white"/>
</g>
</svg>
