<svg width="203" height="74" viewBox="0 0 203 74" fill="none" xmlns="http://www.w3.org/2000/svg">
<g id="4YDzNX">
<path id="Vector" d="M202.646 37.5583C202.525 38.3003 202.427 39.0463 202.277 39.7821C201.831 41.9405 201.014 43.9129 199.346 45.4479C197.978 46.7049 196.34 47.453 194.576 47.9435C192.434 48.5383 190.236 48.7856 188.025 48.9308C182.962 49.2639 177.891 49.1801 172.823 49.1944C172.016 49.1944 172.016 49.1944 172.016 48.4014C172.016 45.0207 172.016 41.6407 172.016 38.2614C172.016 37.589 172.036 37.5665 172.724 37.5644C175.386 37.5644 178.047 37.5644 180.708 37.5481C181.898 37.5517 183.08 37.3562 184.205 36.9697C186.107 36.3013 187.12 34.9503 187.222 32.9492C187.241 32.612 187.282 32.2788 187.286 31.9416C187.298 31.1424 187.286 31.1404 186.512 31.1404H180.542C177.91 31.1404 175.278 31.1404 172.647 31.1404C172.032 31.1404 172.008 31.124 172.008 30.4863C172.008 27.603 172.008 24.719 172.008 21.8343C172.008 21.1966 172.026 21.1782 172.649 21.1782H202.159C202.318 21.1782 202.478 21.1987 202.638 21.2089L202.646 37.5583Z" fill="#95002D"/>
<path id="Vector_2" d="M168.458 0.438477C168.458 4.09099 168.458 7.74554 168.47 11.3981C168.47 11.8416 168.318 11.9806 167.885 11.9785C165.59 11.9785 163.295 11.9785 161.002 12.0051C159.846 12.0233 158.697 12.1958 157.587 12.5181C155.419 13.1456 154.232 14.6602 153.759 16.794C153.687 17.119 153.575 17.2457 153.227 17.2437C148.177 17.2233 143.123 17.211 138.065 17.2069C137.421 17.2069 137.41 17.2069 137.451 16.5774C137.574 14.235 137.861 11.9213 138.696 9.70772C140.113 5.95505 142.803 3.51868 146.52 2.14516C148.899 1.26218 151.374 0.834999 153.89 0.612211C154.447 0.563156 155.004 0.501838 155.559 0.444608L168.458 0.438477Z" fill="#95002D"/>
<path id="Vector_3" d="M186.37 0.438657C187.244 0.528591 188.123 0.60626 188.995 0.710501C191.085 0.932344 193.141 1.40871 195.116 2.12899C199.353 3.73348 201.599 6.85457 202.185 11.2674C202.408 13.0632 202.502 14.8726 202.465 16.6818C202.465 17.2623 202.367 17.3359 201.773 17.2684C201.519 17.2344 201.264 17.2146 201.008 17.2091C196.579 17.2091 192.151 17.2091 187.723 17.2091C187.365 17.2091 187.23 17.1069 187.232 16.7554C187.24 16.3868 187.21 16.0184 187.144 15.6557C186.769 13.759 185.736 12.7043 183.844 12.2873C182.712 12.0547 181.558 11.9478 180.403 11.9685C177.836 11.9685 175.268 11.9685 172.701 11.9685C172.046 11.9685 172.018 11.9378 172.018 11.296C172.018 7.67691 172.018 4.05642 172.018 0.43457L186.37 0.438657Z" fill="#95002D"/>
<path id="Vector_4" d="M45.8438 0.438477C46.7507 0.52841 47.6596 0.608123 48.5665 0.708276C50.9678 0.973987 53.3262 1.43796 55.5392 2.44358C58.7307 3.89272 60.5302 6.39041 61.0891 9.83035C61.4678 12.1543 61.347 14.4946 61.3838 16.8308C61.3838 17.2784 61.1034 17.2069 60.8352 17.2069H47.0168C45.9318 17.2069 45.9216 17.2069 45.9257 16.1154C45.9222 15.568 45.8791 15.0215 45.7967 14.4803C45.5674 12.8554 44.7363 11.956 43.1026 11.5473C42.3217 11.3655 41.5251 11.2588 40.7238 11.2284C38.0297 11.0853 35.3336 11.1548 32.6395 11.1589C32.181 11.1589 32.0663 11.0158 32.0684 10.5866C32.0786 7.20594 32.0684 3.82528 32.0684 0.442565L45.8438 0.438477Z" fill="#95002D"/>
<path id="Vector_5" d="M28.5068 0.438477C28.5068 3.8682 28.5068 7.29587 28.5273 10.7236C28.5273 11.1221 28.3226 11.1487 28.0094 11.1466C25.8435 11.1466 23.6775 11.1242 21.5116 11.1466C20.3221 11.1278 19.1391 11.3266 18.0212 11.7333C16.4633 12.3464 15.6424 13.6811 15.8492 15.3388C15.9126 15.8457 15.9495 16.3607 16.2033 16.8226C16.408 17.1844 16.2279 17.213 15.9188 17.211C14.3629 17.2008 12.805 17.211 11.2492 17.211C7.75126 17.2192 4.25332 17.2294 0.755396 17.2417C0.627685 17.2511 0.499624 17.2287 0.382812 17.1763V13.5176C0.414737 13.3295 0.436603 13.1398 0.44832 12.9494C0.47141 11.973 0.570656 10.9999 0.745159 10.0388C1.35931 6.39859 3.3512 3.86002 6.76793 2.41905C9.0669 1.45022 11.4764 0.978075 13.933 0.706231C14.8051 0.610167 15.6813 0.52841 16.5554 0.438477H28.5068Z" fill="#95002D"/>
<path id="Vector_6" d="M0.384766 32.9431C2.53429 32.9431 4.68382 32.9377 6.83335 32.9268H15.022C15.7938 32.9268 15.7918 32.9268 15.8163 33.6789C15.8332 34.3714 15.9412 35.0586 16.1377 35.7229C16.5472 37.0412 17.4295 37.8179 18.7642 38.1224C19.7071 38.3159 20.6678 38.409 21.6303 38.4004C23.7307 38.427 25.8331 38.4209 27.9356 38.4004C28.4003 38.4004 28.5497 38.5537 28.5497 39.0136C28.5354 42.2021 28.5497 45.3886 28.5497 48.5772C28.5497 49.1597 28.5047 49.2067 27.9192 49.2067C24.8484 49.2067 21.79 49.2517 18.7274 49.1944C15.5215 49.1352 12.3157 49.0166 9.17121 48.2787C7.90183 47.9967 6.67234 47.5587 5.51087 46.9747C2.73491 45.544 1.24253 43.1934 0.681604 40.1889C0.58334 39.6717 0.499408 39.1505 0.41138 38.6314L0.384766 32.9431Z" fill="#95002D"/>
<path id="Vector_7" d="M44.4105 20.8127C47.9254 20.8127 51.4425 20.8761 54.9554 20.7841C56.4969 20.7432 57.7703 21.2358 59.0027 22.035C61.187 23.4514 62.3437 25.5362 62.8943 27.989C63.4778 30.6011 63.5535 33.2541 63.4287 35.9215C63.3738 37.2038 63.2405 38.4816 63.0295 39.7477C62.2966 44.04 59.7315 46.6256 55.588 47.762C53.4156 48.3266 51.1949 48.6866 48.9552 48.8371C43.5568 49.2663 38.1502 49.1764 32.7436 49.1907C32.1295 49.1907 32.0804 49.1519 32.0804 48.5428C32.0804 45.3706 32.0804 42.197 32.0804 39.0221C32.0804 38.4089 32.0988 38.3946 32.7457 38.3946C35.6834 38.3946 38.6211 38.4069 41.5587 38.3946C42.5541 38.4071 43.5477 38.3084 44.521 38.1003C46.0298 37.7467 47.211 37.015 47.5099 35.3614C47.6276 34.6481 47.6276 33.9204 47.5099 33.2071C47.3604 32.1995 46.7197 31.5863 45.8271 31.2061C44.7196 30.734 43.5363 30.5929 42.3469 30.4744C39.1656 30.1719 35.972 30.1555 32.7784 30.1494C32.0967 30.1494 32.0763 30.1249 32.0742 29.4463V21.5117C32.0742 20.8107 32.0742 20.8127 32.801 20.8127H44.4105Z" fill="#95002D"/>
<path id="Vector_8" d="M145.389 20.8131H152.661C153.308 20.8131 153.328 20.8376 153.33 21.4978C153.33 24.1897 153.33 26.8815 153.357 29.5734C153.367 30.5674 153.483 31.5575 153.703 32.5269C154.366 35.4885 155.99 36.9315 158.999 37.3526C160.807 37.606 162.616 37.5468 164.428 37.557C165.583 37.5672 166.739 37.5713 167.894 37.557C168.303 37.557 168.469 37.6714 168.467 38.1027C168.455 41.6115 168.455 45.1209 168.467 48.631C168.467 49.0398 168.334 49.1992 167.912 49.1972C164.766 49.1849 161.619 49.234 158.475 49.1767C155.138 49.1175 151.805 48.9172 148.556 48.0546C146.044 47.3883 143.713 46.3704 141.786 44.5636C139.739 42.6382 138.605 40.2202 137.995 37.5222C137.618 35.8009 137.429 34.0437 137.432 32.2816C137.414 28.6761 137.432 25.0706 137.432 21.4651C137.432 20.8315 137.45 20.8131 138.077 20.811L145.389 20.8131Z" fill="#95002D"/>
<path id="Vector_9" d="M70.9746 34.7337V21.5708C70.9746 20.8145 70.9746 20.8125 71.7075 20.8125H85.7634C86.4246 20.8125 86.4246 20.8125 86.4246 21.4666C86.4246 22.3495 86.4471 23.2305 86.4246 24.1114C86.4082 24.5652 86.5822 24.6858 87.0121 24.6837C90.173 24.6714 93.3338 24.6837 96.4946 24.6837C97.2766 24.6837 97.2787 24.6837 97.2787 25.4481V35.9601C97.2787 36.6877 97.2787 36.6898 96.5642 36.6898H87.0715C86.4266 36.6898 86.4246 36.6898 86.4246 37.3275C86.4246 40.9309 86.4246 44.5364 86.4348 48.1419C86.4348 48.5221 86.3325 48.6386 85.9537 48.6386C81.1088 48.6291 76.2638 48.6291 71.4188 48.6386C70.9193 48.6386 70.9807 48.3443 70.9807 48.0418C70.9767 43.6119 70.9746 39.1759 70.9746 34.7337Z" fill="#95002D"/>
<path id="Vector_10" d="M109.355 36.6965H101.459C100.857 36.6965 100.826 36.6679 100.826 36.0833C100.826 32.5105 100.826 28.9377 100.826 25.3649C100.826 24.7149 100.855 24.6843 101.502 24.6822C104.437 24.6822 107.375 24.6822 110.305 24.6822C111.766 24.6822 113.06 24.3041 114.041 23.1534C114.491 22.6044 114.793 21.9492 114.917 21.2505C114.984 20.9173 115.152 20.811 115.48 20.811C120.471 20.8192 125.462 20.8192 130.453 20.811C130.811 20.811 130.987 20.9296 130.981 21.3077C130.926 24.5882 130.391 27.7625 128.684 30.6219C126.713 33.9249 123.734 35.7788 119.969 36.4226C118.622 36.6329 117.259 36.7252 115.895 36.6985C113.719 36.6924 111.545 36.6965 109.355 36.6965Z" fill="#95002D"/>
<path id="Vector_11" d="M122.995 17.2069C120.506 17.2069 118.018 17.2069 115.531 17.2069C115.263 17.2069 115.072 17.1865 115.031 16.8533C114.688 14.0797 112.585 13.1354 110.399 12.9698C107.516 12.7409 104.624 12.9187 101.737 12.8738C100.826 12.8595 100.826 12.8738 100.826 11.9561C100.826 8.49363 100.826 5.03188 100.826 1.57082C100.826 0.914721 100.826 0.906545 101.504 0.906545C105.502 0.906545 109.488 0.886106 113.494 0.906545C116.673 0.926984 119.803 1.30307 122.784 2.49673C126.113 3.82937 128.483 6.13084 129.765 9.50129C130.48 11.4614 130.868 13.5251 130.915 15.6106C130.93 15.9785 130.96 16.3464 130.987 16.7143C131.014 17.0822 130.913 17.2212 130.504 17.2192C128 17.1987 125.497 17.2192 122.993 17.2192L122.995 17.2069Z" fill="#95002D"/>
<path id="Vector_12" d="M84.1275 0.900391H96.5047C97.258 0.900391 97.2683 0.900391 97.2683 1.63825C97.2683 5.16472 97.2683 8.6905 97.2683 12.2156C97.2683 12.8431 97.2437 12.8656 96.6193 12.8656C93.4257 12.8656 90.2321 12.8758 87.0365 12.8656C86.5452 12.8656 86.3998 13.0087 86.4224 13.4931C86.4551 14.6131 86.4224 15.7414 86.4408 16.8574C86.4408 17.1538 86.3609 17.2355 86.06 17.2355C81.1959 17.2219 76.3325 17.2219 71.4698 17.2355C71.0604 17.2355 70.9785 17.0863 70.9785 16.7307C70.9785 11.6494 70.9785 6.5689 70.9785 1.48904C70.9785 0.996455 71.1832 0.912654 71.6193 0.912654C75.7846 0.909928 79.954 0.905841 84.1275 0.900391Z" fill="#95002D"/>
<path id="Vector_13" d="M14.5875 20.8125H27.7836C28.5206 20.8125 28.5206 20.8125 28.5206 21.5647C28.5206 24.1795 28.5206 26.7924 28.5206 29.4032C28.5206 30.0797 28.5206 30.0838 27.8614 30.0817C25.6627 30.0817 23.462 30.1185 21.2654 30.0593C17.1445 29.9489 13.0215 29.816 8.97216 28.9249C7.31805 28.5631 5.72331 28.0378 4.28824 27.1017C2.15919 25.7139 1.17654 23.6413 0.750731 21.2295C0.699552 20.9413 0.80396 20.8084 1.10489 20.8207C1.64944 20.8207 2.19603 20.8207 2.74263 20.8207L14.5875 20.8125Z" fill="#95002D"/>
<path id="Vector_14" d="M94.0978 73.5256C91.936 72.8306 91.6637 72.4545 91.6616 70.149C91.6616 67.7964 91.7149 65.4479 91.6473 63.0872C91.5797 60.7264 92.7569 60.1868 94.37 59.9743C95.5003 59.8212 96.6476 59.8453 97.7704 60.0458C99.3692 60.332 100.069 61.172 100.073 62.7969C100.073 65.375 100.073 67.9531 100.073 70.5312C100.073 72.3339 99.5084 73.0411 97.7458 73.4601C97.6844 73.478 97.6242 73.4998 97.5657 73.5256H94.0978ZM95.0825 66.7479C95.0825 67.9742 95.0825 69.2108 95.0825 70.4433C95.0825 71.0565 95.2401 71.2016 95.8583 71.1975C96.4766 71.1934 96.5974 71.0749 96.5994 70.4699C96.5994 67.9913 96.5994 65.5126 96.5994 63.034C96.5994 62.4311 96.4377 62.288 95.8133 62.2962C95.2483 62.2962 95.0845 62.4658 95.0825 63.0524C95.0804 64.2849 95.0825 65.5154 95.0825 66.7479Z" fill="black"/>
<path id="Vector_15" d="M176.354 73.5253C176.215 73.4865 176.077 73.4456 175.944 73.4088C174.511 73.0389 173.885 72.3235 173.866 70.858C173.831 68.1191 173.831 65.3809 173.866 62.6434C173.883 61.1677 174.581 60.3542 176.036 60.0742C177.457 59.7832 178.923 59.8014 180.336 60.1274C181.648 60.4401 182.262 61.2147 182.268 62.5678C182.28 65.2931 182.28 68.0149 182.268 70.7333C182.268 72.3194 181.695 73.0348 180.147 73.4293C180.041 73.4558 179.942 73.4926 179.828 73.5253H176.354ZM177.326 66.6945C177.326 67.9761 177.326 69.2556 177.326 70.5371C177.326 71.0849 177.469 71.1993 178.08 71.1973C178.69 71.1953 178.833 71.0706 178.833 70.5269C178.833 68.0142 178.833 65.5015 178.833 62.9889C178.833 62.4431 178.643 62.2898 178.037 62.2939C177.431 62.298 177.326 62.4206 177.324 62.997C177.322 64.2295 177.326 65.462 177.326 66.6945Z" fill="black"/>
<path id="Vector_16" d="M20.8977 73.5256C20.6049 73.4439 20.306 73.3785 20.0194 73.2783C18.9754 72.9165 18.396 72.1889 18.3817 71.0872C18.3571 68.2053 18.3571 65.3226 18.3817 62.4393C18.3817 61.2559 19.047 60.4506 20.2242 60.1542C21.708 59.7807 23.2597 59.766 24.7504 60.1113C26.1835 60.4383 26.7976 61.2436 26.7976 62.7255C26.7976 65.3526 26.7976 67.9791 26.7976 70.6049C26.7976 72.287 26.2756 72.9697 24.644 73.4275C24.5519 73.4541 24.4638 73.4929 24.3738 73.5256H20.8977ZM21.7943 66.7234C21.7943 67.9498 21.7943 69.1884 21.7943 70.4209C21.7943 71.0341 21.9704 71.1955 22.5661 71.1976C23.1618 71.1996 23.3604 71.0361 23.3625 70.4434C23.3707 67.9784 23.3707 65.5134 23.3625 63.0484C23.3625 62.4598 23.1577 62.2922 22.5641 62.2942C21.9704 62.2963 21.7964 62.468 21.7923 63.075C21.7902 64.2911 21.7943 65.5073 21.7943 66.7234Z" fill="black"/>
<path id="Vector_17" d="M113.651 73.5259C113.607 73.5049 113.563 73.4865 113.517 73.4707C111.986 73.0763 111.339 72.2832 111.321 70.6951C111.298 68.6511 111.321 66.6236 111.309 64.5878C111.309 63.2592 111.321 61.9307 111.309 60.598C111.309 60.1893 111.44 60.0237 111.861 60.038C112.582 60.0605 113.307 60.0646 114.027 60.038C114.488 60.0196 114.641 60.1831 114.641 60.6512C114.625 63.5515 114.641 66.4519 114.641 69.3522C114.641 69.6241 114.641 69.8979 114.641 70.1698C114.641 70.8259 114.869 71.0977 115.403 71.1018C115.937 71.1059 116.173 70.8647 116.175 70.1923C116.175 67.1168 116.175 64.04 116.175 60.9619C116.175 60.0523 116.175 60.0523 117.104 60.0523H118.838C119.536 60.0523 119.542 60.0523 119.542 60.7411V69.6854C119.542 70.1187 119.524 70.5479 119.485 70.9792C119.364 72.2975 118.736 73.1662 117.405 73.4626C117.344 73.4823 117.284 73.5069 117.227 73.5361L113.651 73.5259Z" fill="black"/>
<path id="Vector_18" d="M186.082 73.5259C185.642 73.3399 185.155 73.2786 184.766 72.9597C183.934 72.277 183.781 71.3246 183.771 70.3557C183.746 67.903 183.771 65.4503 183.771 62.9976C183.771 62.18 183.785 61.3624 183.771 60.5448C183.771 60.1361 183.945 60.0196 184.323 60.0298C185.046 60.0482 185.769 60.0563 186.489 60.0298C186.946 60.0114 187.103 60.1647 187.103 60.6327C187.087 63.6598 187.103 66.6869 187.103 69.7139C187.103 69.8918 187.103 70.0675 187.103 70.2433C187.144 70.8381 187.392 71.0915 187.922 71.0875C188.453 71.0834 188.682 70.8095 188.682 70.1983C188.682 67.0752 188.682 63.9514 188.682 60.8269C188.682 60.038 188.682 60.0379 189.476 60.0379C190.166 60.0379 190.856 60.0379 191.546 60.0379C191.875 60.0379 192 60.1708 191.998 60.4978C191.998 63.9255 192.039 67.3552 191.968 70.7809C191.935 72.3772 191.323 73.1396 189.66 73.5218L186.082 73.5259Z" fill="black"/>
<path id="Vector_19" d="M156.126 73.5255L155.484 73.3212C154.362 72.9798 153.725 72.2317 153.715 71.0728C153.689 68.1732 153.689 65.2721 153.715 62.3698C153.727 61.2374 154.382 60.4362 155.508 60.1521C157.069 59.7465 158.708 59.7423 160.272 60.1398C161.353 60.4178 161.977 61.2579 162.092 62.5333C162.137 63.0422 162.104 63.5552 162.112 64.0703C162.112 64.3258 162.006 64.4627 161.744 64.4648H159.287C158.996 64.4648 158.896 64.3074 158.9 64.0376C158.9 63.6677 158.9 63.2997 158.9 62.9318C158.9 62.4781 158.622 62.3187 158.221 62.2859C157.557 62.2267 157.277 62.3473 157.174 62.7785C157.135 62.9666 157.118 63.1587 157.123 63.3508C157.123 65.6891 157.123 68.0287 157.123 70.3697C157.123 70.6783 157.093 71.0238 157.477 71.1198C157.691 71.191 157.917 71.2186 158.141 71.201C158.365 71.1835 158.584 71.1211 158.784 71.0176C158.796 71.0076 158.807 70.9959 158.816 70.9829C158.937 70.8378 158.956 69.0371 158.835 68.9042C158.714 68.7714 158.538 68.7959 158.382 68.7979C158.053 68.7979 157.928 68.6508 157.936 68.3278C157.95 67.7678 157.948 67.2057 157.936 66.6457C157.936 66.335 158.026 66.1694 158.374 66.1715C159.482 66.1837 160.589 66.1715 161.697 66.1715C161.934 66.1715 162.106 66.2348 162.106 66.5128C162.106 68.0989 162.204 69.6911 162.061 71.269C161.94 72.5976 161.418 73.1086 160.108 73.4295C160.032 73.4499 159.957 73.4806 159.883 73.5072L156.126 73.5255Z" fill="black"/>
<path id="Vector_20" d="M51.0427 73.5255C48.7765 72.994 48.5697 71.9598 48.6004 70.1489C48.6393 67.7943 48.6618 65.4478 48.6004 63.085C48.5349 60.8367 49.6465 60.2011 51.231 59.9885C52.3273 59.83 53.4413 59.8383 54.5351 60.013C56.2077 60.2951 56.916 61.1024 57.0204 62.803C57.045 63.2015 57.0204 63.6022 57.0306 64.0028C57.0306 64.3175 56.914 64.4831 56.5823 64.4811C55.7962 64.4811 55.0101 64.4811 54.224 64.4811C53.9476 64.4811 53.8145 64.3605 53.8145 64.0723C53.8145 63.7841 53.8145 63.4591 53.8145 63.1607C53.8023 62.4719 53.6098 62.2981 52.9036 62.2961C52.23 62.2961 52.0376 62.4739 52.0335 63.1464C52.0335 64.6834 52.0335 66.2123 52.0335 67.7575C52.0335 68.6711 52.0335 69.5848 52.0335 70.4963C52.0335 71.0605 52.2096 71.1974 52.8688 71.1995C53.6139 71.1995 53.8043 71.0646 53.8145 70.5045C53.8145 70.0957 53.8023 69.7033 53.8145 69.3027C53.8309 68.9634 53.7163 68.7713 53.3519 68.8162C52.9138 68.8694 52.7991 68.6629 52.8217 68.2562C52.8544 67.7146 52.8442 67.1688 52.836 66.6211C52.836 66.3206 52.9506 66.1857 53.2598 66.1877C54.3673 66.1877 55.4748 66.1877 56.5803 66.1877C56.8485 66.1877 57.0204 66.2675 57.0163 66.5638C56.9979 68.1152 57.1187 69.6726 56.959 71.2199C56.8157 72.6241 56.3448 73.1003 54.9773 73.456C54.9158 73.4752 54.8557 73.4984 54.7972 73.5255H51.0427Z" fill="black"/>
<path id="Vector_21" d="M141.292 73.5257C139.427 72.9125 139.18 72.6039 139.04 70.6356C139.014 70.237 139.006 69.8364 138.987 69.4378C138.975 69.121 139.102 68.9698 139.44 68.9759C140.162 68.9909 140.884 68.9909 141.606 68.9759C141.949 68.9759 142.107 69.0904 142.093 69.4481C142.074 69.7996 142.08 70.152 142.111 70.5027C142.164 71.0505 142.441 71.2304 143.104 71.1956C143.655 71.167 143.861 70.9688 143.872 70.4292C143.872 69.9345 143.872 69.4378 143.872 68.9412C143.892 68.7469 143.841 68.5519 143.728 68.3925C143.615 68.2331 143.448 68.1201 143.258 68.0745C142.766 67.9315 142.269 67.8047 141.771 67.6841C141.335 67.5788 140.907 67.4422 140.49 67.2754C140.109 67.1377 139.776 66.895 139.528 66.5755C139.281 66.2559 139.129 65.8728 139.092 65.4706C138.928 64.3434 138.928 63.1986 139.092 62.0715C139.296 60.7286 139.843 60.1788 141.223 59.9928C142.43 59.8109 143.659 59.8274 144.86 60.0419C146.189 60.2974 146.834 61.0475 146.879 62.3944C146.893 62.8421 146.879 63.2917 146.879 63.7394C146.879 64.0521 146.775 64.2176 146.435 64.2115C145.728 64.2006 145.022 64.2006 144.318 64.2115C143.974 64.2115 143.868 64.05 143.874 63.7394C143.88 63.4287 143.874 63.163 143.861 62.8748C143.847 62.4047 143.536 62.2923 143.141 62.2963C142.746 62.3004 142.306 62.282 142.265 62.8114C142.231 63.3703 142.231 63.9306 142.265 64.4895C142.279 64.8533 142.559 65.0025 142.879 65.0884C143.542 65.2744 144.205 65.4644 144.875 65.6279C146.291 65.9754 147.102 66.8155 147.155 68.3178C147.202 69.1169 147.202 69.9182 147.155 70.7173C147.037 72.1747 146.369 73.1987 144.856 73.5257H141.292Z" fill="black"/>
<path id="Vector_22" d="M3.07802 73.5259C1.51398 73.2254 0.731962 72.6715 0.736056 70.4743C0.736056 70.09 0.736056 69.7037 0.736056 69.3194C0.736056 69.0721 0.83432 68.9761 1.07793 68.9781C1.84767 68.9781 2.61945 68.9781 3.38919 68.9781C3.67579 68.9781 3.79862 69.1048 3.79862 69.3869C3.7914 69.7711 3.80781 70.1554 3.84775 70.5376C3.9194 71.0936 4.17325 71.2407 4.85496 71.1958C5.38722 71.159 5.56737 70.9791 5.57761 70.4436C5.58784 69.9081 5.57761 69.4216 5.57761 68.9045C5.5975 68.7103 5.54379 68.5157 5.42708 68.3591C5.31036 68.2024 5.13911 68.0951 4.94708 68.0583C4.46804 67.9255 3.98286 67.8131 3.51406 67.6822C3.12715 67.576 2.74023 67.4778 2.36355 67.3348C1.44642 67.0077 0.89164 66.3619 0.805659 65.3889C0.693632 64.3015 0.697749 63.2052 0.817942 62.1187C0.989904 60.7533 1.5365 60.2158 2.9081 60.0032C4.14603 59.8026 5.40942 59.8178 6.64214 60.0481C7.97689 60.3057 8.59104 61.0701 8.60742 62.4334C8.60742 62.8647 8.60742 63.298 8.60742 63.7313C8.60742 64.0461 8.50711 64.2096 8.16728 64.2055C7.46101 64.1953 6.75473 64.2055 6.04846 64.2055C5.74343 64.2055 5.61036 64.0665 5.61036 63.7702C5.61036 63.4738 5.61036 63.1304 5.58375 62.8095C5.56123 62.3537 5.24392 62.276 4.87338 62.2924C4.50285 62.3087 4.03609 62.276 3.9931 62.8095C3.96129 63.3541 3.96129 63.9001 3.9931 64.4446C4.00539 64.8289 4.29608 64.9945 4.60725 65.0864C5.16204 65.2479 5.72501 65.3808 6.28184 65.532C8.34743 66.0941 8.87151 66.7706 8.89402 68.9004C8.89402 69.3337 8.90835 69.7671 8.89402 70.1983C8.82647 72.3077 8.16318 73.1416 6.5623 73.5238L3.07802 73.5259Z" fill="black"/>
<path id="Vector_23" d="M123.186 73.5259C121.549 73.0129 121.084 72.0645 121.115 70.3496C121.162 67.8376 121.131 65.3215 121.131 62.8075C121.124 62.2934 121.232 61.7841 121.448 61.3175C121.858 60.4713 122.591 60.0911 123.479 59.9644C124.772 59.7945 126.084 59.8235 127.369 60.0502C128.742 60.2853 129.285 60.9721 129.285 62.366C129.285 62.9792 129.273 63.5924 129.285 64.1913C129.285 64.5551 129.172 64.7165 128.787 64.7084C128.034 64.6879 127.281 64.6941 126.525 64.7084C126.196 64.7084 126.061 64.5776 126.069 64.2526C126.079 63.8438 126.079 63.4186 126.069 63.0037C126.059 62.5888 125.815 62.3905 125.318 62.4008C124.82 62.411 124.568 62.5786 124.566 63.0017C124.558 65.5007 124.558 67.9991 124.566 70.4968C124.566 70.9321 124.8 71.0977 125.311 71.0977C125.823 71.0977 126.055 70.9362 126.069 70.505C126.087 69.9613 126.083 69.4176 126.069 68.8698C126.069 68.5407 126.208 68.412 126.532 68.4161C127.301 68.4161 128.071 68.4161 128.841 68.4161C129.099 68.4161 129.285 68.4856 129.279 68.7901C129.262 69.6383 129.336 70.4866 129.234 71.3328C129.099 72.4365 128.513 73.1559 127.412 73.4237C127.32 73.4513 127.229 73.4848 127.142 73.5239L123.186 73.5259Z" fill="black"/>
<path id="Vector_24" d="M88.2075 67.6163L88.7705 67.7818C89.5894 68.0128 90.0213 68.5688 90.0459 69.3904C90.0848 70.6066 90.0602 71.8247 90.0664 73.0429C90.0664 73.327 89.9374 73.4517 89.6569 73.4517C88.8237 73.4517 87.9885 73.4517 87.1532 73.4517C86.7848 73.4517 86.7438 73.2289 86.7438 72.9428C86.7438 71.9195 86.7438 70.8941 86.7438 69.8667C86.7438 69.1656 86.5944 69.0021 85.8922 68.9101C85.7816 68.8937 85.6711 68.8754 85.5585 68.8631C85.0078 68.8038 84.9444 68.8631 84.9444 69.4088C84.9444 70.5616 84.93 71.7164 84.9444 72.8692C84.9444 73.2964 84.8215 73.4824 84.367 73.4599C83.6464 73.4292 82.9217 73.4251 82.2011 73.4599C81.7098 73.4844 81.5624 73.3066 81.5645 72.8283C81.5809 69.3986 81.5645 65.9689 81.5645 62.5412C81.5645 61.8667 81.5645 61.1943 81.5645 60.5218C81.5645 60.2193 81.6668 60.0353 82.0108 60.0435C83.7918 60.0864 85.5728 59.9597 87.3518 60.1334C89.1943 60.3154 90.0234 61.1963 90.05 63.0358C90.05 63.6122 90.05 64.1886 90.05 64.765C90.0623 66.6005 89.618 67.1421 88.2075 67.6163ZM86.7397 64.4686C86.7397 64.0844 86.7397 63.7022 86.7397 63.3179C86.7418 63.2859 86.7418 63.2538 86.7397 63.2218C86.6844 62.7292 86.4634 62.5085 85.972 62.4738C85.7673 62.4594 85.5626 62.4738 85.3477 62.4738C85.0651 62.4738 84.9382 62.6025 84.9382 62.8825C84.9382 63.9515 84.9382 65.0225 84.9382 66.0936C84.9268 66.1565 84.9322 66.2214 84.9537 66.2816C84.9753 66.3419 85.0123 66.3954 85.061 66.4369C85.5646 66.7844 86.6722 66.2857 86.7233 65.6746C86.7745 65.2699 86.7459 64.8672 86.7459 64.4686H86.7397Z" fill="black"/>
<path id="Vector_25" d="M170.417 67.6167L170.808 67.727C171.832 68.0193 172.241 68.469 172.29 69.5318C172.341 70.6989 172.305 71.8701 172.311 73.0392C172.311 73.3519 172.151 73.448 171.856 73.448C171.056 73.448 170.253 73.4337 169.451 73.448C169.076 73.448 168.937 73.3111 168.941 72.9432C168.951 71.9028 168.941 70.8604 168.941 69.82C168.941 69.1087 168.835 69.0024 168.122 68.9003C167.123 68.7654 167.123 68.7653 167.123 69.7791C167.123 70.7929 167.103 71.8231 167.133 72.845C167.146 73.3172 166.97 73.4582 166.519 73.4419C165.815 73.4153 165.107 73.4112 164.403 73.4419C163.93 73.4623 163.803 73.2743 163.803 72.8287C163.817 69.354 163.803 65.8793 163.803 62.4046C163.803 61.7649 163.803 61.1251 163.803 60.4833C163.803 60.1972 163.893 60.0234 164.212 60.0316C166.022 60.0745 167.836 59.9274 169.643 60.1318C169.977 60.1692 170.307 60.2377 170.628 60.3362C171.042 60.4504 171.412 60.6856 171.691 61.0116C171.97 61.3376 172.145 61.7394 172.194 62.1655C172.344 63.1971 172.367 64.2433 172.262 65.2804C172.159 66.6867 171.862 67.0137 170.417 67.6167ZM167.142 64.4874V65.7322C167.142 66.517 167.16 66.5313 167.961 66.4741C168.761 66.4169 168.953 66.2084 168.962 65.3929C168.962 64.7695 168.962 64.1481 168.962 63.5247C168.962 62.6213 168.802 62.47 167.895 62.4639C167.832 62.4639 167.766 62.4639 167.705 62.4639C167.295 62.4169 167.117 62.5722 167.144 63.0015C167.156 63.4961 167.131 63.9907 167.131 64.4874H167.142Z" fill="black"/>
<path id="Vector_26" d="M34.8643 67.5634C36.6023 68.1909 36.803 68.4771 36.803 70.2532C36.803 71.1505 36.7927 72.0478 36.803 72.9451C36.803 73.315 36.6678 73.4622 36.2932 73.454C35.5235 73.4363 34.7537 73.4363 33.984 73.454C33.6094 73.454 33.4722 73.3212 33.4763 72.9471C33.4927 71.9068 33.4886 70.8644 33.4763 69.824C33.4763 69.1107 32.3872 68.5241 31.7669 68.8838C31.5724 68.9962 31.6216 69.1904 31.6195 69.36C31.6195 70.5292 31.6032 71.6983 31.6195 72.8674C31.6195 73.2987 31.4947 73.4806 31.0443 73.4561C30.3728 73.4275 29.6972 73.4561 29.0237 73.4561C28.297 73.4561 28.2949 73.4561 28.2949 72.7427V62.2124C28.2949 61.636 28.2949 61.0596 28.2949 60.4832C28.2949 60.2584 28.3359 60.0458 28.6225 60.052C30.5775 60.0928 32.5408 59.8803 34.4835 60.2052C35.9698 60.4526 36.5655 61.0801 36.7354 62.5823C36.8299 63.5234 36.8333 64.4714 36.7456 65.4132C36.6822 66.5517 36.152 67.3549 34.8643 67.5634ZM31.6236 64.4525C31.6236 64.9778 31.6236 65.5052 31.6236 66.0325C31.6236 66.1899 31.6072 66.3575 31.7894 66.4413C32.4282 66.7622 33.4067 66.2635 33.4599 65.5604C33.505 64.9717 33.4825 64.379 33.4825 63.7883C33.4825 62.6069 33.2921 62.4229 32.1149 62.4597H32.0187C31.7342 62.4454 31.6093 62.5803 31.6195 62.8685C31.6318 63.3979 31.6257 63.9252 31.6236 64.4525Z" fill="black"/>
<path id="Vector_27" d="M101.6 66.7458C101.6 64.7018 101.612 62.6763 101.6 60.6405C101.6 60.1786 101.751 60.0273 102.214 60.0273C103.673 60.0519 105.135 60.0151 106.595 60.0478C108.521 60.0907 109.461 60.802 109.665 62.6681C109.985 65.3915 109.985 68.1429 109.665 70.8663C109.448 72.6486 108.58 73.3599 106.799 73.4192C105.227 73.4723 103.653 73.4294 102.081 73.4458C101.671 73.4458 101.618 73.2189 101.618 72.8919C101.604 70.8479 101.6 68.7979 101.6 66.7458ZM104.918 66.6906C104.918 67.9394 104.918 69.1862 104.918 70.433C104.918 70.6374 104.871 70.8949 105.178 70.9092C106.11 70.9583 106.505 70.991 106.505 69.8873C106.505 67.7595 106.505 65.6318 106.505 63.5061C106.51 63.3144 106.491 63.1227 106.447 62.9359C106.335 62.5046 105.944 62.3697 105.239 62.4617C104.801 62.5209 104.926 62.8439 104.924 63.0871C104.912 64.291 104.918 65.4908 104.918 66.6906Z" fill="black"/>
<path id="Vector_28" d="M45.8465 73.4481C45.4371 73.4481 45.044 73.4481 44.6428 73.4481C44.3521 73.4481 44.1985 73.352 44.1658 73.0393C44.0839 72.3076 43.9611 71.5799 43.8956 70.8482C43.8546 70.4129 43.6909 70.2085 43.2302 70.2575C42.9582 70.2893 42.6834 70.2893 42.4114 70.2575C41.9467 70.1982 41.787 70.4231 41.7481 70.8441C41.6846 71.5125 41.5802 72.1788 41.5168 72.8472C41.4779 73.2682 41.3243 73.4747 40.8555 73.4604C40.1206 73.4256 39.3795 73.4604 38.6425 73.4604C38.0693 73.4604 38.0427 73.4358 38.1328 72.8472C38.3866 71.212 38.6487 69.5891 38.9066 67.9601L40.0489 60.7491C40.1574 60.0562 40.1554 60.0542 40.8678 60.0542C42.2333 60.0542 43.5967 60.0644 44.9621 60.0542C45.3429 60.0542 45.5087 60.1911 45.5661 60.5591C46.2089 64.6728 46.8605 68.7845 47.5211 72.8942C47.5989 73.3725 47.4454 73.5074 47.0052 73.4706C46.6183 73.4297 46.2416 73.4501 45.8465 73.4481ZM42.8433 62.4885L42.7942 62.5151C42.6079 63.9745 42.4318 65.4359 42.2333 66.8932C42.1022 67.86 42.1903 67.956 43.1709 67.8477C43.4124 67.8211 43.5127 67.7353 43.48 67.4819C43.263 65.8181 43.0542 64.1543 42.8433 62.4885Z" fill="black"/>
<path id="Vector_29" d="M71.9189 66.7256C71.9189 64.6919 71.9291 62.6561 71.9189 60.6204C71.9189 60.1809 72.0581 60.0297 72.4982 60.0358C73.9763 60.0563 75.4523 60.0358 76.9283 60.0358C77.3434 60.0421 77.7561 60.1005 78.1566 60.2096C79.2478 60.4875 79.9479 61.1886 80.0994 62.2903C80.3496 63.9736 80.3303 65.686 80.042 67.3633C79.7902 68.7409 78.9652 69.4318 77.5711 69.5871C77.0277 69.6528 76.4807 69.6835 75.9334 69.6791C75.2292 69.6791 75.2292 69.6791 75.2292 70.4047C75.2292 71.2366 75.2169 72.0705 75.2292 72.9044C75.2292 73.2907 75.1063 73.4563 74.703 73.444C73.964 73.4236 73.225 73.4215 72.488 73.444C72.0561 73.4583 71.8964 73.3173 71.9005 72.8676C71.9312 70.8298 71.9189 68.7777 71.9189 66.7256ZM75.2353 64.8534C75.2353 65.4768 75.2353 66.1022 75.2353 66.7256C75.2353 66.8666 75.2046 67.0567 75.3684 67.1058C75.7062 67.2143 76.0705 67.2078 76.4042 67.0874C76.7011 66.9729 76.7441 66.6786 76.7461 66.4027C76.7461 65.3153 76.7461 64.2259 76.7461 63.1324C76.7461 62.7543 76.5823 62.5621 76.1995 62.5662C76.0393 62.5744 75.8787 62.5744 75.7184 62.5662C75.3356 62.5294 75.2128 62.7093 75.223 63.0752C75.2496 63.6679 75.2353 64.2606 75.2353 64.8534Z" fill="black"/>
<path id="Vector_30" d="M193.69 66.6764C193.729 64.6325 193.778 62.6049 193.801 60.5712C193.801 60.1195 193.946 59.958 194.415 59.958C195.848 60.0112 197.303 60.0234 198.749 60.052C198.925 60.0544 199.101 60.066 199.277 60.0868C201.236 60.3525 202.102 61.3397 202.057 63.3244C202.026 64.6039 202.102 65.8895 201.893 67.1608C201.643 68.6897 200.806 69.4643 199.262 69.6238C198.639 69.6861 198.012 69.7004 197.387 69.6667C197.058 69.6524 196.931 69.7791 196.929 70.1123C196.929 71.0402 196.884 71.9702 196.886 72.9002C196.886 73.309 196.73 73.4357 196.341 73.4173C195.604 73.3846 194.863 73.3621 194.126 73.3785C193.665 73.3887 193.553 73.1925 193.563 72.7653C193.618 70.7459 193.651 68.7101 193.69 66.6764ZM198.603 64.7837C198.603 64.3852 198.618 63.9846 198.626 63.5839C198.646 62.6049 198.609 62.562 197.602 62.562C197.553 62.562 197.506 62.562 197.457 62.562C197.172 62.5395 197.047 62.6703 197.047 62.9565C197.031 64.2196 197 65.4848 196.978 66.748C196.978 66.889 196.963 67.0341 197.127 67.12C197.27 67.2044 197.433 67.2499 197.599 67.2518C197.766 67.2537 197.93 67.2121 198.075 67.1309C198.22 67.0498 198.341 66.9321 198.426 66.7896C198.511 66.6471 198.558 66.4847 198.56 66.3187C198.607 65.8016 198.603 65.2968 198.613 64.7796L198.603 64.7837Z" fill="black"/>
<path id="Vector_31" d="M58.7285 66.7501C58.7285 64.7163 58.7388 62.6806 58.7285 60.6469C58.7285 60.1931 58.8636 60.0337 59.3304 60.0337C61.0323 60.0541 62.7328 60.0541 64.4319 60.0337C64.8598 60.0337 65.0461 60.1502 65.0297 60.604C65.0133 61.0577 65.0297 61.5012 65.0297 61.9489C65.0297 62.5232 64.9826 62.562 64.3848 62.562C63.7871 62.562 63.134 62.562 62.5076 62.562C62.221 62.562 62.0531 62.6397 62.0593 62.9708C62.0715 63.6269 62.0593 64.2851 62.0593 64.9412C62.0593 65.2314 62.1841 65.35 62.4687 65.3377C63.0828 65.3377 63.697 65.352 64.2989 65.3377C64.7083 65.3254 64.8455 65.4971 64.8332 65.8793C64.8188 66.3127 64.8147 66.746 64.8332 67.1772C64.8516 67.6085 64.6981 67.7904 64.2497 67.772C63.6745 67.7455 63.0951 67.772 62.5178 67.772C62.1944 67.772 62.0531 67.8804 62.0593 68.2176C62.0736 68.9698 62.0756 69.724 62.0593 70.4761C62.0593 70.8461 62.221 70.9442 62.5547 70.9381C63.2773 70.9258 64 70.9483 64.7206 70.9381C65.1157 70.9381 65.2692 71.0812 65.2508 71.4777C65.2262 71.9887 65.2385 72.4996 65.2508 73.0147C65.2508 73.3029 65.1628 73.4685 64.8414 73.4664C62.9484 73.4664 61.0555 73.4664 59.1625 73.4664C58.7531 73.4664 58.7531 73.2068 58.7531 72.9166C58.7367 70.855 58.7285 68.7994 58.7285 66.7501Z" fill="black"/>
<path id="Vector_32" d="M132.532 67.9969C132.532 66.3801 132.52 64.7613 132.532 63.1425C132.532 62.7031 132.391 62.5293 131.949 62.562C131.539 62.5907 131.146 62.562 130.745 62.562C130.448 62.562 130.297 62.4517 130.301 62.1389C130.301 61.5789 130.301 61.0182 130.301 60.4568C130.301 60.1502 130.442 60.0337 130.743 60.0337C133.055 60.0337 135.366 60.0337 137.675 60.0337C137.972 60.0337 138.125 60.14 138.121 60.4527C138.121 61.0127 138.121 61.5748 138.121 62.1349C138.121 62.4455 137.976 62.5661 137.679 62.56C137.327 62.56 136.973 62.56 136.62 62.56C135.894 62.56 135.892 62.56 135.892 63.2713C135.892 66.3944 135.892 69.5189 135.892 72.6448C135.892 73.4399 135.892 73.4399 135.101 73.4419C134.428 73.4419 133.752 73.4215 133.081 73.4419C132.659 73.4582 132.514 73.3009 132.518 72.8859C132.54 71.2651 132.532 69.632 132.532 67.9969Z" fill="black"/>
<path id="Vector_33" d="M15.1443 68.0499C15.1443 69.6666 15.1341 71.2834 15.1443 72.9001C15.1443 73.3089 15.0112 73.4745 14.5895 73.4602C13.8853 73.4356 13.179 73.4602 12.4727 73.4602C11.8381 73.4602 11.8218 73.4438 11.8218 72.8163C11.8218 69.7259 11.8218 66.6355 11.8218 63.545C11.8218 62.4924 11.9302 62.5905 10.8739 62.5803C9.38357 62.566 9.60876 62.7622 9.60672 61.3069C9.60467 59.8516 9.402 60.0663 10.835 60.0581C12.8085 60.0581 14.7799 60.0581 16.7534 60.0581C17.3675 60.0581 17.3982 60.0908 17.4044 60.7162C17.4044 61.125 17.4044 61.5174 17.4044 61.916C17.4044 62.5292 17.3491 62.5783 16.7493 62.5823C16.3644 62.5823 15.9796 62.5987 15.5967 62.5823C15.2139 62.566 15.1218 62.7172 15.1259 63.0647C15.1505 64.7142 15.1443 66.38 15.1443 68.0499Z" fill="black"/>
</g>
</svg>
