<svg width="158" height="84" viewBox="0 0 158 84" fill="none" xmlns="http://www.w3.org/2000/svg">
<g id="YI0476">
<path id="Vector" d="M78.5392 25.0454H0.398746C0.228831 25.0454 0.153089 24.9555 0.153089 24.792C0.153089 24.7041 0.153089 24.6162 0.153089 24.5303C0.153089 16.8452 0.153089 9.16065 0.153089 1.47682C0.153089 1.37054 0.153089 1.27243 0.153089 1.15592C0.147856 1.12406 0.150255 1.0914 0.160099 1.06064C0.169943 1.02988 0.186946 1.00189 0.209716 0.978955C0.232487 0.956022 0.26038 0.9388 0.291102 0.928704C0.321824 0.918607 0.354502 0.915923 0.386463 0.920869H0.824561H155.47C155.83 0.920869 156.19 0.920869 156.549 0.920869C156.807 0.920869 156.938 1.00058 156.911 1.27243C156.911 1.36032 156.911 1.4482 156.911 1.53405V24.4895C156.911 24.5774 156.911 24.6652 156.911 24.7511C156.925 24.9555 156.835 25.0577 156.62 25.0475C156.405 25.0372 156.231 25.0475 156.037 25.0475L78.5392 25.0454ZM152.129 12.8166C152.112 11.6532 151.729 10.5246 151.034 9.59124C150.988 9.52992 150.958 9.40319 150.845 9.4502C150.733 9.49722 150.743 9.58511 150.733 9.67504C150.631 10.3691 150.47 11.053 150.249 11.719C149.783 13.2049 149.134 14.5805 148.022 15.7251C147.236 16.528 146.228 17.0794 145.127 17.3091C143.889 17.5891 142.661 17.4665 141.43 17.2028C139.954 16.8547 138.522 16.3376 137.164 15.6617C136.14 15.1814 135.16 14.6398 134.185 14.0613C133.354 13.5769 132.548 13.0394 131.743 12.5263C131.561 12.4078 131.538 12.2872 131.729 12.138C132.073 11.8539 132.396 11.5452 132.752 11.2652C134.474 9.86921 136.31 8.6592 138.382 7.8355C139.763 7.27776 141.226 6.94845 142.714 6.86054C144.015 6.78302 145.319 6.90923 146.581 7.23458C146.636 7.24889 146.702 7.27546 146.745 7.22232C146.788 7.16918 146.745 7.09355 146.702 7.04245C146.61 6.93003 146.511 6.82375 146.417 6.71133C145.942 6.14257 145.356 5.67701 144.694 5.34339C144.032 5.00977 143.309 4.81518 142.568 4.77164C141.263 4.70011 139.957 4.89484 138.73 5.34394C136.913 5.98627 135.178 6.83823 133.559 7.88251C132.087 8.79272 130.663 9.77854 129.293 10.836C129.139 10.9545 129.014 11.0118 128.834 10.8667C128.048 10.2289 127.217 9.6546 126.377 9.09456C124.218 7.66381 121.96 6.41088 119.497 5.55856C118.258 5.12045 116.974 4.82222 115.669 4.66944C114.654 4.55739 113.628 4.58352 112.62 4.74711C110.442 5.05496 108.449 6.13792 107.007 7.79666C106.338 8.56788 105.806 9.44705 105.433 10.3965C104.867 11.7364 104.68 13.2052 104.89 14.6438C105.061 15.6415 105.438 16.5929 105.996 17.4379C106.667 18.5403 107.607 19.4546 108.729 20.095C110.571 21.1272 112.559 21.3071 114.61 21.0475C115.969 20.8615 117.302 20.5249 118.586 20.0439C120.698 19.2492 122.73 18.2562 124.654 17.0782C125.557 16.5427 126.445 15.9826 127.305 15.3797C127.36 15.3249 127.432 15.2916 127.51 15.2856C127.587 15.2796 127.664 15.3014 127.727 15.347C129.188 16.328 130.685 17.2519 132.23 18.1001C134.433 19.3142 136.693 20.3853 139.148 20.9964C140.99 21.4542 142.833 21.583 144.675 21.1436C147.001 20.5896 148.974 19.445 150.464 17.5605C151.569 16.2285 152.159 14.5456 152.129 12.8166Z" fill="#0183BF"/>
<path id="Vector_2" d="M16.8595 45.4868C17.1809 44.4648 17.4736 43.5328 17.7725 42.5987L19.2055 38.0408C19.66 36.5977 20.1145 35.1534 20.5689 33.7076C21.1053 31.9948 21.6383 30.2806 22.1678 28.5651C22.1857 28.4723 22.2375 28.3895 22.3132 28.3329C22.3889 28.2762 22.483 28.2497 22.5772 28.2585H32.8806C33.4395 28.2585 33.4395 28.2585 33.4395 28.8308V55.1771C33.4395 55.2548 33.4395 55.3324 33.4395 55.4101C33.4559 55.637 33.3515 55.7208 33.1283 55.7187C32.5531 55.7187 31.9799 55.7187 31.4046 55.7187H27.1363C26.649 55.7187 26.649 55.7187 26.649 55.2139V34.5375C26.5385 34.5497 26.5467 34.6315 26.5283 34.6846C25.7763 36.9411 25.0256 39.1983 24.2764 41.4562C23.5476 43.6391 22.8106 45.8179 22.0818 47.9968C21.2507 50.4863 20.4236 52.9778 19.6006 55.4714C19.5871 55.5474 19.5456 55.6156 19.4842 55.6625C19.4228 55.7094 19.346 55.7317 19.269 55.7249C17.4388 55.7249 15.6093 55.7249 13.7805 55.7249C13.7078 55.7317 13.6352 55.7112 13.5769 55.6674C13.5185 55.6235 13.4787 55.5594 13.4653 55.4878C13.1295 54.4535 12.7917 53.4207 12.4519 52.3892L11.0189 48.0131C10.6245 46.7949 10.2287 45.5767 9.83154 44.3586C9.42211 43.0852 8.9963 41.8118 8.58277 40.5385C8.13785 39.1758 7.6943 37.8091 7.25211 36.4383C7.0044 35.6739 6.75874 34.9095 6.45372 34.145V55.2098C6.45372 55.7126 6.45371 55.7126 5.96035 55.7126H0.598811C0.160717 55.7126 0.148438 55.7003 0.148438 55.2793V28.6714C0.148438 28.281 0.173004 28.2626 0.557871 28.2626H10.978C11.1049 28.2626 11.2318 28.2748 11.3587 28.281C11.4127 28.282 11.4647 28.3018 11.5058 28.3368C11.5468 28.3718 11.5745 28.42 11.5839 28.4731C12.0166 29.8725 12.4499 31.2726 12.8839 32.6734C13.4298 34.4448 13.9757 36.2162 14.5216 37.9876C14.9126 39.2508 15.2975 40.5139 15.6885 41.775C16.0734 42.9789 16.4541 44.191 16.8595 45.4868Z" fill="black"/>
<path id="Vector_3" d="M150.527 46.0387V45.7198C150.527 40.0063 150.527 34.2942 150.527 28.5835C150.527 28.3341 150.62 28.2544 150.849 28.2544C152.759 28.2544 154.676 28.2544 156.599 28.2544C156.88 28.2544 156.974 28.377 156.972 28.6448C156.972 29.4787 156.972 30.3147 156.972 31.1506V55.0504C156.972 55.1567 156.972 55.265 156.972 55.3713C156.988 55.6165 156.886 55.7249 156.632 55.7167C156.223 55.7044 155.795 55.7167 155.377 55.7167C152.943 55.7167 150.511 55.7167 148.079 55.7167C147.961 55.7319 147.842 55.7078 147.739 55.6483C147.637 55.5888 147.557 55.4972 147.512 55.3876C146.453 53.3205 145.385 51.2596 144.308 49.2047C143.257 47.1894 142.206 45.1748 141.153 43.1608C140.212 41.3526 139.273 39.5424 138.336 37.7301C138.305 37.6604 138.252 37.6025 138.185 37.5645V55.2384C138.185 55.7106 138.185 55.7106 137.72 55.7106H132.168C131.743 55.7106 131.734 55.7106 131.734 55.3018V28.6959C131.734 28.2871 131.761 28.2646 132.164 28.2646C135.141 28.2646 138.118 28.2646 141.096 28.2646C141.206 28.253 141.316 28.2781 141.41 28.3358C141.503 28.3935 141.575 28.4806 141.614 28.5835C142.433 30.2186 143.276 31.8538 144.105 33.4889C144.998 35.2487 145.88 37.0086 146.767 38.7684C147.53 40.2748 148.302 41.7791 149.066 43.2855C149.535 44.2093 149.997 45.1393 150.462 46.0652L150.527 46.0387Z" fill="black"/>
<path id="Vector_4" d="M78.559 64.1767H0.619194C0.150392 64.1767 0.150391 64.1767 0.150391 63.7147C0.150391 62.8972 0.150391 62.0796 0.150391 61.262C0.150391 60.8389 0.164721 60.8267 0.598721 60.8267C0.821862 60.8267 1.045 60.8267 1.27019 60.8267H156.392C156.45 60.8267 156.509 60.8267 156.566 60.8267C156.939 60.8267 156.976 60.8532 156.976 61.2232C156.976 62.0898 156.976 62.9544 156.976 63.819C156.976 64.0765 156.896 64.1951 156.622 64.1746C156.38 64.1583 156.134 64.1746 155.893 64.1746L78.559 64.1767Z" fill="black"/>
<path id="Vector_5" d="M116.791 27.4206C118.821 27.484 120.574 27.6741 122.254 28.2893C124.665 29.1623 126.698 30.8405 128.011 33.0394C128.864 34.4463 129.464 35.9918 129.782 37.6056C130.051 38.8882 130.188 40.1949 130.191 41.5054C130.218 42.5132 130.189 43.5218 130.103 44.5263C129.786 47.3265 129.033 49.9734 127.196 52.2033C125.955 53.7131 124.32 54.8511 122.471 55.492C121.001 56.0015 119.459 56.2774 117.902 56.3096C115.724 56.3791 113.57 56.1808 111.505 55.4348C110.157 54.9721 108.915 54.2474 107.849 53.3027C106.783 52.3579 105.915 51.2118 105.296 49.9305C104.554 48.3877 104.07 46.7341 103.863 45.0353C103.713 43.9292 103.644 42.8136 103.658 41.6975C103.658 39.488 103.988 37.3255 104.823 35.2632C105.355 33.9569 106.094 32.7444 107.011 31.672C108.255 30.1913 109.856 29.0505 111.662 28.3568C112.88 27.8872 114.163 27.6093 115.466 27.5331C115.998 27.5024 116.518 27.3961 116.791 27.4206ZM111.138 42.1533C111.155 42.6868 111.138 43.2202 111.192 43.7537C111.29 45.1505 111.642 46.5177 112.231 47.7884C112.572 48.543 113.059 49.2225 113.664 49.7874C115.024 50.9831 116.614 51.2529 118.332 50.8768C120.05 50.5007 121.124 49.3439 121.859 47.8252C122.566 46.3638 122.813 44.79 122.897 43.1937C122.984 41.6514 122.877 40.1043 122.578 38.5887C122.362 37.3714 121.908 36.2087 121.241 35.1671C120.668 34.2641 119.8 33.5867 118.784 33.2499C117.958 32.9887 117.083 32.912 116.223 33.0251C115.152 33.1397 114.157 33.6343 113.419 34.4191C112.487 35.394 111.986 36.604 111.638 37.8815C111.27 39.2747 111.101 40.7129 111.138 42.1533Z" fill="black"/>
<path id="Vector_6" d="M88.7716 55.7129C87.3713 55.7129 85.969 55.7129 84.5687 55.7129C84.4779 55.7207 84.3867 55.7028 84.3056 55.6612C84.2245 55.6196 84.1568 55.5561 84.1102 55.4779C83.0559 53.8591 81.9913 52.2444 80.9309 50.6297C80.2553 49.5975 79.5736 48.5673 78.9083 47.531C78.7691 47.3144 78.7036 47.3267 78.5705 47.531C76.8482 50.1882 75.1251 52.8453 73.4014 55.5024C73.3632 55.5689 73.3071 55.6233 73.2394 55.6594C73.1717 55.6956 73.0952 55.712 73.0186 55.7068H65.3724C65.2783 55.7068 65.1677 55.7334 65.1063 55.6312C65.0449 55.529 65.137 55.4492 65.1902 55.3716C66.5291 53.404 67.8679 51.4363 69.2068 49.4687C70.8623 47.0255 72.5177 44.581 74.1732 42.1351C74.2679 41.9772 74.3718 41.825 74.4844 41.6793C74.5635 41.5996 74.6079 41.492 74.6079 41.3798C74.6079 41.2677 74.5635 41.16 74.4844 41.0804C72.8153 38.6835 71.1475 36.286 69.4811 33.8878C68.261 32.1314 67.0436 30.3749 65.829 28.6185C65.7757 28.5388 65.6959 28.4571 65.7471 28.3549C65.7982 28.2527 65.9272 28.2588 66.0316 28.2588H69.8557C71.3624 28.2588 72.8712 28.2588 74.38 28.2588C74.5092 28.248 74.6387 28.2747 74.7531 28.3356C74.8675 28.3965 74.9618 28.489 75.0248 28.6022C76.4578 30.8505 77.9195 33.0988 79.3566 35.3472C79.5204 35.6047 79.5757 35.5168 79.6944 35.3349C80.8613 33.5335 82.0316 31.7342 83.2053 29.9369C83.5124 29.4647 83.8195 28.9946 84.1225 28.5061C84.1676 28.426 84.2343 28.36 84.3149 28.3156C84.3956 28.2712 84.487 28.2501 84.579 28.2547H92.3132C92.4094 28.2547 92.5179 28.2363 92.5773 28.3385C92.6366 28.4407 92.5445 28.5204 92.4913 28.5981C90.8044 31.0508 89.1175 33.4974 87.4307 35.9379C86.231 37.6834 85.0396 39.433 83.8358 41.1765C83.7859 41.2329 83.7583 41.3056 83.7583 41.3808C83.7583 41.4561 83.7859 41.5288 83.8358 41.5852C85.7684 44.4304 87.6975 47.2769 89.6232 50.1248C90.7942 51.854 91.9679 53.5818 93.1443 55.3082C93.2119 55.4084 93.349 55.5126 93.2733 55.6393C93.1976 55.7661 93.0686 55.7047 92.9498 55.7047C91.5537 55.715 90.1636 55.7129 88.7716 55.7129Z" fill="black"/>
<path id="Vector_7" d="M49.341 28.2563C50.5386 28.2563 51.7341 28.2563 52.9317 28.2563C53.0563 28.2421 53.182 28.2728 53.286 28.3429C53.3899 28.4129 53.4654 28.5178 53.4988 28.6386C54.5169 31.1594 55.5405 33.6803 56.5695 36.2011C57.8661 39.3733 59.1626 42.5448 60.4591 45.7156L64.4081 55.365C64.5289 55.6594 64.4859 55.7268 64.1604 55.7268C61.7489 55.7268 59.3353 55.7268 56.9216 55.7268C56.8207 55.7364 56.7199 55.7082 56.6386 55.6478C56.5573 55.5874 56.5013 55.499 56.4815 55.3998C55.9595 53.969 55.4292 52.5587 54.9052 51.1382C54.7434 50.7008 54.7475 50.6987 54.291 50.6987H43.6089C43.1258 50.6987 43.1217 50.6987 42.9579 51.1423C42.4379 52.5444 41.9159 53.9465 41.4143 55.3548C41.3896 55.4717 41.3218 55.575 41.2243 55.6443C41.1269 55.7136 41.0069 55.7437 40.8882 55.7289C38.841 55.7289 36.7939 55.7289 34.759 55.7289C34.4151 55.7289 34.3782 55.6655 34.5031 55.3548L36.5728 50.1591C37.4858 47.8686 38.3982 45.578 39.3098 43.2874C40.2857 40.8225 41.2615 38.3575 42.2373 35.8925C42.9129 34.1858 43.5966 32.4832 44.2845 30.7826C44.5588 30.0959 44.8208 29.4071 45.1033 28.7224C45.2773 28.287 45.308 28.2768 45.7666 28.2768L49.341 28.2563ZM48.8496 34.5476C48.8134 34.6091 48.7806 34.6726 48.7514 34.7377C48.4525 35.6002 48.1536 36.4607 47.8609 37.3253C47.478 38.4454 47.1034 39.5736 46.7185 40.6896C46.2354 42.1019 45.742 43.5143 45.2569 44.9287C45.1443 45.2578 45.1504 45.2619 45.4902 45.2619H50.9787C51.4844 45.2619 51.99 45.2619 52.4957 45.2619C52.7004 45.2619 52.7556 45.2087 52.6758 45.0023C52.4588 44.4423 52.2664 43.874 52.0617 43.3079C51.4352 41.5951 50.8095 39.8816 50.1844 38.1674C49.7381 36.9839 49.3062 35.8005 48.8476 34.5476H48.8496Z" fill="black"/>
<path id="Vector_8" d="M101.572 42.0079V55.2097C101.572 55.7146 101.572 55.7125 101.054 55.7125H95.0989C94.7099 55.7125 94.6895 55.6839 94.6895 55.3037C94.6895 46.4358 94.6895 37.5671 94.6895 28.6978C94.6895 28.3074 94.7386 28.2563 95.1214 28.2563H101.165C101.56 28.2563 101.574 28.287 101.574 28.6917L101.572 42.0079Z" fill="black"/>
<path id="Vector_9" d="M92.6474 78.5249C92.7566 77.6814 92.8644 76.8386 92.9709 75.9965C93.0978 74.995 93.2241 73.9948 93.3496 72.996C93.497 71.8412 93.6485 70.6864 93.7836 69.5213C93.8102 69.2863 93.9085 69.2045 94.1357 69.2066C95.1006 69.2066 96.0642 69.2066 97.0263 69.2066C97.2577 69.2066 97.3437 69.2802 97.3027 69.5152C97.1205 70.527 96.9444 71.5387 96.7684 72.5525C96.6619 73.1657 96.5637 73.7789 96.4572 74.392C96.2525 75.5591 96.0478 76.7242 95.8431 77.8892C95.581 79.4099 95.3231 80.9306 95.0692 82.4513C95.0698 82.5039 95.0587 82.556 95.0367 82.6039C95.0147 82.6517 94.9825 82.6942 94.9422 82.7281C94.9019 82.7621 94.8546 82.7868 94.8037 82.8004C94.7527 82.814 94.6994 82.8162 94.6475 82.8069C93.3537 82.7987 92.0572 82.7987 90.7579 82.8069C90.7059 82.8156 90.6526 82.8133 90.6016 82.8001C90.5505 82.7869 90.5028 82.7632 90.4615 82.7305C90.4202 82.6977 90.3862 82.6567 90.3618 82.61C90.3374 82.5633 90.3231 82.512 90.3198 82.4594C89.7753 80.0946 89.2164 77.7339 88.6657 75.3711C88.5142 74.7293 88.3709 74.0854 88.2194 73.4437C88.2132 73.3252 88.1703 73.2117 88.0966 73.1187C88.0147 73.4191 87.9308 73.691 87.8632 73.9669C87.4804 75.5223 87.1037 77.0778 86.7209 78.6332C86.4036 79.925 86.0781 81.2126 85.7649 82.5044C85.7611 82.5498 85.7481 82.5939 85.7267 82.6341C85.7052 82.6743 85.6757 82.7096 85.64 82.7379C85.6044 82.7663 85.5632 82.787 85.5192 82.7989C85.4752 82.8108 85.4292 82.8135 85.3841 82.8069C84.0725 82.8069 82.7589 82.8069 81.4433 82.8069C81.3955 82.8139 81.3468 82.8106 81.3004 82.7972C81.254 82.7839 81.211 82.7607 81.1743 82.7293C81.1376 82.6979 81.1081 82.6591 81.0878 82.6153C81.0675 82.5716 81.0567 82.524 81.0564 82.4758C80.7411 80.5913 80.4231 78.7068 80.1024 76.8223C79.794 74.9882 79.4835 73.1541 79.1709 71.32C79.0686 70.7191 78.9805 70.1141 78.87 69.5132C78.827 69.2802 78.915 69.2148 79.1259 69.2168H82.4014C82.5876 69.2168 82.6921 69.2802 82.7146 69.4764C82.8511 70.621 82.9875 71.7663 83.124 72.9122C83.3547 74.7395 83.588 76.5668 83.8241 78.3941C83.8324 78.4618 83.8661 78.5239 83.9183 78.5678L84.3278 76.7466C84.6471 75.3254 84.9651 73.9056 85.2817 72.4871C85.5049 71.4917 85.7341 70.5004 85.9471 69.5029C85.9497 69.46 85.9613 69.4181 85.981 69.3798C86.0008 69.3415 86.0282 69.3078 86.0617 69.2807C86.0952 69.2536 86.134 69.2338 86.1756 69.2224C86.2171 69.211 86.2606 69.2084 86.3033 69.2148C87.6749 69.2148 89.0465 69.2148 90.4181 69.2148C90.4586 69.2084 90.4999 69.2106 90.5395 69.2211C90.5791 69.2316 90.6161 69.2503 90.648 69.2758C90.68 69.3014 90.7063 69.3334 90.7252 69.3697C90.7441 69.4059 90.7553 69.4458 90.7579 69.4866C90.8684 70.0671 90.9851 70.6476 91.1039 71.228C91.4956 73.148 91.8886 75.0672 92.283 76.9858C92.3868 77.4968 92.4898 78.0091 92.5922 78.5228L92.6474 78.5249Z" fill="black"/>
<path id="Vector_10" d="M97.8112 75.9785V69.628C97.8112 69.2192 97.8112 69.2192 98.2206 69.2192H101.257C101.686 69.2192 101.686 69.2192 101.686 69.6669V74.1247C101.686 74.5335 101.686 74.5335 102.096 74.5335C103.312 74.5335 104.528 74.5335 105.744 74.5335C106.043 74.5335 106.127 74.4374 106.125 74.1472C106.112 72.6408 106.125 71.1364 106.125 69.6301C106.125 69.2213 106.125 69.2213 106.534 69.2213H109.656C110.004 69.2213 110.041 69.2581 110.041 69.6076V82.4271C110.041 82.7787 110.008 82.8094 109.656 82.8114H106.516C106.155 82.8114 106.106 82.7664 106.106 82.4026C106.106 80.8288 106.106 79.257 106.106 77.6832C106.106 77.2744 106.106 77.2744 105.697 77.2744C104.481 77.2744 103.265 77.2744 102.049 77.2744C101.758 77.2744 101.66 77.3582 101.662 77.6546C101.674 79.21 101.662 80.7634 101.662 82.3168C101.662 82.7787 101.631 82.8073 101.16 82.8073H98.1981C97.8132 82.8073 97.7702 82.7378 97.7887 82.3597C97.8112 81.8834 97.8091 81.4072 97.8091 80.9289C97.8118 79.2802 97.8125 77.63 97.8112 75.9785Z" fill="black"/>
<path id="Vector_11" d="M147.02 78.3859H148.629C148.805 78.3859 148.967 78.4125 148.969 78.6455C148.969 79.4917 149.65 80.1376 150.516 80.2704C151.121 80.3933 151.749 80.318 152.308 80.0558C152.686 79.8514 152.973 79.598 153.004 79.1279C153.028 78.8953 152.983 78.6607 152.874 78.454C152.764 78.2472 152.596 78.0776 152.39 77.9669C152.005 77.7557 151.591 77.6034 151.161 77.5152C150.078 77.2434 148.981 77.0185 147.931 76.6261C147.241 76.3685 146.592 76.0538 146.115 75.4631C145.784 75.0536 145.546 74.5773 145.417 74.067C145.289 73.5568 145.272 73.0247 145.37 72.5076C145.648 70.668 146.852 69.6971 148.549 69.2373C149.672 68.9544 150.835 68.8639 151.988 68.9695C152.932 69.0209 153.856 69.2541 154.711 69.6563C155.33 69.9623 155.843 70.4453 156.186 71.0437C156.529 71.642 156.686 72.3288 156.637 73.0165C156.617 73.274 156.474 73.321 156.265 73.3047C155.528 73.2475 154.789 73.274 154.05 73.272C153.749 73.272 153.448 73.2924 153.147 73.3026C152.912 73.3026 152.779 73.2372 152.75 72.9613C152.733 72.7114 152.642 72.4721 152.488 72.2743C152.334 72.0765 152.124 71.9292 151.886 71.8515C151.182 71.596 150.475 71.5449 149.839 72.0252C149.202 72.5055 149.245 73.3497 149.945 73.7564C150.645 74.1631 151.378 74.298 152.123 74.4759C153.19 74.7293 154.273 74.9276 155.251 75.4672C156.795 76.3154 157.315 77.9362 157.033 79.555C156.777 81.0144 155.804 81.8749 154.529 82.439C153.581 82.8505 152.557 83.0594 151.524 83.0522C150.394 83.0522 149.272 83.0522 148.174 82.7047C147.014 82.3409 146.074 81.7073 145.534 80.579C145.281 79.9785 145.129 79.3404 145.085 78.6905C145.059 78.4513 145.2 78.3859 145.407 78.388L147.02 78.3859Z" fill="black"/>
<path id="Vector_12" d="M111.592 75.9598C111.592 73.8117 111.592 71.6676 111.592 69.5194C111.592 69.2864 111.668 69.2148 111.893 69.2148C115.152 69.2148 118.411 69.2148 121.67 69.2148C121.922 69.2148 122.018 69.2986 122.014 69.5541C122.004 70.2225 122 70.895 122.014 71.5633C122.014 71.8433 121.92 71.9353 121.641 71.9333C119.715 71.9333 117.789 71.9333 115.862 71.9333C115.469 71.9333 115.467 71.9333 115.467 72.3134C115.467 72.945 115.467 73.5766 115.467 74.2082C115.467 74.5863 115.467 74.5924 115.877 74.5924H121.044C121.473 74.5924 121.488 74.6067 121.488 75.0319C121.488 75.6839 121.488 76.3339 121.488 76.9859C121.488 77.2659 121.388 77.3538 121.113 77.3517C119.371 77.3517 117.633 77.3517 115.887 77.3517C115.477 77.3517 115.477 77.3517 115.477 77.7748C115.477 78.4166 115.477 79.0584 115.477 79.6982C115.477 80.0763 115.477 80.0784 115.887 80.0784H121.521C122.026 80.0784 122.026 80.0784 122.026 80.5975C122.026 81.2107 122.026 81.8402 122.026 82.4616C122.026 82.7293 121.926 82.8213 121.666 82.8213C118.435 82.8213 115.205 82.8213 111.975 82.8213C111.69 82.8213 111.606 82.7089 111.608 82.4391C111.608 80.2821 111.608 78.1257 111.608 75.97L111.592 75.9598Z" fill="black"/>
<path id="Vector_13" d="M123.274 76.0027V69.6787C123.274 69.2188 123.274 69.2168 123.718 69.2168H133.233C133.667 69.2168 133.673 69.2168 133.673 69.6562C133.673 70.298 133.673 70.9378 133.673 71.5796C133.673 71.8473 133.577 71.9311 133.313 71.9311C131.386 71.9311 129.46 71.9311 127.534 71.9311C127.124 71.9311 127.124 71.9311 127.124 72.3399C127.124 72.9715 127.137 73.6031 127.124 74.2347C127.124 74.5167 127.216 74.6005 127.493 74.5985C129.225 74.5985 130.957 74.5985 132.688 74.5985C133.141 74.5985 133.143 74.5985 133.143 75.0522C133.143 75.7022 133.143 76.3542 133.143 77.0042C133.143 77.2719 133.047 77.3578 132.783 77.3578C131.043 77.3578 129.302 77.3578 127.558 77.3578C127.126 77.3578 127.124 77.3578 127.124 77.7931V79.6327C127.124 80.0885 127.124 80.0885 127.597 80.0885H133.2C133.647 80.0885 133.661 80.1028 133.661 80.5443C133.661 81.1575 133.661 81.7706 133.661 82.3838C133.661 82.7926 133.632 82.8294 133.213 82.8294H123.681C123.3 82.8294 123.271 82.8008 123.271 82.4063C123.271 81.7747 123.271 81.1431 123.271 80.5136L123.274 76.0027Z" fill="black"/>
<path id="Vector_14" d="M134.896 76.0107V69.6295C134.896 69.2207 134.907 69.2207 135.306 69.2207H138.377C138.755 69.2207 138.768 69.233 138.768 69.6172V79.6121C138.768 80.0719 138.768 80.0719 139.234 80.0719H144.459C144.868 80.0719 144.889 80.0924 144.891 80.4991V82.306C144.891 82.8108 144.891 82.8108 144.393 82.8108H135.277C134.925 82.8108 134.896 82.7802 134.896 82.4245V76.0107Z" fill="black"/>
<path id="Vector_15" d="M112.87 8.66568C114.125 8.63093 115.315 8.94979 116.484 9.35653C119.231 10.3151 121.712 11.7847 124.124 13.3831C124.294 13.4955 124.464 13.61 124.638 13.7162C124.812 13.8225 124.808 13.9206 124.658 14.0514C123.359 15.2242 121.943 16.2617 120.433 17.148C119.027 17.9861 117.495 18.5921 115.896 18.9426C114.901 19.1704 113.877 19.2394 112.86 19.147C111.949 19.0703 111.058 18.8308 110.232 18.4398C108.754 17.6937 107.753 16.5553 107.427 14.8976C107.276 14.125 107.495 13.3892 107.724 12.6697C108.062 11.6151 108.543 10.6258 109.382 9.86751C110.008 9.30835 110.773 8.92718 111.597 8.76379C112.018 8.69152 112.444 8.65867 112.87 8.66568Z" fill="#0183BF"/>
</g>
</svg>
