<svg width="125" height="72" viewBox="0 0 125 72" fill="none" xmlns="http://www.w3.org/2000/svg">
<g id="y4qVrd">
<path id="Vector" d="M124.233 9.87469C124.203 11.8328 123.361 13.4434 121.689 14.5267C115.104 18.7931 108.512 23.0499 101.915 27.2972C101.745 27.4093 101.544 27.4664 101.34 27.4607C95.7224 27.4607 90.105 27.4607 84.4876 27.4607C84.1702 27.4607 84.0781 27.3851 84.0781 27.0519C84.0877 18.2943 84.0877 9.53608 84.0781 0.777141C84.0781 0.484859 84.1395 0.384705 84.4528 0.386749C88.7232 0.39765 92.9942 0.39765 97.266 0.386749C97.5894 0.386749 97.6345 0.499166 97.6345 0.781229C97.6263 5.35283 97.6263 9.92374 97.6345 14.494V15.0029C97.9211 14.8292 98.1463 14.6963 98.3694 14.5553C101.751 12.4296 105.131 10.3026 108.509 8.17414C109.148 7.79576 109.674 7.25437 110.034 6.60562C110.394 5.95686 110.574 5.22415 110.556 4.48279C110.566 3.22782 110.566 1.97284 110.556 0.717867C110.556 0.478727 110.603 0.388794 110.867 0.390838C115.216 0.390838 119.564 0.390838 123.912 0.390838C124.174 0.390838 124.229 0.476682 124.229 0.721954C124.213 3.77968 124.27 6.82719 124.233 9.87469Z" fill="#0F4194"/>
<path id="Vector_2" d="M82.6434 9.55361C82.6434 11.7651 81.7324 13.48 79.847 14.6941C73.3438 18.8746 66.8488 23.0654 60.362 27.2663C60.1621 27.403 59.9246 27.4744 59.6824 27.4707C54.1045 27.4707 48.526 27.4707 42.9467 27.4707C42.568 27.4707 42.4902 27.3706 42.4902 27.0068C42.5025 18.286 42.5025 9.56519 42.4902 0.844405C42.4902 0.507156 42.5537 0.392696 42.9222 0.39474C47.153 0.409729 51.3838 0.409729 55.6146 0.39474C55.9831 0.39474 56.0486 0.5092 56.0466 0.844405C56.037 5.40238 56.037 9.96035 56.0466 14.5183V15.013C57.3936 14.1668 58.671 13.3676 59.9464 12.5602C62.2208 11.1295 64.4932 9.69873 66.7717 8.26797C68.2293 7.35638 68.9642 6.06052 68.9478 4.33953C68.9478 3.14792 68.9478 1.95835 68.9478 0.76878C68.9478 0.498981 68.9888 0.388609 69.2979 0.390653C73.6311 0.401554 77.9656 0.401554 82.3015 0.390653C82.5492 0.390653 82.6311 0.45197 82.6229 0.709506C82.6065 1.2859 82.6229 1.86024 82.6229 2.43663C82.6291 4.81781 82.6475 7.18469 82.6434 9.55361Z" fill="#0F4194"/>
<path id="Vector_3" d="M40.6252 26.9883C40.6252 27.534 40.6826 27.4686 40.1217 27.4686H20.6142C14.0974 27.4686 7.58121 27.4686 1.06576 27.4686C0.707501 27.4686 0.543728 27.4011 0.59286 27.0169C0.599287 26.8382 0.594506 26.6594 0.578534 26.4814V5.15904C0.563504 4.01652 0.962888 2.90712 1.70298 2.03559C2.44308 1.16405 3.47393 0.589198 4.60531 0.417114C5.30749 0.306742 6.03833 0.36806 6.75689 0.36806H15.875L32.15 0.382368C34.844 0.382368 37.5361 0.402807 40.2301 0.396675C40.5515 0.396675 40.6396 0.484564 40.6396 0.805462C40.6273 4.2747 40.6273 7.74462 40.6396 11.2152C40.6396 11.5422 40.5413 11.6097 40.2301 11.6097C32.1779 11.6002 24.1258 11.6002 16.0736 11.6097C14.8678 11.6097 14.2413 12.2229 14.2413 13.4206C14.2413 15.981 14.2413 18.542 14.2413 21.1038C14.2413 22.2831 14.8555 22.9045 16.0367 22.9045C24.0889 22.9045 32.1411 22.9045 40.1933 22.9045C40.5434 22.9045 40.6457 22.9883 40.6375 23.3439C40.6109 24.5355 40.6273 25.7619 40.6252 26.9883Z" fill="#0F4194"/>
<path id="Vector_4" d="M124.213 55.4926C124.213 55.8135 124.123 55.9014 123.804 55.9014C118.442 55.8912 113.083 55.9014 107.721 55.8892C107.051 55.9014 106.387 55.7476 105.79 55.4416C105.193 55.1356 104.682 54.6869 104.301 54.1355C102.217 51.2835 100.14 48.422 98.0711 45.551C97.9892 45.4385 97.9053 45.3282 97.7518 45.1217V45.6511C97.7518 48.9541 97.7518 52.2571 97.7518 55.5601C97.7518 55.8851 97.6924 55.9934 97.3423 55.9914C93.0583 55.9777 88.7749 55.9777 84.4923 55.9914C84.1565 55.9914 84.0644 55.9157 84.0664 55.5724C84.076 46.9034 84.076 38.235 84.0664 29.5674C84.0664 29.2424 84.1586 29.1729 84.4759 29.1729C90.0797 29.1824 95.6834 29.1824 101.287 29.1729C101.399 29.165 101.51 29.1877 101.61 29.2385C101.709 29.2893 101.793 29.3663 101.852 29.4611C104.909 33.7275 107.972 37.9898 111.04 42.248C112.252 43.9301 113.894 44.807 115.982 44.809C118.586 44.809 121.188 44.809 123.792 44.809C124.142 44.809 124.213 44.9092 124.213 45.2403C124.201 48.6577 124.201 52.0752 124.213 55.4926Z" fill="#01A8E6"/>
<path id="Vector_5" d="M40.7071 55.5376C40.7071 55.9158 40.6006 55.9975 40.2362 55.9955C37.016 55.975 33.7979 55.9955 30.5777 55.9628C25.1793 55.9158 19.7809 55.928 14.3825 55.9219C11.6762 55.9219 8.96983 55.9219 6.26347 55.9056C5.49783 55.9056 4.72809 55.9219 3.97678 55.7012C2.99615 55.4002 2.13771 54.7938 1.527 53.9707C0.916283 53.1477 0.585345 52.1511 0.582579 51.1268C0.582579 43.9949 0.582579 36.8629 0.582579 29.7309C0.582579 29.1852 0.515023 29.2506 1.08209 29.2486H20.5896C27.1187 29.2486 33.6471 29.2486 40.1748 29.2486C40.5413 29.2486 40.6498 29.3283 40.6436 29.7064C40.617 30.9736 40.6252 32.2409 40.6436 33.5081C40.6436 33.7943 40.5679 33.8944 40.2751 33.874C39.9435 33.8495 39.6098 33.874 39.2761 33.874H16.0264C14.8739 33.874 14.2331 34.5035 14.2331 35.642C14.2331 38.231 14.2331 40.82 14.2331 43.4089C14.2331 44.5535 14.8657 45.1749 16.0223 45.1749C24.1046 45.1749 32.1854 45.1749 40.2649 45.1749C40.5986 45.1749 40.7173 45.2342 40.7153 45.6041C40.6989 48.9112 40.6962 52.2224 40.7071 55.5376Z" fill="#01A8E6"/>
<path id="Vector_6" d="M82.6114 55.4991C82.6114 55.8241 82.5254 55.8977 82.202 55.8977C76.867 55.8875 71.5321 55.8977 66.1972 55.8875C65.501 55.9018 64.8123 55.7424 64.1935 55.4236C63.5747 55.1049 63.0454 54.6369 62.6536 54.0622C60.5695 51.2007 58.4855 48.3324 56.4015 45.4573C56.338 45.3694 56.2643 45.2897 56.1374 45.1343V45.5881C56.1374 48.9176 56.1374 52.2472 56.1374 55.5747C56.1374 55.9202 56.0432 55.9937 55.7116 55.9937C51.4398 55.9815 47.1695 55.9815 42.9004 55.9937C42.5647 55.9937 42.4746 55.9181 42.4746 55.5747C42.4842 46.9057 42.4842 38.2381 42.4746 29.5718C42.4746 29.2489 42.5585 29.1753 42.884 29.1753C48.4865 29.1848 54.0909 29.1848 59.6974 29.1753C59.8091 29.169 59.9204 29.1933 60.0192 29.2455C60.1181 29.2978 60.2008 29.3759 60.2584 29.4717C63.3005 33.7176 66.3473 37.9594 69.399 42.1972C70.6559 43.9427 72.3408 44.8298 74.5169 44.8155C77.082 44.8012 79.6471 44.8155 82.2102 44.8053C82.5295 44.8053 82.6196 44.8809 82.6196 45.2038C82.6018 48.6376 82.5991 52.0694 82.6114 55.4991Z" fill="#01A8E6"/>
<path id="Vector_7" d="M65.2259 71.0964C65.2259 71.3315 65.187 71.4337 64.9168 71.4296C63.9301 71.4132 62.9433 71.4153 61.9566 71.4296C61.7109 71.4296 61.6557 71.3539 61.6598 71.125C61.672 70.2032 61.6598 69.2855 61.6598 68.3596C61.6673 68.146 61.5943 67.9373 61.455 67.775C60.716 66.8512 59.7927 66.1542 58.7262 65.5083V66.8225C58.7262 68.2431 58.7262 69.6636 58.7262 71.0862C58.7262 71.3131 58.6975 71.4357 58.4191 71.4316C57.418 71.4153 56.419 71.4173 55.4179 71.4316C55.1743 71.4316 55.1211 71.3478 55.1211 71.1209C55.1211 67.8425 55.1211 64.5654 55.1211 61.2896C55.1211 61.0627 55.1661 60.9789 55.4138 60.983C56.2859 60.9994 57.156 60.983 58.0281 60.983C58.1807 60.9846 58.3305 61.0239 58.4641 61.0975C59.6226 61.6675 60.6972 62.3938 61.6577 63.2559C61.6577 62.5712 61.6741 61.9396 61.6577 61.308C61.6577 61.0321 61.7375 60.9728 61.9996 60.9789C62.9617 60.9953 63.9239 60.9932 64.884 60.9789C65.1399 60.9789 65.2321 61.0219 65.23 61.3039C65.2191 64.5688 65.2177 67.8329 65.2259 71.0964Z" fill="black"/>
<path id="Vector_8" d="M113.725 68.9604C113.709 69.7024 113.725 70.4464 113.725 71.1883C113.725 71.6584 113.725 71.6543 113.256 71.5869C112.222 71.4153 111.217 71.0959 110.274 70.6385C109.571 70.3208 108.898 69.9405 108.263 69.5021C108.192 69.4609 108.134 69.4009 108.096 69.3287C108.057 69.2565 108.039 69.175 108.044 69.0933C108.057 68.288 108.059 67.4806 108.044 66.6753C108.044 66.4301 108.13 66.3708 108.355 66.379C108.857 66.4014 109.244 66.1746 109.631 65.8557C110.267 65.3468 110.02 64.2573 109.322 63.9242C108.836 63.7184 108.306 63.643 107.782 63.7055C107.5 63.7239 107.561 63.9303 107.561 64.1C107.561 66.3646 107.561 68.6314 107.561 70.896C107.561 71.1945 107.508 71.3273 107.184 71.3334C106.2 71.3478 105.213 71.3805 104.228 71.4193C104.013 71.4193 103.977 71.3355 103.979 71.1474C103.979 67.8444 103.979 64.5415 103.979 61.2385C103.979 61.0095 104.06 60.9707 104.265 60.9727C106.163 60.9727 108.065 60.9073 109.956 60.9993C112.003 61.0974 113.772 62.3912 113.887 64.7786C113.946 66.0049 113.363 66.9615 112.341 67.6401C112.235 67.7116 112.124 67.775 111.987 67.8608C112.386 68.1875 112.863 68.4045 113.371 68.4903C113.682 68.5537 113.731 68.6845 113.725 68.9604Z" fill="black"/>
<path id="Vector_9" d="M75.2621 63.5235C74.2385 61.9456 72.6909 61.0851 70.7952 60.9973C69.4113 60.9339 68.0254 60.9972 66.6415 60.9768C66.3508 60.9768 66.2812 61.0504 66.2832 61.3365C66.2976 62.9492 66.2832 64.5639 66.2832 66.1745C66.2832 67.7852 66.2832 69.4264 66.2832 71.0514C66.2832 71.3682 66.3795 71.4417 66.6743 71.4295C67.2127 71.407 67.7511 71.4295 68.2895 71.4295C69.44 71.407 70.5946 71.501 71.741 71.3068C73.8127 70.9553 75.4259 69.4673 75.8046 67.4663C76.0667 66.0948 76.0155 64.6968 75.2621 63.5235ZM71.8618 67.6625C71.4523 68.4106 70.6478 68.5434 70.0296 68.5107C69.8371 68.5107 69.8883 68.3636 69.8883 68.2614C69.8883 67.5828 69.8883 66.9063 69.8883 66.2277C69.8883 65.6002 69.9129 64.9727 69.8883 64.3493C69.8678 63.965 69.9948 63.8915 70.3366 63.9834C70.5981 64.0423 70.8553 64.1188 71.1064 64.2124C71.327 64.297 71.5244 64.4327 71.6823 64.6082C71.8403 64.7837 71.9544 64.9941 72.0153 65.2221C72.2651 66.0662 72.2937 66.8572 71.8618 67.6625Z" fill="black"/>
<path id="Vector_10" d="M28.8339 70.6138C28.8496 70.7132 28.8279 70.8149 28.7732 70.8994C28.7184 70.9839 28.6343 71.0452 28.5371 71.0717C27.1962 71.6399 25.8062 71.7012 24.3916 71.4907C23.2841 71.3272 22.1991 71.0819 21.2717 70.4074C19.7752 69.3139 18.8622 67.8913 18.9952 65.9823C19.1447 63.8423 20.1744 62.2562 22.1847 61.3977C23.8211 60.6869 25.6552 60.5711 27.3682 61.0707C27.4051 61.0759 27.4405 61.0885 27.4724 61.1077C27.5043 61.1269 27.532 61.1523 27.5538 61.1825C27.5756 61.2127 27.5911 61.2469 27.5993 61.2832C27.6075 61.3195 27.6082 61.3571 27.6015 61.3936C27.6015 62.1622 27.579 62.9307 27.6015 63.6972C27.6138 64.0303 27.4889 64.0446 27.2249 63.9874C26.4526 63.7898 25.6454 63.7702 24.8645 63.9302C23.8982 64.1632 23.0875 64.6231 22.8685 65.7043C22.793 66.0618 22.8023 66.432 22.8959 66.7852C22.9894 67.1384 23.1644 67.4649 23.407 67.7384C23.6495 68.012 23.9529 68.2251 24.2927 68.3606C24.6325 68.4961 24.9994 68.5503 25.364 68.5188C25.5093 68.5065 25.5687 68.4738 25.5585 68.3144C25.5585 68.2878 25.5585 68.2633 25.5585 68.2367C25.5585 67.8934 25.6751 67.4457 25.5032 67.2311C25.3312 67.0165 24.8542 67.1453 24.5164 67.1678C24.1787 67.1902 24.0722 67.0615 24.0886 66.7242C24.1173 66.1867 24.105 65.6491 24.0886 65.1116C24.0886 64.9072 24.1275 64.8213 24.3588 64.8234C25.7564 64.8343 27.1539 64.8343 28.5514 64.8234C28.7848 64.8234 28.8257 64.9113 28.8237 65.1156C28.8237 66.0497 28.8237 66.9838 28.8237 67.9199C28.8339 68.8213 28.8339 69.7186 28.8339 70.6138Z" fill="black"/>
<path id="Vector_11" d="M86.4667 67.7729C86.2435 70.4055 84.4195 71.3395 82.6282 71.5398C81.4798 71.6666 80.3456 71.6257 79.2627 71.1944C77.8911 70.6466 77.1807 69.5593 76.9064 68.153C76.8471 67.8391 76.8183 67.5201 76.8204 67.2006C76.8204 65.2398 76.8204 63.2803 76.8204 61.3222C76.8204 61.0667 76.8634 60.9707 77.1459 60.9768C78.1204 60.9972 79.0969 60.9952 80.0713 60.9768C80.3436 60.9768 80.4071 61.0483 80.4071 61.314C80.3948 63.1331 80.4071 64.9522 80.4071 66.7693C80.4066 66.9605 80.4238 67.1514 80.4582 67.3396C80.5831 68.0488 81.011 68.4044 81.6988 68.3861C82.0044 68.3966 82.3019 68.2868 82.5271 68.0803C82.7523 67.8738 82.8872 67.5872 82.9026 67.2823C82.9367 66.8998 82.9483 66.5155 82.9374 66.1316C82.9374 64.5435 82.9496 62.9574 82.9374 61.3692C82.9374 61.0381 83.0336 60.9604 83.3468 60.9747C84.2967 60.9952 85.2466 60.9931 86.1944 60.9747C86.4708 60.9747 86.5363 61.0565 86.5322 61.3181C86.5179 62.3299 86.5322 63.3416 86.5322 64.5659C86.4728 65.4959 86.5649 66.6405 86.4667 67.7729Z" fill="black"/>
<path id="Vector_12" d="M18.4721 71.4276C17.5345 71.4173 16.599 71.4153 15.6634 71.4276C15.4362 71.4276 15.3891 71.3233 15.3543 71.1414C15.2724 70.7326 15.1701 70.3443 15.0882 69.9457C15.0871 69.9023 15.0764 69.8597 15.0568 69.8209C15.0373 69.7821 15.0094 69.7481 14.9752 69.7213C14.9409 69.6946 14.9012 69.6757 14.8588 69.6661C14.8164 69.6565 14.7724 69.6563 14.7299 69.6657C14.1669 69.6861 13.6019 69.6657 13.0389 69.6759C12.8793 69.6759 12.7626 69.6636 12.7769 69.4552C12.8363 68.8194 12.9738 68.1933 13.1863 67.5911C13.2375 67.4357 13.3624 67.4685 13.4709 67.4664C13.8025 67.4664 14.1342 67.4664 14.4945 67.4664C14.2709 66.6276 13.9714 65.8107 13.5999 65.026C13.2049 65.9277 12.8911 66.8627 12.6623 67.82C12.4019 68.9145 12.2287 70.0278 12.1443 71.1496C12.1259 71.354 12.0706 71.4316 11.8495 71.4276C10.8771 71.4153 9.90269 71.4276 8.92824 71.4276C8.70714 71.4276 8.65596 71.3765 8.68872 71.1394C9.15498 67.6932 10.2227 64.3554 11.8434 61.2774C11.88 61.179 11.9489 61.096 12.0389 61.0418C12.1289 60.9876 12.2346 60.9655 12.3388 60.979C13.1577 60.9953 13.9766 60.9912 14.7954 60.979C14.8808 60.9719 14.9662 60.9918 15.0397 61.0358C15.1131 61.0798 15.1709 61.1457 15.2049 61.2242C16.9599 64.2926 18.1504 67.6499 18.7198 71.1373C18.7546 71.356 18.7014 71.4296 18.4721 71.4276Z" fill="black"/>
<path id="Vector_13" d="M123.413 65.157C122.707 66.9393 121.745 68.554 120.262 69.8029C118.78 71.0517 117.02 71.5423 115.087 71.4278C114.882 71.4156 114.858 71.3317 114.858 71.1641C114.858 70.3834 114.87 69.6026 114.858 68.8238C114.858 68.601 114.946 68.5786 115.128 68.5704C116.008 68.5515 116.866 68.2921 117.609 67.8203C116.015 65.8072 114.87 63.4767 114.252 60.9854C115.439 60.9854 116.604 60.9854 117.769 60.9854C117.974 60.9854 117.974 61.1407 118.017 61.2592C118.305 62.0359 118.516 62.8412 118.946 63.5607C119.162 63.947 119.414 64.3118 119.699 64.6501C120.158 63.992 120.314 63.25 120.465 62.5203C120.563 62.085 120.633 61.6435 120.694 61.2C120.717 61.0385 120.766 60.9854 120.928 60.9956C121.966 60.9956 123.004 60.9956 124.044 60.9956C124.273 60.9956 124.271 61.0998 124.275 61.2735C124.295 62.6287 123.9 63.902 123.413 65.157Z" fill="black"/>
<path id="Vector_14" d="M95.3056 68.6843C95.0292 69.649 94.3311 70.25 93.4631 70.6751C92.6108 71.0607 91.6964 71.2912 90.7629 71.3557C89.8315 71.4477 88.8938 71.4048 87.9583 71.4191C87.7536 71.4191 87.6696 71.3639 87.6737 71.1411C87.686 70.2704 87.6881 69.3997 87.6737 68.529C87.6737 68.2857 87.7659 68.2592 87.9685 68.2816C88.7464 68.3654 89.5285 68.3471 90.3105 68.3552C90.5531 68.3543 90.7942 68.3157 91.0249 68.2408C91.1887 68.1917 91.3464 68.1427 91.3771 67.9383C91.4078 67.7339 91.2645 67.6031 91.1027 67.5295C90.3985 67.1698 89.6697 66.8407 88.9798 66.4646C88.1323 66.0027 87.5059 65.3793 87.5059 64.3123C87.5059 62.857 88.2776 61.7635 89.6881 61.2975C90.4623 61.0683 91.2679 60.9627 92.0751 60.9848H93.1151C93.6781 60.9848 94.2431 60.9848 94.8061 60.9848C95.0108 60.9848 95.0968 61.0236 95.0927 61.2526C95.0763 62.0197 95.0763 62.7876 95.0927 63.5561C95.0927 63.8095 95.0026 63.8463 94.7815 63.8443C93.8459 63.832 92.9104 63.8443 91.9728 63.8443C91.8254 63.8443 91.6289 63.8034 91.59 64.0037C91.5511 64.204 91.7148 64.2653 91.8561 64.3328C92.4006 64.5862 92.9452 64.8356 93.4938 65.0931C94.9678 65.788 95.7191 67.2536 95.3056 68.6843Z" fill="black"/>
<path id="Vector_15" d="M8.44867 68.9318C8.42205 69.6349 8.42615 70.34 8.44867 71.0432C8.44867 71.3375 8.3852 71.4356 8.07198 71.4315C6.86825 71.4131 5.66247 71.4315 4.45873 71.4315C3.25499 71.4315 2.07378 71.4315 0.882326 71.4315C0.642807 71.4315 0.552734 71.3845 0.552734 71.1188C0.562288 67.8485 0.562288 64.5721 0.552734 61.2895C0.552734 61.0258 0.640762 60.9829 0.878233 60.9829C3.20928 60.9924 5.54168 60.9924 7.87545 60.9829C8.13135 60.9829 8.19686 61.0565 8.19277 61.3058C8.17639 62.0335 8.17025 62.7652 8.19277 63.4929C8.19277 63.7954 8.09655 63.8485 7.82018 63.8465C6.71881 63.8301 5.61538 63.8465 4.51401 63.8342C4.23355 63.8342 4.11686 63.8771 4.123 64.2001C4.14347 65.5552 4.13937 66.9124 4.123 68.2695C4.123 68.5455 4.20488 68.6047 4.46692 68.6006C5.67066 68.5884 6.87439 68.6006 8.08017 68.5884C8.36268 68.5823 8.46095 68.6252 8.44867 68.9318Z" fill="black"/>
<path id="Vector_16" d="M45.3705 68.8744C45.3521 69.6164 45.3562 70.3583 45.3705 71.1003C45.3705 71.3415 45.3214 71.4293 45.0573 71.4293C42.6334 71.4198 40.211 71.4198 37.7898 71.4293C37.5217 71.4293 37.4746 71.3333 37.4766 71.0962C37.4766 69.461 37.4766 67.8259 37.4766 66.1805C37.4766 64.5352 37.4766 62.9572 37.4766 61.3446C37.4766 61.0789 37.5094 60.9726 37.8206 60.9767C40.127 60.9903 42.4349 60.9903 44.7441 60.9767C45.0163 60.9767 45.1249 61.0196 45.1146 61.3262C45.0901 62.0559 45.0982 62.7856 45.1146 63.5132C45.1146 63.7626 45.0491 63.8423 44.7891 63.8402C43.6488 63.8259 42.5086 63.8402 41.3683 63.8259C41.1144 63.8259 41.051 63.8954 41.053 64.1448C41.0653 65.5265 41.0674 66.9082 41.053 68.2899C41.053 68.5597 41.1472 68.5965 41.3806 68.5944C42.6089 68.5842 43.8372 68.5944 45.0655 68.5842C45.2886 68.5842 45.3767 68.621 45.3705 68.8744Z" fill="black"/>
<path id="Vector_17" d="M103.523 61.3653C103.505 62.0949 103.511 62.8246 103.523 63.5543C103.523 63.7587 103.464 63.8486 103.238 63.8405C102.765 63.8262 102.291 63.8527 101.818 63.8282C101.523 63.8139 101.431 63.8916 101.433 64.2002C101.447 66.4485 101.433 68.7071 101.449 70.9595C101.449 71.3233 101.371 71.4439 100.991 71.4316C100.067 71.403 99.1481 71.4112 98.2208 71.4316C97.9178 71.4316 97.8359 71.354 97.838 71.0494C97.8502 68.7704 97.838 66.4914 97.8502 64.2125C97.8502 63.9243 97.797 63.8037 97.4818 63.8302C97.0211 63.8609 96.5585 63.82 96.0979 63.8446C95.8174 63.8589 95.756 63.7546 95.7621 63.495C95.7765 62.7776 95.7805 62.0643 95.7621 61.3448C95.7621 61.0668 95.8154 60.9749 96.1142 60.979C97.2811 60.9974 98.448 60.979 99.6149 60.979C100.782 60.979 101.975 60.9912 103.154 60.979C103.47 60.9708 103.531 61.075 103.523 61.3653Z" fill="black"/>
<path id="Vector_18" d="M36.6744 71.4271C34.533 71.4189 32.3917 71.4189 30.2504 71.4271C29.9822 71.4271 29.9023 71.3515 29.9023 71.0817C29.9146 69.4465 29.9023 67.8114 29.9023 66.1763C29.9023 64.5759 29.9023 62.9754 29.9023 61.375C29.9023 61.093 29.9474 60.9663 30.2729 60.9847C31.233 61.0092 32.1952 61.0051 33.1573 60.9847C33.4521 60.9847 33.5136 61.0664 33.5115 61.3485C33.4992 63.6132 33.5115 65.8799 33.4931 68.1446C33.4931 68.5533 33.6118 68.6188 33.9783 68.6065C34.8892 68.582 35.7982 68.6065 36.7092 68.5922C36.9651 68.5922 37.0367 68.6617 37.0326 68.9131C37.0162 69.6428 37.0122 70.3724 37.0326 71.1021C37.0408 71.3801 36.9262 71.4271 36.6744 71.4271Z" fill="black"/>
<path id="Vector_19" d="M54.0564 71.1109C54.0564 71.3786 53.9643 71.4297 53.7247 71.4277C52.7523 71.4174 51.7779 71.4113 50.8034 71.4277C50.5004 71.4277 50.4472 71.3214 50.4493 71.0495C50.4493 69.4246 50.4493 67.7997 50.4493 66.1748C50.4493 64.5498 50.4493 62.9515 50.4493 61.3388C50.4493 61.0588 50.5086 60.9668 50.8055 60.9729C51.7799 60.9934 52.7544 60.9872 53.7268 60.9729C53.9602 60.9729 54.0605 61.0056 54.0605 61.2775C54.0468 64.5573 54.0455 67.8351 54.0564 71.1109Z" fill="black"/>
<path id="Vector_20" d="M8.70962 64.9624C8.68915 65.5511 8.69324 66.1397 8.70962 66.7264C8.70962 66.9553 8.63182 67.0023 8.42097 66.9982C7.24453 66.9818 6.06741 66.9723 4.8896 66.9696C4.70126 66.9696 4.61323 66.9267 4.61732 66.7161C4.62756 66.103 4.61732 65.4898 4.61732 64.8766C4.61732 64.7172 4.62961 64.6211 4.84456 64.6272C5.44438 64.6477 6.04625 64.6272 6.64607 64.6272V64.6477C7.22337 64.6477 7.79862 64.6477 8.37388 64.6477C8.61135 64.6477 8.71781 64.6926 8.70962 64.9624Z" fill="black"/>
<path id="Vector_21" d="M45.6219 66.7469C45.6219 66.9513 45.5523 67.0024 45.3578 66.9983C44.1827 66.9819 43.0056 66.9724 41.8264 66.9697C41.6217 66.9697 41.5234 66.9267 41.5296 66.6958C41.5419 66.0949 41.5296 65.4939 41.5296 64.893C41.5296 64.707 41.5644 64.6232 41.7875 64.6314C42.3873 64.6498 42.9892 64.6314 43.589 64.6314V64.6498C44.1786 64.6498 44.7682 64.6498 45.3557 64.6498C45.5604 64.6498 45.6239 64.6968 45.6198 64.9032C45.6055 65.5205 45.6034 66.1337 45.6219 66.7469Z" fill="black"/>
</g>
</svg>
