<svg width="140" height="48" viewBox="0 0 140 48" fill="none" xmlns="http://www.w3.org/2000/svg">
<g id="KEojBI">
<path id="Vector" d="M50.321 47.0948C49.885 45.8684 49.4674 44.6237 49.0436 43.3891C44.2423 29.4672 39.4533 15.5446 34.6766 1.62133C34.6008 1.40059 34.4964 1.36379 34.2897 1.36379C28.3365 1.36379 22.384 1.36379 16.4322 1.36379C16.3329 1.34776 16.2314 1.37136 16.1494 1.42949C16.0674 1.48763 16.0116 1.57562 15.9941 1.67447C11.1096 15.7095 6.21888 29.7404 1.32205 43.7672C0.912617 44.9384 0.503184 46.1096 0.09375 47.3135H0.411061C5.24238 47.3135 10.0737 47.3135 14.905 47.3135C15.1589 47.3135 15.2408 47.2297 15.3144 47.0048C16.1333 44.0146 16.9829 41.0284 17.8099 38.0381C17.8673 37.8337 17.9389 37.756 18.1702 37.756C22.8746 37.7642 27.5784 37.7642 32.2814 37.756C32.5557 37.756 32.6458 37.846 32.7154 38.0953C33.5486 41.0938 34.3961 44.0881 35.2354 47.0886C35.2805 47.246 35.3378 47.3196 35.5241 47.3176C40.41 47.3176 45.2966 47.3176 50.1839 47.3176C50.3456 47.3135 50.3886 47.2828 50.321 47.0948ZM29.3785 27.845H21.0629C20.6657 27.845 20.6678 27.845 20.7824 27.4526C21.4887 25.0407 22.2318 22.6391 22.8869 20.213C23.6403 17.4291 24.3199 14.6207 25.0242 11.8226C25.0365 11.7797 25.0508 11.7368 25.059 11.6918C25.0794 11.5896 25.0979 11.5078 25.2412 11.5099C25.3845 11.5119 25.3947 11.5978 25.4193 11.7C25.7304 12.9406 26.058 14.1793 26.3569 15.422C27.3334 19.473 28.5023 23.471 29.659 27.4812C29.7634 27.845 29.7634 27.845 29.3785 27.845Z" fill="#FDFDFD"/>
<path id="Vector_2" d="M92.7978 18.7656C92.7978 27.5954 92.7978 36.4258 92.7978 45.257C92.8117 45.343 92.7918 45.431 92.7422 45.5026C92.6926 45.5742 92.6172 45.6239 92.5317 45.6413C90.6 46.2995 88.6131 46.7838 86.5949 47.0884C82.7944 47.6933 78.9438 47.9261 75.098 47.7833C70.7539 47.6259 66.5552 46.7736 62.5816 44.9606C58.735 43.209 55.5373 40.6684 53.2424 37.0853C51.7894 34.7657 50.7905 32.1918 50.2986 29.5003C49.8535 27.1282 49.6947 24.7114 49.8257 22.3016C49.9936 18.6756 50.7715 15.201 52.5218 11.9818C54.2722 8.76256 56.7943 6.23422 59.9285 4.32314C62.8416 2.549 66.0106 1.43915 69.3455 0.76056C72.6763 0.108363 76.0793 -0.097845 79.4646 0.14738C82.6038 0.316489 85.7142 0.834766 88.7383 1.69259C89.4773 1.90925 90.2102 2.15657 90.9267 2.44681C91.0823 2.51017 91.1191 2.5674 91.0741 2.74318C90.2648 5.90718 89.4623 9.07392 88.6666 12.2434C88.6155 12.4478 88.5561 12.4273 88.4005 12.3538C86.4844 11.4462 84.4495 10.9414 82.3716 10.5919C80.5837 10.2832 78.7711 10.1402 76.9568 10.1647C74.8094 10.2015 72.7131 10.5203 70.7191 11.3584C67.5685 12.6808 65.5213 15.0047 64.4793 18.2321C63.7976 20.3537 63.6359 22.5387 63.7096 24.7502C63.7874 27.0558 64.1579 29.3041 65.1283 31.4216C66.7537 34.9699 69.5379 37.0772 73.317 37.9336C74.9117 38.2933 76.5208 38.2422 78.134 38.1666C78.9436 38.1318 79.7493 38.0334 80.5435 37.8723C80.6991 37.8396 80.7707 37.7946 80.7687 37.6127C80.7687 34.5931 80.7687 31.5742 80.7687 28.556C77.8617 28.556 74.9527 28.556 72.0436 28.556C71.7632 28.556 71.6874 28.4906 71.6874 28.2045C71.6997 25.0486 71.6997 21.8928 71.6874 18.737C71.6874 18.553 71.6874 18.4488 71.9392 18.4488C78.8409 18.4488 85.7419 18.4488 92.6422 18.4488C92.6864 18.4516 92.7303 18.4584 92.7733 18.4692C92.8062 18.5644 92.8146 18.6663 92.7978 18.7656Z" fill="#FDFDFD"/>
<path id="Vector_3" d="M139.456 45.5902C137.452 46.3885 135.373 46.9829 133.249 47.3644C130.439 47.8663 127.578 48.0275 124.729 47.8447C120.498 47.5892 116.393 46.7635 112.493 45.067C108.956 43.5299 105.877 41.3736 103.467 38.322C101.648 36.0049 100.347 33.3259 99.6512 30.4651C98.9589 27.6164 98.7117 24.678 98.9183 21.7539C99.0475 19.2546 99.5734 16.7917 100.476 14.457C101.845 10.9646 104.176 7.93028 107.199 5.70491C109.998 3.61192 113.136 2.23022 116.489 1.30841C120.135 0.319497 123.913 -0.0942855 127.687 0.0820488C130.347 0.166464 132.993 0.502489 135.589 1.08562C136.617 1.32389 137.627 1.63466 138.611 2.01561C138.816 2.09941 138.889 2.18117 138.816 2.4244C138.017 5.56388 137.233 8.70745 136.443 11.849C136.424 11.9185 136.4 11.988 136.371 12.0779C135.743 11.7445 135.089 11.4609 134.416 11.2297C131.343 10.259 128.107 9.90742 124.897 10.1954C122.06 10.5184 119.443 11.3891 117.279 13.3308C115.606 14.8448 114.446 16.8404 113.959 19.0416C113.115 22.5612 113.14 26.0768 114.303 29.5249C115.488 33.0609 117.928 35.4155 121.406 36.7196C123.947 37.672 126.586 37.9316 129.278 37.8335C131.31 37.78 133.329 37.4968 135.296 36.9894C136.042 36.792 136.77 36.5357 137.475 36.2229C137.726 37.2796 137.976 38.3179 138.224 39.3583C138.691 41.3082 139.153 43.2601 139.63 45.2101C139.696 45.4226 139.663 45.5064 139.456 45.5902Z" fill="#FDFDFD"/>
<path id="Vector_4" d="M50.321 47.0948C49.885 45.8684 49.4674 44.6237 49.0436 43.3891C44.2423 29.4672 39.4533 15.5446 34.6766 1.62133C34.6008 1.40059 34.4964 1.36379 34.2897 1.36379C28.3365 1.36379 22.384 1.36379 16.4322 1.36379C16.3329 1.34776 16.2314 1.37136 16.1494 1.42949C16.0674 1.48763 16.0116 1.57562 15.9941 1.67447C11.1096 15.7095 6.21888 29.7404 1.32205 43.7672C0.912617 44.9384 0.503184 46.1096 0.09375 47.3135H0.411061C5.24238 47.3135 10.0737 47.3135 14.905 47.3135C15.1589 47.3135 15.2408 47.2297 15.3144 47.0048C16.1333 44.0146 16.9829 41.0284 17.8099 38.0381C17.8673 37.8337 17.9389 37.756 18.1702 37.756C22.8746 37.7642 27.5784 37.7642 32.2814 37.756C32.5557 37.756 32.6458 37.846 32.7154 38.0953C33.5486 41.0938 34.3961 44.0881 35.2354 47.0886C35.2805 47.246 35.3378 47.3196 35.5241 47.3176C40.41 47.3176 45.2966 47.3176 50.1839 47.3176C50.3456 47.3135 50.3886 47.2828 50.321 47.0948ZM29.3785 27.845H21.0629C20.6657 27.845 20.6678 27.845 20.7824 27.4526C21.4887 25.0407 22.2318 22.6391 22.8869 20.213C23.6403 17.4291 24.3199 14.6207 25.0242 11.8226C25.0365 11.7797 25.0508 11.7368 25.059 11.6918C25.0794 11.5896 25.0979 11.5078 25.2412 11.5099C25.3845 11.5119 25.3947 11.5978 25.4193 11.7C25.7304 12.9406 26.058 14.1793 26.3569 15.422C27.3334 19.473 28.5023 23.471 29.659 27.4812C29.7634 27.845 29.7634 27.845 29.3785 27.845Z" fill="#00428D"/>
<path id="Vector_5" d="M92.804 45.257C92.8179 45.343 92.7979 45.431 92.7483 45.5026C92.6987 45.5742 92.6233 45.6239 92.5378 45.6413C90.6061 46.2995 88.6193 46.7838 86.601 47.0884C82.8006 47.6933 78.95 47.9261 75.1041 47.7833C70.7601 47.6259 66.5613 46.7736 62.5878 44.9606C58.7411 43.209 55.5434 40.6684 53.2486 37.0853C51.7934 34.7661 50.7924 32.1922 50.2986 29.5003C49.8535 27.1282 49.6947 24.7114 49.8257 22.3016C49.9936 18.6756 50.7715 15.201 52.5218 11.9818C54.2722 8.76256 56.7943 6.23422 59.9285 4.32314C62.8416 2.549 66.0106 1.43915 69.3455 0.76056C72.6763 0.108363 76.0793 -0.097845 79.4646 0.14738C82.6038 0.316489 85.7142 0.834766 88.7383 1.69259C89.4773 1.90925 90.2102 2.15657 90.9267 2.44681C91.0823 2.51017 91.1191 2.5674 91.0741 2.74318C90.2648 5.90718 89.4623 9.07392 88.6666 12.2434C88.6155 12.4478 88.5561 12.4273 88.4005 12.3538C86.4844 11.4462 84.4495 10.9414 82.3716 10.5919C80.5837 10.2832 78.7711 10.1402 76.9568 10.1647C74.8094 10.2015 72.7131 10.5203 70.7191 11.3584C67.5685 12.6808 65.5213 15.0047 64.4793 18.2321C63.7976 20.3537 63.6359 22.5387 63.7096 24.7502C63.7874 27.0558 64.1579 29.3041 65.1283 31.4216C66.7537 34.9699 69.5379 37.0772 73.317 37.9336C74.9117 38.2933 76.5208 38.2422 78.134 38.1666C78.9436 38.1318 79.7493 38.0334 80.5435 37.8723C80.6991 37.8396 80.7707 37.7946 80.7687 37.6127C80.7687 34.5931 80.7687 31.5742 80.7687 28.556C80.8567 28.3046 81.0983 28.1963 81.2805 28.045C82.4617 27.0599 83.6347 26.0685 84.8118 25.0813L88.4865 21.995C89.6554 21.0119 90.8223 20.0267 92.0015 19.0517C92.1837 18.9025 92.3556 18.741 92.5419 18.5939C92.605 18.5282 92.6889 18.4863 92.7794 18.4753C92.8127 18.5697 92.8218 18.6709 92.806 18.7697C92.8006 27.5967 92.7999 36.4258 92.804 45.257Z" fill="#00428D"/>
<path id="Vector_6" d="M139.456 45.5902C137.452 46.3885 135.373 46.9829 133.249 47.3644C130.439 47.8663 127.578 48.0275 124.729 47.8447C120.498 47.5892 116.393 46.7635 112.493 45.067C108.956 43.5299 105.877 41.3736 103.467 38.322C101.648 36.0049 100.347 33.3259 99.6512 30.4651C98.9589 27.6164 98.7117 24.678 98.9183 21.7539C99.0475 19.2546 99.5734 16.7917 100.476 14.457C101.845 10.9646 104.176 7.93028 107.199 5.70491C109.998 3.61192 113.136 2.23022 116.489 1.30841C120.135 0.319497 123.913 -0.0942855 127.687 0.0820488C130.347 0.166464 132.993 0.502489 135.589 1.08562C136.617 1.32389 137.627 1.63466 138.611 2.01561C138.816 2.09941 138.889 2.18117 138.816 2.4244C138.017 5.56388 137.233 8.70745 136.443 11.849C136.424 11.9185 136.4 11.988 136.371 12.0779C135.743 11.7445 135.089 11.4609 134.416 11.2297C131.343 10.259 128.107 9.90742 124.897 10.1954C122.06 10.5184 119.443 11.3891 117.279 13.3308C115.606 14.8448 114.446 16.8404 113.959 19.0416C113.115 22.5612 113.14 26.0768 114.303 29.5249C115.488 33.0609 117.928 35.4155 121.406 36.7196C123.947 37.672 126.586 37.9316 129.278 37.8335C131.31 37.78 133.329 37.4968 135.296 36.9894C136.042 36.792 136.77 36.5357 137.475 36.2229C137.726 37.2796 137.976 38.3179 138.224 39.3583C138.691 41.3082 139.153 43.2601 139.63 45.2101C139.696 45.4226 139.663 45.5064 139.456 45.5902Z" fill="#00428D"/>
<path id="Vector_7" d="M92.7717 18.4636L80.7609 28.5443C77.8539 28.5443 74.9449 28.5443 72.0359 28.5443C71.7554 28.5443 71.6797 28.4789 71.6797 28.1927C71.692 25.0369 71.692 21.881 71.6797 18.7252C71.6797 18.5413 71.6797 18.437 71.9315 18.437C78.8332 18.437 85.7342 18.437 92.6345 18.437C92.681 18.4415 92.7269 18.4503 92.7717 18.4636Z" fill="#E63356"/>
</g>
</svg>
