<svg width="69" height="93" viewBox="0 0 69 93" fill="none" xmlns="http://www.w3.org/2000/svg">
<g id="hjcRsY">
<path id="Vector" d="M22.5555 48.5084C28.5721 53.9024 40.5419 49.8595 44.1838 41.1973C44.5564 40.3143 44.884 39.4109 46.0959 38.6444V45.9045C46.0959 50.7499 46.0959 55.5954 46.0959 60.4409C46.0959 65.9125 42.1141 69.937 36.6277 69.9677C30.218 70.0004 23.8084 69.9677 17.3066 69.9677V64.122C24.1666 63.2595 31.4484 63.2145 33.6061 53.837C28.2466 55.2493 23.5013 56.3306 18.5615 56.0301C11.3145 55.5907 7.50676 50.2478 9.61944 43.3168C11.1651 38.2704 14.6043 34.4421 17.9657 30.579C21.7448 26.2316 25.8576 22.0681 25.3458 15.4028C27.7492 17.6859 28.3531 21.829 26.613 26.7548C24.9507 31.4559 22.8012 36.0016 20.797 40.5841C19.4172 43.7461 20.0968 46.3582 22.6394 48.58L22.5555 48.5084Z" fill="#E55A23"/>
<path id="Vector_2" d="M16.0548 56.9172V69.8553H0.482022V55.4987C0.482022 48.3224 0.469739 41.1462 0.482022 33.9699C0.494305 28.5004 4.25086 24.7865 9.74136 24.7886C13.3812 24.7886 17.0204 24.8015 20.6589 24.8274C20.7162 24.8274 20.7736 24.95 21.0028 25.2137C17.4387 29.2689 13.7108 33.2709 11.0249 38.0517C9.42406 40.9009 8.05245 43.8258 7.95419 47.1983C7.7986 52.7762 11.418 55.235 16.0548 56.9172Z" fill="#345CA5"/>
<path id="Vector_3" d="M22.5547 48.5083L22.6407 48.588C22.6816 47.9524 22.7226 47.3167 22.7758 46.5155C24.563 46.258 26.4013 46.1067 28.1865 45.7163C37.847 43.5947 42.3856 35.0736 38.6577 25.8902C35.8347 18.9408 32.8069 12.0568 29.8856 5.13809C29.3001 3.74822 28.903 2.33177 30.076 0.535156C33.0853 8.66797 38.7089 14.8897 43.1779 21.8493C50.2386 32.8457 41.2269 49.3974 28.1516 49.704C26.2969 49.749 24.4217 48.9294 22.5547 48.5083Z" fill="#335BA5"/>
<path id="Vector_4" d="M66.7951 76.6531C64.3099 72.6061 60.1377 72.7921 56.0721 73.4461C53.4251 73.8713 52.1292 76.1707 50.4055 77.8672C50.295 78.8585 50.2356 79.858 50.0657 80.839C49.2468 85.6402 51.427 90.4885 55.3064 91.7005C59.4171 92.9841 63.6486 93.0536 66.4615 89.211C69.3336 85.2866 69.3193 80.7634 66.7951 76.6531ZM62.9055 82.6009C62.8707 85.2212 62.7274 88.0071 59.2759 88.0255C55.9226 88.0439 55.4149 85.4686 55.5582 82.7215C55.4354 79.9847 55.9472 77.3787 59.2861 77.4073C62.4285 77.4461 62.9424 79.9785 62.9076 82.6009H62.9055Z" fill="black"/>
<path id="Vector_5" d="M24.781 73.1436C18.7665 73.1334 15.6261 76.4731 15.6466 82.8563C15.6671 88.9882 18.8647 92.3136 24.7688 92.332C30.7854 92.3504 33.8582 89.0617 33.8664 82.609C33.8725 76.4139 30.7445 73.1558 24.781 73.1436ZM24.7688 88.0336C21.1371 87.9417 20.9569 85.025 20.9856 82.376C21.0143 79.8293 21.6939 77.2233 24.8977 77.3909C28.206 77.5646 28.4946 80.3239 28.6072 82.9483C28.3042 85.397 28.1179 88.1195 24.7688 88.0336Z" fill="black"/>
<path id="Vector_6" d="M63.7802 57.865H59.7596C59.6531 58.8298 59.5548 59.7148 59.4463 60.7061H56.2609V53.1436H66.3699C68.8019 57.9918 67.6637 66.0571 64.1937 68.982C60.9653 71.7045 54.9569 71.774 51.3969 69.1292C47.7283 66.4026 46.3526 59.7557 48.5001 54.7562H51.4972C50.9608 58.5191 50.1174 62.3719 53.921 64.8635C56.265 66.4005 58.9038 66.3842 61.3134 64.8941C63.8621 63.3121 64.2899 60.8471 63.7802 57.865Z" fill="black"/>
<path id="Vector_7" d="M63.6149 46.7095V39.0427L67.1729 37.6651V33.0703L47.8066 40.0197V45.1193L67.1831 52.874V48.2649L63.6149 46.7095ZM60.0549 45.4279L52.685 42.6891L60.0549 40.1771V45.4279Z" fill="#010101"/>
<path id="Vector_8" d="M9.41633 73.3258C6.37219 73.2174 3.31986 73.3033 0.183594 73.3033V91.8683H5.41207V85.062C7.02115 85.062 8.22283 85.1172 9.41633 85.0518C13.1299 84.8474 14.9928 82.7401 15.0563 79.1469C15.1197 75.433 13.0869 73.4586 9.41633 73.3258ZM5.70277 81.3196V77.2971C7.3405 77.3278 9.42042 76.4795 9.6149 78.9977C9.82167 81.6977 7.61073 81.2235 5.70277 81.3196Z" fill="#010101"/>
<path id="Vector_9" d="M21.4863 44.1093V41.7526C32.4387 39.7087 35.4398 34.2412 31.54 23.7824C29.3086 17.7977 27.1611 11.7742 28.5552 5.10693C30.8726 14.2801 37.3314 22.0164 37.8923 31.7169C38.3652 39.9356 29.6996 46.3024 21.4863 44.1093Z" fill="#325BA5"/>
<path id="Vector_10" d="M65.6965 32.4386H61.7823C62.6769 30.2536 64.1816 28.365 63.9339 25.898C63.8315 24.876 63.461 24.0053 62.4722 23.7682C61.3954 23.5107 60.7935 24.3017 60.3984 25.2174C59.8866 26.4049 59.4281 27.619 58.8446 28.7677C57.4116 31.5617 55.3644 33.4401 51.9702 32.6512C48.576 31.8622 47.6425 29.3236 47.5934 26.1678C47.5599 24.0935 48.0529 22.0445 49.0264 20.2118H52.697C52.0071 22.9997 49.6938 25.7304 52.1811 28.5919C54.0645 28.3568 54.4821 27.0753 54.9939 25.8939C57.6061 19.8643 60.6564 17.9389 64.5132 19.895C68.0405 21.6814 68.6383 27.4432 65.6965 32.4386Z" fill="#010101"/>
<path id="Vector_11" d="M50.4054 77.8671H45.1605V91.7945H39.8379V77.9959H34.3105V73.4727H50.7043C50.5774 74.9443 50.4504 76.4425 50.3174 77.9448L50.4054 77.8671Z" fill="black"/>
</g>
</svg>
