<svg width="219" height="75" viewBox="0 0 219 75" fill="none" xmlns="http://www.w3.org/2000/svg">
<g id="4t3P3W">
<path id="Vector" d="M43.5491 41.0651C44.5952 38.1648 44.5195 35.2971 43.0578 32.6277C41.7128 30.175 39.8069 28.1699 36.9839 27.291C35.7883 26.917 35.7556 26.9149 35.4751 28.1924C35.2868 29.0263 35.0991 29.8603 34.9121 30.6942C34.8282 31.0703 34.6726 31.3666 34.2079 31.2399C32.7155 30.8311 31.3849 31.4607 30.1279 32.0575C29.2415 32.4663 28.3837 33.1142 28.0295 34.1648C27.9451 34.369 27.829 34.5586 27.6856 34.7269C27.3508 35.1545 27.1564 35.6748 27.1288 36.2169C27.0797 37.478 26.9937 38.7493 27.5239 39.9634C28.0346 41.2202 28.9785 42.2532 30.1852 42.876C30.6335 43.1049 31.0348 43.4361 31.5568 43.5158C32.042 43.5934 32.1423 43.8939 32.0359 44.3456C31.7513 45.5454 31.4872 46.7513 31.217 47.9552C31.045 48.7278 30.8799 49.4997 30.7216 50.271C30.5783 50.9659 30.5394 50.9823 29.8392 50.8106C26.705 50.04 24.3119 48.2189 22.4039 45.6721C20.9709 43.761 19.978 41.6088 19.7058 39.2787C19.1244 34.3487 20.6823 30.1607 24.6374 26.9844C26.0008 25.8909 27.3888 24.8322 29.1084 24.3416C30.5914 23.9094 32.1374 23.7331 33.6797 23.8204C35.7576 23.5956 37.7618 24.219 39.5797 25.1592C42.589 26.7146 44.9023 29.0427 46.2145 32.2353C46.6547 33.2982 46.7386 34.4489 46.972 35.5649C47.4654 37.9215 46.9822 40.1658 46.2145 42.3712C45.7437 43.7202 44.9658 44.9179 44.1142 46.0707C43.5246 46.8678 42.7446 47.4667 42.1059 48.2086C41.8295 48.5275 41.373 48.5622 41.0291 48.7912C40.8244 48.9281 40.681 48.7605 40.5685 48.5868C40.1795 48.0063 39.7946 47.4238 39.3995 46.8494C39.3554 46.8017 39.3238 46.7439 39.3073 46.6812C39.2908 46.6184 39.29 46.5525 39.3049 46.4894C39.3199 46.4262 39.3502 46.3677 39.3931 46.3189C39.436 46.2701 39.4902 46.2326 39.551 46.2097C40.2041 45.9051 40.5418 45.2225 41.1887 44.9138C41.3573 44.8202 41.4984 44.6842 41.5982 44.5193C42.3352 43.4136 43.0885 42.3385 43.5491 41.0651Z" fill="#FEFEFE"/>
<path id="Vector_2" d="M8.41354 31.4626C8.63106 30.3799 8.97459 29.3262 9.43712 28.3231C9.96939 27.248 10.3092 26.0952 10.9008 25.0385C11.6328 23.7055 12.486 22.4424 13.4496 21.2654C14.8294 19.6098 16.334 18.0748 18.1806 16.8791C19.4826 16.037 20.6945 15.0396 22.1275 14.4264C24.5104 13.4044 26.9281 12.5092 29.526 12.1495C31.8475 11.8265 34.1669 11.9451 36.4864 12.0023C38.1016 12.0452 39.6411 12.5685 41.1744 13.0917C42.763 13.6334 44.3475 14.1648 45.7948 15.0212C47.5431 16.0534 49.275 17.1223 50.708 18.5817C51.7562 19.6466 52.8596 20.6584 53.7624 21.8622C54.9114 23.4163 55.9121 25.0743 56.7513 26.8147C57.095 27.4554 57.3919 28.12 57.6398 28.8034C57.9624 29.8211 58.2296 30.8555 58.4402 31.902C58.7227 33.2592 58.952 34.6307 59.1588 36.0042C59.2366 36.5315 59.3123 37.112 59.1792 37.6128C58.8844 38.7063 59.0871 39.8202 58.8722 40.9178C58.718 41.8515 58.513 42.776 58.258 43.6874C57.8649 44.9239 57.5968 46.228 57.0297 47.3664C55.8833 49.6495 54.8433 51.9755 53.0541 53.9254C51.6211 55.487 49.9629 56.7542 48.4459 58.1952C47.3343 59.2519 45.9033 59.8303 44.5174 60.464C43.1761 61.108 41.79 61.6545 40.3698 62.0991C38.1532 62.7691 35.846 63.0924 33.5303 63.0577C32.3941 63.1906 31.0143 62.7654 29.6099 62.8349C29.3873 62.8235 29.1677 62.778 28.9589 62.7C28.1626 62.4834 28.1073 62.3955 28.2834 61.5718C28.3775 61.1385 28.4881 60.7092 28.5945 60.28C28.7563 59.6219 28.7992 59.581 29.3745 59.6954C32.0911 60.2289 34.7893 60.1042 37.512 59.6587C39.7025 59.2948 41.7271 58.4997 43.7211 57.6147C45.1541 56.9811 46.409 56.045 47.6107 55.0557C49.6492 53.4213 51.4105 51.4696 52.8269 49.2755C53.1423 48.8006 53.4091 48.2952 53.6232 47.767C54.2865 46.0542 54.9641 44.3496 55.3981 42.5611C55.4698 42.2668 55.482 42.1115 55.1156 42.0502C54.2394 41.903 53.3735 41.7109 52.5014 41.5371C52.3173 41.4909 52.1307 41.4554 51.9425 41.4308C51.4839 41.39 51.2792 41.2081 51.3529 40.7032C51.4675 39.9204 51.4839 39.1212 51.5945 38.3363C51.646 37.7409 51.6392 37.142 51.574 36.5479C51.3038 31.3829 49.0887 27.1294 45.2974 23.7304C43.0686 21.7133 40.3221 20.3546 37.3646 19.806C36.429 19.6323 35.4976 19.434 34.56 19.2685C33.3133 19.0498 32.0809 19.3339 30.8567 19.4729C26.314 19.9941 22.6147 22.2097 19.6075 25.5086C17.754 27.5359 16.4522 30.0039 15.8263 32.6767C15.812 32.738 15.8141 32.8014 15.8018 32.8647C15.6196 33.67 15.6175 33.6721 14.8335 33.4943C13.7812 33.2531 12.7413 32.8933 11.6767 32.8034C10.7125 32.7237 9.82404 32.4355 8.911 32.1902C8.33779 32.0574 8.28457 31.9981 8.41354 31.4626Z" fill="#FEFEFE"/>
<path id="Vector_3" d="M71.005 37.429C71.0828 38.2998 70.9067 39.197 70.8146 40.0862C70.657 41.6007 70.4789 43.1112 70.311 44.6257C70.3096 44.816 70.2946 45.0059 70.266 45.1939C69.2301 49.2614 67.8544 53.2062 65.5841 56.7667C64.1967 59.0073 62.6018 61.1129 60.8203 63.0559C58.3887 65.6139 55.6259 67.8362 52.605 69.6639C51.4597 70.3466 50.2712 70.9542 49.0471 71.483C48.091 71.9082 47.0961 72.2454 46.1687 72.738C46.0309 72.8158 45.8817 72.8717 45.7266 72.9036C44.0376 73.2081 42.4511 73.901 40.7663 74.2178C39.3558 74.4794 37.9289 74.553 36.5122 74.739C35.3761 74.8862 34.2358 75.0027 33.6462 74.9434C31.11 74.9433 28.5796 74.6996 26.0901 74.2158C25.6111 74.1177 25.5148 73.9521 25.6213 73.5249C25.8547 72.5724 26.0676 71.6138 26.2887 70.6634C26.5221 69.6619 26.5323 69.6292 25.5701 69.437C23.3182 68.9853 21.2015 68.1167 19.0908 67.2459C18.0728 66.7969 17.0978 66.2565 16.1777 65.6312C14.4479 64.5071 12.7589 63.3359 11.2338 61.9113C9.72852 60.4984 8.32927 58.9771 7.04734 57.3594C6.11588 56.1924 5.37685 54.8924 4.59074 53.6313C3.62275 52.0666 2.84806 50.3906 2.28358 48.64C1.63053 46.6594 1.04299 44.6462 0.766625 42.5695C0.480022 40.3989 0.217982 38.2221 0.338765 36.0289C0.404489 34.4469 0.610004 32.8738 0.952915 31.3279C1.10441 30.6759 1.12283 30.68 1.77178 30.819C2.35727 30.9477 2.94481 31.0826 3.5344 31.2053C3.81281 31.2645 3.98477 31.3136 3.85785 31.6958C3.33173 33.2901 3.33378 34.9457 3.37677 36.6012C3.4259 38.3754 3.29488 40.1495 3.56715 41.9277C3.79848 43.4423 4.33279 44.8669 4.66239 46.3467C5.27654 49.059 6.70956 51.3707 8.12006 53.7049C9.27875 55.6241 10.7302 57.3002 12.2881 58.8883C13.3198 59.9102 14.4475 60.8308 15.6557 61.6374C16.7816 62.412 17.9342 63.1458 19.0642 63.9184C19.58 64.2894 20.1432 64.5898 20.7388 64.8116C22.8658 65.5372 24.9437 66.4468 27.1792 66.8004C29.5601 67.1642 31.9409 67.5444 34.3729 67.4606C38.5272 67.3073 42.6039 66.2909 46.3427 64.4764C48.5622 63.4515 50.6407 62.1463 52.5272 60.5929C54.1752 59.2051 55.7495 57.7314 57.0126 55.941C57.725 54.9333 58.5091 53.9747 59.199 52.9445C60.3044 51.3094 60.9964 49.4699 61.6781 47.6303C61.8971 47.0437 62.0486 46.4305 62.2718 45.8378C62.7672 44.5317 62.9105 43.1357 63.1828 41.7826C63.5372 40.2021 63.6688 38.5799 63.5738 36.963C63.4919 35.9227 63.3936 34.8803 63.2237 33.8522C62.9862 32.4214 62.976 30.9436 62.4683 29.5599C61.588 27.1685 60.8531 24.7342 59.461 22.5328C58.4374 20.8977 57.2623 19.3627 56.1753 17.7725C55.3155 16.5114 54.0831 15.561 52.9101 14.586C52.2713 14.0587 51.6347 13.5314 50.9837 13.0224C50.3327 12.5135 49.6244 11.98 48.8014 11.6877C48.5583 11.6134 48.3258 11.5083 48.1095 11.375C45.7409 9.75008 43.0304 9.002 40.2893 8.32546C40.1357 8.28663 39.9904 8.22531 39.8389 8.18239C39.6117 8.11698 39.583 8.01069 39.6342 7.7736C40.1337 5.61929 40.6107 3.4609 41.0897 1.3025C41.1736 0.93664 41.3784 0.893717 41.7243 0.969342C43.6009 1.44975 45.4467 2.04289 47.2517 2.74552C49.5855 3.61011 51.7555 4.78946 53.8681 6.07713C55.7552 7.20402 57.4973 8.55691 59.0557 10.1057C61.0619 12.1292 62.9842 14.2386 64.5359 16.6831C65.8097 18.6906 66.953 20.7776 67.9588 22.9314C68.8476 24.8262 69.5014 26.8222 69.9057 28.8752C70.2086 30.4265 70.6733 31.9411 70.7982 33.5374C70.8248 33.8849 70.8637 34.2303 70.8699 34.5798C70.874 35.5302 70.9292 36.4766 71.005 37.429Z" fill="#FEFEFE"/>
<path id="Vector_4" d="M86.9369 61.192C86.8314 61.2426 86.7165 61.2706 86.5995 61.2741C86.4825 61.2775 86.3661 61.2564 86.2578 61.2121C86.1496 61.1678 86.0518 61.1012 85.9709 61.0168C85.8901 60.9323 85.8279 60.8318 85.7884 60.7218C85.7327 60.5409 85.6235 60.3811 85.4752 60.2633C85.3269 60.1454 85.1463 60.0752 84.9573 60.0617C83.4096 59.8327 82.3164 60.3396 81.6552 61.8419C81.2151 62.7628 81.034 63.7858 81.1311 64.8015C81.1342 65.0219 81.1686 65.2408 81.2334 65.4515C81.4934 66.0647 81.7452 66.6779 82.5989 66.6779C83.4526 66.6779 84.3124 66.7228 84.7607 65.7581C84.8856 65.4924 85.944 65.2737 86.1118 65.4638C86.1466 65.5067 86.1119 65.6375 86.0811 65.709C85.4261 67.0212 84.3103 67.5895 82.8917 67.6671C82.6378 67.6794 82.3839 67.6671 82.1301 67.6671C80.8752 67.6447 80.4596 67.2175 80.0133 66.1321C79.5261 64.9405 79.7861 63.7428 80.1505 62.6247C80.5553 61.273 81.4253 60.1075 82.6071 59.334C83.0923 59.0254 83.6307 59.0581 84.1711 59.0213C84.3288 59.0111 84.4884 59.0213 84.7996 59.0213C85.5059 58.8394 86.1917 59.1766 86.812 59.7244C86.9799 59.8736 87.162 60.0371 87.1416 60.2763C87.1006 60.589 87.3463 61.0121 86.9369 61.192Z" fill="#FEFEFE"/>
<path id="Vector_5" d="M98.6332 62.177C98.6332 61.8643 98.6332 61.5802 98.6332 61.2941C98.6066 60.2169 97.6424 59.1234 96.5676 59.0457C95.8704 59.008 95.1713 59.0182 94.4754 59.0764C93.8993 59.1143 93.3527 59.3447 92.9237 59.7305C92.2842 60.2515 91.7564 60.8959 91.3719 61.6252C90.9613 62.4468 90.7073 63.3374 90.6227 64.2516C90.4609 66.1034 91.1488 67.2051 92.721 67.5996C93.7804 67.8548 94.8943 67.7586 95.8941 67.3257C96.2496 67.1859 96.5667 66.9638 96.8194 66.6778C97.9188 65.3635 98.7704 63.9512 98.6332 62.177ZM96.6454 65.2593C96.2646 65.8431 95.7029 66.2864 95.046 66.5215C94.3891 66.7566 93.6732 66.7706 93.0076 66.5613C92.3935 66.3732 91.7793 65.3799 91.8612 64.5787C91.9881 63.387 92.1908 62.22 92.9012 61.1837C93.8572 59.8163 96.0272 59.5424 97.1327 60.7054C97.248 60.8111 97.3374 60.9418 97.3942 61.0874C97.451 61.2331 97.4736 61.3898 97.4602 61.5455C97.4418 61.7989 97.4602 62.0524 97.4602 62.4264C97.5523 63.3911 97.233 64.3559 96.6454 65.2593Z" fill="#FEFEFE"/>
<path id="Vector_6" d="M107.983 59.1906C106.941 59.0945 105.901 59.0311 104.857 59.0229C104.095 59.0229 104.095 59.023 103.942 59.7465C103.712 60.7991 103.477 61.8477 103.254 62.9023C102.951 64.3576 102.653 65.8143 102.361 67.2723C102.339 67.3826 102.218 67.5339 102.38 67.6034C102.681 67.7037 103.005 67.7158 103.313 67.6381C103.551 67.5973 103.541 67.3683 103.575 67.1864C103.687 66.4356 103.839 65.6912 104.03 64.9565C104.161 64.5273 103.94 63.8691 104.48 63.7015C104.941 63.5584 105.485 63.6709 105.991 63.7015C106.176 63.7348 106.358 63.7826 106.536 63.8446C107.074 63.9713 107.301 64.237 107.32 64.8032C107.33 65.1834 107.32 65.5656 107.32 65.9458C107.32 66.3893 107.32 66.8349 107.32 67.2784C107.32 67.82 107.715 67.6443 107.995 67.6708C108.312 67.7035 108.546 67.6708 108.538 67.2375C108.513 66.2156 108.521 65.2079 108.538 64.19C108.555 64.0468 108.524 63.902 108.45 63.7782C108.376 63.6543 108.263 63.5584 108.128 63.5053C107.719 63.3643 107.86 63.211 108.112 63.1435C108.726 62.9718 109.054 62.4874 109.311 61.9928C109.924 60.8196 109.784 59.3602 107.983 59.1906ZM108.333 61.257C108.28 61.956 107.827 62.5222 107.205 62.5896C106.792 62.6121 106.379 62.6121 105.966 62.5896V62.5998H105.872C104.474 62.5998 104.474 62.5998 104.814 61.1997C105.1 60.0183 105.1 60.0143 106.335 60.0224C106.713 59.9976 107.092 60.0434 107.453 60.1573C108.29 60.4782 108.392 60.5579 108.337 61.257H108.333Z" fill="#FEFEFE"/>
<path id="Vector_7" d="M119.396 59.4216C118.646 59.0733 117.817 58.9321 116.994 59.0129C116.352 59.0129 115.903 59.0312 115.459 59.0129C115.05 58.9924 114.923 59.1682 114.845 59.5524C114.556 61.0445 114.231 62.5305 113.911 64.0184C113.682 65.1058 113.457 66.1891 113.236 67.2765C113.211 67.3868 113.117 67.5054 113.265 67.6117C113.608 67.861 114.376 67.5912 114.468 67.1743C114.673 66.277 114.849 65.3756 115.039 64.4763C115.175 63.8631 115.177 63.8631 115.832 63.8386C116.587 63.8369 117.339 63.7477 118.073 63.5729C119.371 63.2417 119.989 62.4957 120.26 61.2673C120.438 60.4681 120.145 59.7957 119.396 59.4216ZM118.972 61.4247C118.728 62.322 118.063 62.8248 117.101 62.8391H116.624C115.396 62.8391 115.396 62.8391 115.623 61.67C115.624 61.6382 115.629 61.6067 115.637 61.5759C115.828 61.0854 115.637 60.2842 116.108 60.1227C116.833 59.8827 117.619 59.9022 118.331 60.1779C118.978 60.4293 119.15 60.7665 118.972 61.4247Z" fill="#FEFEFE"/>
<path id="Vector_8" d="M114.382 39.4974C113.022 42.6369 111.639 45.7682 110.306 48.9199C110.052 49.5188 109.786 49.7845 109.078 49.7763C105.765 49.7293 102.451 49.7579 99.1385 49.7518C98.4179 49.7518 98.4282 49.7518 98.4835 49.0098C98.6609 46.5067 98.8362 44.0022 99.0096 41.4963C99.2006 38.7384 99.389 35.9805 99.5746 33.2225C99.591 32.9568 99.7015 32.6727 99.5234 32.4151C99.2778 32.5971 99.243 32.8832 99.1488 33.1448C97.2599 38.425 95.3697 43.7045 93.4781 48.9833C93.1997 49.7538 93.1977 49.7559 92.3563 49.7559H82.4173C81.408 49.7559 81.5431 49.8376 81.5431 48.9077C81.5431 44.6835 81.5431 40.4546 81.5431 36.221V23.6385C81.5431 22.7412 81.4633 22.8352 82.362 22.8332C85.0069 22.8332 87.6519 22.8332 90.2968 22.8332C90.9662 22.8332 90.9847 22.8455 90.9437 23.5016C90.8086 25.5618 90.6612 27.6221 90.5159 29.6824C90.3439 32.0915 90.1699 34.5006 89.9938 36.9098C89.9406 37.6701 89.8792 38.4284 89.826 39.1887C89.8204 39.2807 89.8322 39.3729 89.8608 39.4606C90.0266 39.4606 89.9816 39.3073 90.0143 39.2133C90.522 37.8479 91.0379 36.4826 91.5313 35.1131C92.9356 31.2774 94.3386 27.4395 95.7402 23.5997C96.0187 22.8373 96.0207 22.8332 96.7802 22.8311H106.244C106.338 22.8311 106.435 22.8311 106.531 22.8311C106.906 22.8005 107.172 22.8761 107.061 23.3483C107.046 23.4428 107.039 23.5387 107.043 23.6344C106.801 27.7563 106.557 31.8796 106.312 36.0043C106.248 37.0835 106.185 38.162 106.123 39.2398C106.123 39.3354 106.127 39.4309 106.136 39.526C106.184 39.4469 106.228 39.365 106.267 39.2807C106.394 38.9598 106.531 38.6389 106.641 38.3119C108.313 33.4269 109.982 28.5399 111.649 23.6508C111.925 22.8332 111.929 22.8332 112.85 22.8332H120.593C121.598 22.8332 121.598 22.8332 121.207 23.7223C118.943 28.9807 116.668 34.239 114.382 39.4974Z" fill="#FEFEFE"/>
<path id="Vector_9" d="M131.691 62.2056C131.691 61.9501 131.691 61.6966 131.691 61.4432C131.689 60.8222 131.45 60.2253 131.021 59.7755C130.592 59.3256 130.007 59.0571 129.385 59.0252C128.878 59.0048 128.362 59.0252 127.86 59.0252C127.25 59.0202 126.654 59.2131 126.163 59.575C124.321 61.0058 123.553 62.9639 123.707 65.2347C123.788 66.506 124.788 67.5198 125.903 67.6465C126.787 67.7681 127.687 67.7104 128.548 67.4769C129.016 67.3631 129.442 67.1193 129.776 66.7738C130.911 65.4656 131.793 64.041 131.691 62.2056ZM129.666 65.2715C129.285 65.8605 128.719 66.3067 128.057 66.5401C127.395 66.7735 126.674 66.7809 126.008 66.5612C125.426 66.3568 124.72 65.3512 124.845 64.7687C125.05 63.8141 125.109 62.829 125.484 61.9071C125.905 60.8627 126.982 60.0533 128.106 60.0369C128.424 60.0192 128.743 60.024 129.06 60.0512C129.453 60.1007 129.815 60.2907 130.078 60.5861C130.342 60.8815 130.489 61.2622 130.493 61.6578C130.493 61.8806 130.493 62.1013 130.493 62.4181C130.593 63.4094 130.26 64.3742 129.666 65.2796V65.2715Z" fill="#FEFEFE"/>
<path id="Vector_10" d="M135.417 32.6662C134.432 31.4766 132.944 30.9268 131.412 30.6959C130.698 30.5875 129.959 30.5344 129.234 30.4915C126.816 30.3647 124.411 30.4792 122.069 31.2048C121.113 31.4991 120.282 32.0408 119.498 32.6131C118.906 33.0464 118.231 33.4715 117.975 34.2482C117.928 34.3872 117.77 34.4915 117.659 34.6018C117.272 35.0231 117.01 35.5442 116.904 36.1062C116.804 36.5149 116.816 36.6928 117.299 36.6887C119.529 36.6764 121.76 36.6887 123.989 36.6887C124.313 36.6887 124.382 36.566 124.454 36.2574C124.767 34.9452 126.129 34.3239 127.418 34.8267C127.871 35.0004 128.071 35.2354 128.075 35.7301C128.075 36.4414 127.871 37.1036 127.723 37.7863C127.66 38.0867 127.48 38.101 127.242 38.099C126.604 38.099 125.967 38.0867 125.33 38.099C122.632 38.1542 120.028 38.5977 117.649 39.9753C116.063 40.891 114.953 42.1766 114.511 43.9712C114.359 44.5844 114.269 45.218 114.179 45.8475C114.024 46.9043 114.251 47.8772 114.984 48.6743C115.919 49.6963 117.031 50.3749 118.478 50.3401C118.988 50.3125 119.498 50.3125 120.008 50.3401C121.768 50.4811 123.242 49.825 124.569 48.7499L125.299 48.149C125.504 48.476 125.345 48.8133 125.322 49.1424C125.283 49.731 125.265 49.7372 125.883 49.7412C126.999 49.7412 128.112 49.7412 129.228 49.7412C130.405 49.7412 131.586 49.7249 132.763 49.7515C133.206 49.7617 133.351 49.6125 133.431 49.1771C133.711 47.6483 134.045 46.1276 134.368 44.6089C135.003 41.7311 135.478 38.8185 136.229 35.9651C136.365 35.3903 136.363 34.7914 136.221 34.2178C136.08 33.6442 135.804 33.1124 135.417 32.6662ZM126.593 42.6263C126.53 42.8392 126.493 43.0587 126.481 43.2804C126.462 44.7111 125.43 45.7454 123.705 45.7474C123.07 45.7474 122.571 45.6391 122.327 44.9973C121.954 44.0203 122.628 42.4648 123.447 42.1603C124.202 41.8782 124.939 41.6207 125.613 41.7208H125.95C126.829 41.7249 126.818 41.7229 126.593 42.6263Z" fill="#FEFEFE"/>
<path id="Vector_11" d="M141.761 59.3934C140.379 58.9315 138.948 59.0255 137.525 59.0214C137.21 59.0214 137.099 59.1727 137.038 59.4711C136.501 62.073 135.949 64.6749 135.4 67.2748C135.377 67.3852 135.294 67.5078 135.429 67.6161C135.748 67.8716 136.553 67.5937 136.634 67.1849C136.786 66.4409 136.888 65.6846 137.075 64.9509C137.181 64.5421 137.052 63.9084 137.441 63.7388C137.867 63.5487 138.436 63.6632 138.942 63.6795C139.158 63.7145 139.371 63.7692 139.578 63.843C140.111 63.9657 140.315 64.1844 140.338 64.7219C140.356 65.1307 140.338 65.5395 140.338 65.9606C140.338 66.308 140.338 66.6575 140.338 67.005C140.35 67.6672 140.352 67.6672 140.935 67.6713C141.564 67.6713 141.574 67.6713 141.58 67.0581C141.591 66.169 141.58 65.282 141.58 64.401C141.58 63.9922 141.515 63.6325 141.085 63.4792C140.766 63.3648 140.987 63.2176 141.085 63.1829C142.139 62.7863 142.508 61.9279 142.678 60.9161C142.712 60.5972 142.641 60.2757 142.476 60.0007C142.31 59.7257 142.059 59.5125 141.761 59.3934ZM140.827 62.2897C140.54 62.4818 140.244 62.6596 139.859 62.6146C139.572 62.5983 139.285 62.5983 138.999 62.6146C137.523 62.6146 137.523 62.6146 137.869 61.1614C138.139 60.027 138.139 60.0291 139.353 60.0352C139.733 60.024 140.113 60.0743 140.477 60.1844C140.872 60.3152 141.322 60.3336 141.38 60.8671C141.437 61.4005 141.331 61.9463 140.823 62.2897H140.827Z" fill="#FEFEFE"/>
<path id="Vector_12" d="M153.335 67.0805C152.883 64.6278 152.428 62.1703 151.969 59.708C151.838 59.0049 151.828 59.0437 151.124 59.009C150.63 58.9824 150.456 59.2808 150.254 59.6038L145.613 67.0069C145.496 67.1929 145.236 67.4157 145.334 67.5751C145.469 67.7897 145.799 67.6364 146.041 67.6691C146.343 67.71 146.495 67.5281 146.636 67.2951C146.913 66.8352 147.234 66.3978 147.5 65.9318C147.575 65.7592 147.705 65.6157 147.869 65.5228C148.032 65.4299 148.222 65.3927 148.409 65.4167C149.009 65.4617 149.615 65.4167 150.219 65.4351C150.747 65.4555 151.386 65.2123 151.777 65.568C152.129 65.8868 152.024 66.5184 152.133 66.9987C152.28 67.665 152.26 67.6671 152.901 67.661C153.431 67.663 153.441 67.661 153.335 67.0805ZM151.179 64.4458C150.798 64.4274 150.417 64.4458 150.035 64.4458H148.806C148.516 64.4458 148.507 64.3212 148.642 64.1045C149.363 62.9504 150.081 61.7955 150.796 60.64C150.843 60.5665 150.884 60.45 150.989 60.5072C151.064 60.5611 151.115 60.6427 151.13 60.7341C151.287 61.8276 151.429 62.9252 151.594 64.0187C151.637 64.3661 151.5 64.4581 151.179 64.4458Z" fill="#FEFEFE"/>
<path id="Vector_13" d="M159.839 34.653C159.248 32.7194 158.249 31.2028 156.079 30.8104C155.859 30.7746 155.643 30.7171 155.434 30.6387C154.643 30.3664 153.79 30.3288 152.977 30.5304C151.311 30.8819 149.589 31.1722 148.314 32.4864C148.292 32.51 148.266 32.53 148.238 32.5457C148.158 32.5927 148.033 32.6929 147.997 32.6683C147.876 32.6009 147.909 32.464 147.931 32.3372C147.968 32.1492 148.017 31.9652 148.058 31.7792C148.664 28.9913 149.27 26.2027 149.876 23.4134C150.001 22.8452 149.991 22.8268 149.466 22.8248C146.822 22.8248 144.177 22.8248 141.534 22.8125C141.038 22.8125 140.92 22.9924 140.819 23.4502C140.254 26.1829 139.642 28.9055 139.046 31.6259C137.765 37.5125 136.482 43.399 135.198 49.2855C135.102 49.7168 135.259 49.7556 135.607 49.7556C138.157 49.7461 140.706 49.7461 143.255 49.7556C143.628 49.7556 143.847 49.6698 143.925 49.2692C144.003 48.8686 144.166 48.5477 144.252 48.1777C144.338 47.8078 144.457 47.8466 144.627 48.1082C144.85 48.4639 145.196 48.7071 145.46 49.0239C146.254 49.9846 147.35 50.2503 148.517 50.332C148.961 50.3627 149.407 50.332 149.855 50.332C151.084 50.4547 152.269 50.3075 153.295 49.5288C153.345 49.4901 153.401 49.4584 153.461 49.4347C154.552 49.0049 155.514 48.3008 156.253 47.3908C157.41 45.9825 158.413 44.4782 158.978 42.7613C159.474 41.2893 159.817 39.7701 160.001 38.2278C160.155 37.0199 160.202 35.8364 159.839 34.653ZM150.314 41.1507C150.186 41.4412 150.106 41.7504 150.077 42.0664C149.991 42.9248 149.544 43.6075 149.053 44.2758C148.603 44.889 147.886 45.0689 147.211 45.1159C146.343 45.1752 145.806 44.4271 145.806 43.3091C145.687 42.7695 145.904 42.1645 146.068 41.6249C146.459 40.3311 146.478 38.9678 146.967 37.6903C147.415 36.513 148.584 35.6872 149.821 35.8671C150.396 35.9489 150.744 36.2636 150.811 36.8216C150.998 38.3035 150.943 39.7567 150.314 41.1507Z" fill="#FEFEFE"/>
<path id="Vector_14" d="M164.472 59.3053C164.472 59.8245 164.318 60.0125 163.858 60.0269C163.397 60.0412 162.967 60.0269 162.523 60.0269C161.51 60.0269 161.518 60.0269 161.317 60.9814C160.894 62.9926 160.464 65.0025 160.026 67.011C159.98 67.2154 160.056 67.5056 159.821 67.6119C159.517 67.709 159.191 67.7196 158.881 67.6425C158.631 67.6058 158.769 67.4034 158.795 67.2726C159.024 66.1253 159.259 64.9786 159.499 63.8327C159.704 62.8107 159.968 61.7887 160.146 60.7668C160.29 59.9635 160.445 60.0371 159.504 60.0269C159.027 60.0269 158.547 60.0371 158.07 60.0269C157.866 60.0269 157.483 60.1618 157.548 59.7346C157.591 59.4321 157.548 58.9824 158.097 59.0212C158.318 59.0376 158.541 59.0212 158.764 59.0212H161.147C162.069 59.0212 162.99 59.0212 163.913 59.0212C164.124 59.0335 164.464 58.8863 164.472 59.3053Z" fill="#FEFEFE"/>
<path id="Vector_15" d="M169.877 59.5506C169.639 60.6993 169.398 61.8473 169.152 62.9947C168.861 64.358 168.538 65.7172 168.29 67.0825C168.2 67.5649 168.014 67.7509 167.625 67.6651C166.994 67.6528 166.957 67.6303 167.078 67.0519C167.473 65.1265 167.885 63.2031 168.288 61.2819C168.407 60.7218 168.509 60.1597 168.634 59.6038C168.661 59.4835 168.714 59.3708 168.79 59.274C168.866 59.1772 168.964 59.0989 169.074 59.0449C169.185 58.9908 169.307 58.9625 169.43 58.9619C169.554 58.9614 169.675 58.9886 169.787 59.0417C170.012 59.1582 169.916 59.3728 169.877 59.5506Z" fill="#FEFEFE"/>
<path id="Vector_16" d="M173.81 44.9613C173.527 46.2612 173.23 47.5611 172.977 48.8672C172.872 49.4068 172.598 49.6316 172.064 49.7625C170.309 50.1997 168.503 50.3937 166.696 50.3388C165.527 50.4472 164.249 50.1978 162.966 49.7257C161.14 49.0532 160.628 47.9372 160.808 45.9035C160.898 44.8672 161.185 43.8473 161.402 42.8233C161.793 40.996 162.198 39.1708 162.593 37.3435C162.728 36.7303 162.716 36.716 162.071 36.6997C162.008 36.6997 161.944 36.6997 161.881 36.6997C161.39 36.6363 160.747 36.9388 160.448 36.5484C160.182 36.205 160.554 35.647 160.638 35.1851C160.853 34.0017 161.136 32.8285 161.379 31.6512C161.465 31.2424 161.621 30.9542 162.129 31.038C162.381 31.0615 162.635 31.0615 162.888 31.038C163.953 31.038 163.946 31.038 164.159 30.0467C164.305 29.3722 164.184 28.5239 164.677 28.0722C165.128 27.6634 165.906 27.6042 166.52 27.3957C168.931 26.6067 171.344 25.8191 173.757 25.0329C174.356 24.8387 174.408 24.8919 174.264 25.5173C173.881 27.2199 173.509 28.9205 173.093 30.6149C173.001 30.9991 173.124 31.0421 173.437 31.04C174.549 31.04 175.664 31.04 176.78 31.04C177.104 31.04 177.243 31.1075 177.163 31.4692C176.817 33.0145 176.469 34.5617 176.162 36.1172C176.068 36.5934 175.853 36.7201 175.392 36.7017C174.436 36.669 173.48 36.7017 172.526 36.6874C172.147 36.6874 171.947 36.7998 171.855 37.1841C171.468 38.8192 171.056 40.4544 170.659 42.0773C170.606 42.26 170.578 42.4491 170.575 42.6393C170.59 43.1074 170.371 43.7717 170.78 43.9863C171.3 44.252 171.945 44.5034 172.602 44.2663C172.748 44.2073 172.899 44.1648 173.054 44.1396C173.924 44.0415 173.992 44.1212 173.81 44.9613Z" fill="#FEFEFE"/>
<path id="Vector_17" d="M181.615 61.7088C181.465 59.6546 180.591 58.9454 178.777 59.021H178.589C178.588 59.0136 178.588 59.006 178.589 58.9985C178.179 59.0251 177.77 59.0619 177.35 59.0742C176.836 59.0991 176.348 59.3123 175.981 59.673C175.326 60.2719 174.718 60.8994 174.343 61.7395C174.02 62.4426 173.905 63.1886 173.706 63.9203C173.438 64.9116 173.743 65.7967 174.171 66.6572C174.279 66.871 174.434 67.058 174.624 67.2045C174.813 67.3509 175.034 67.453 175.268 67.5033C176.346 67.7967 177.488 67.759 178.544 67.395C178.818 67.3052 179.073 67.1667 179.297 66.9862C180.921 65.6107 181.768 63.8161 181.615 61.7088ZM180.431 62.1339C180.349 63.4952 180.081 64.8299 179.039 65.8621C178.239 66.6572 177.262 66.7982 176.214 66.6224C175.408 66.4834 174.902 65.8048 174.83 64.9198C174.752 63.9714 175.129 63.1171 175.342 62.2279C175.516 61.5044 175.97 61.0016 176.529 60.5581C176.773 60.3527 177.056 60.1997 177.362 60.1086C177.667 60.0175 177.988 59.9903 178.304 60.0287C179.854 60.0328 180.521 60.6603 180.431 62.1339Z" fill="#FEFEFE"/>
<path id="Vector_18" d="M193.997 59.8284C193.502 62.185 192.996 64.5437 192.501 66.9024C192.337 67.671 192.343 67.671 191.516 67.6689C190.546 67.6689 190.759 67.7016 190.466 66.9045C189.725 64.9137 189.015 62.9127 188.292 60.9178C188.263 60.8381 188.218 60.7604 188.181 60.6828C188.115 60.7497 188.061 60.8279 188.022 60.9137C187.723 62.2116 187.434 63.5116 187.139 64.8095C186.963 65.5821 186.748 66.3485 186.621 67.1293C186.548 67.5769 186.363 67.7118 185.934 67.6771C185.651 67.6546 185.524 67.579 185.585 67.2847C185.659 66.9433 185.723 66.5999 185.79 66.2627C186.247 64.0573 186.707 61.8539 187.158 59.6485C187.244 59.2254 187.387 58.9945 187.903 59.0088C188.906 59.0353 188.906 58.9945 189.252 59.9204C189.934 61.7585 190.624 63.5981 191.322 65.439C191.361 65.5371 191.322 65.7231 191.487 65.7047C191.653 65.6863 191.659 65.531 191.692 65.4063C192.083 63.4462 192.478 61.4881 192.859 59.5259C192.912 59.2561 192.947 59.0558 193.295 59.0231C194.042 58.9454 194.169 59.0537 193.997 59.8284Z" fill="#FEFEFE"/>
<path id="Vector_19" d="M218.908 36.2641C218.703 34.8803 218.457 33.4802 217.227 32.5584C216.276 31.8138 215.185 31.2675 214.019 30.9519C211.792 30.3915 209.472 30.2976 207.206 30.676C204.467 31.1297 202.027 32.1374 200.09 34.1895C199.891 34.3952 199.672 34.5801 199.435 34.7414C199.127 34.9669 198.87 35.2553 198.682 35.5875C198.139 36.4828 197.599 37.378 197.267 38.3816C197.241 38.4572 197.157 38.5145 197.097 38.586C197.053 38.5051 197.021 38.4174 197.005 38.3264C197.005 37.2452 197.034 36.1578 196.69 35.1174C196.297 33.934 195.783 32.8691 194.673 32.1026C193.564 31.3362 192.278 30.9744 190.989 30.7025C189.263 30.3408 187.523 30.4062 185.772 30.6637C181.438 31.3035 178.102 33.3208 176.073 37.3147C175.473 38.492 175.193 39.7469 174.922 41.0101C174.714 42.1309 174.673 43.2764 174.802 44.4092C174.913 45.9004 175.574 47.2976 176.656 48.3315C177.008 48.6851 177.393 49.1041 177.827 49.288C178.99 49.7765 180.175 50.31 181.463 50.3284C183.78 50.3611 186.1 50.4653 188.401 49.9339C190.039 49.5558 191.574 49.0264 192.882 47.9493C194.024 47.005 194.976 45.9053 195.543 44.5236C195.851 43.7776 195.801 43.7265 195.015 43.7244C192.913 43.7244 190.808 43.7244 188.708 43.7244C188.243 43.7244 187.946 43.7674 187.67 44.2865C187.074 45.4127 186.032 45.9053 184.736 45.7459C184.176 45.6744 183.611 45.47 183.381 44.9774C183.093 44.3642 182.933 43.659 183.199 42.9518C183.549 42.0259 183.33 42.1343 184.29 42.1343C186.201 42.1343 188.112 42.1343 190.022 42.1343H196.045C196.25 42.1343 196.557 42.0607 196.454 42.4347C196.168 43.5609 196.454 44.6422 196.684 45.7255C196.89 46.7648 197.458 47.6979 198.287 48.3601C199.009 48.9222 199.783 49.472 200.743 49.7438C201.912 50.079 203.055 50.4163 204.287 50.3672C205.147 50.3325 206.007 50.3447 206.868 50.3672C208.813 50.4023 210.74 49.9955 212.504 49.1777C214.678 48.2007 216.369 46.7576 217.323 44.542C217.573 43.9636 217.722 43.3422 217.968 42.7617C218.118 42.4081 218.036 42.3284 217.686 42.3284C215.168 42.3284 212.652 42.3407 210.134 42.3284C209.977 42.3126 209.82 42.354 209.691 42.4449C209.562 42.5358 209.471 42.6701 209.433 42.8231C209.266 43.2666 209.104 43.7122 208.928 44.1557C208.568 45.0632 207.992 45.7091 206.93 45.7602C205.961 45.8052 205.511 45.4843 205.308 44.5338C205.273 44.2826 205.255 44.0292 205.255 43.7755C205.208 43.0683 205.413 42.3877 205.503 41.6969C205.747 39.9361 206.248 38.2206 206.991 36.6054C207.293 35.9693 207.823 35.4691 208.475 35.2033C209.458 34.7495 210.441 35.375 210.461 36.4644C210.476 37.0653 210.568 37.6907 210.385 38.2651C210.271 38.6289 210.367 38.7066 210.703 38.7066C213.219 38.7066 215.737 38.6964 218.253 38.7066C218.662 38.7066 218.857 38.5656 218.867 38.1752C218.896 37.5375 218.998 36.8813 218.908 36.2641ZM187.932 38.1036H184.597C184.36 38.1036 184.262 38.0219 184.323 37.7602C184.456 37.1889 184.724 36.6578 185.105 36.2115C185.487 35.7651 185.969 35.4166 186.513 35.1951C187.86 34.5819 189.089 35.422 189.105 36.8875C189.119 38.1036 189.119 38.1036 187.932 38.1036Z" fill="#FEFEFE"/>
<path id="Vector_20" d="M70.8146 40.078C70.657 41.5925 70.4789 43.103 70.311 44.6175C70.3096 44.8078 70.2946 44.9977 70.266 45.1858C69.2301 49.2532 67.8544 53.198 65.5841 56.7585C64.1967 58.9991 62.6018 61.1047 60.8203 63.0477C58.3887 65.6057 55.6259 67.828 52.605 69.6557C51.4597 70.3384 50.2712 70.946 49.0471 71.4748C48.091 71.9 47.0961 72.2372 46.1687 72.7298C46.0309 72.8076 45.8817 72.8635 45.7265 72.8954C44.0376 73.1999 42.4511 73.8928 40.7663 74.2096C39.3558 74.4712 37.9289 74.5448 36.5122 74.7308C35.3761 74.878 34.2358 74.9945 33.6462 74.9352C31.11 74.9351 28.5796 74.6914 26.0901 74.2076C25.6111 74.1095 25.5148 73.9439 25.6213 73.5167C25.8547 72.5643 26.0676 71.6057 26.2887 70.6552C26.5221 69.6537 26.5323 69.621 25.5701 69.4289C23.3182 68.9771 21.2015 68.1085 19.0908 67.2378C18.0728 66.7887 17.0978 66.2483 16.1777 65.6231C14.4479 64.4989 12.7589 63.3277 11.2338 61.9031C9.72852 60.4902 8.32927 58.9689 7.04734 57.3513C6.11588 56.1842 5.37685 54.8842 4.59073 53.6231C3.62275 52.0584 2.84806 50.3825 2.28358 48.6318C1.63053 46.6513 1.04299 44.638 0.766625 42.5613C0.480022 40.3907 0.217982 38.2139 0.338765 36.0208C0.404488 34.4387 0.610004 32.8656 0.952915 31.3197C1.10441 30.6677 1.12283 30.6718 1.77178 30.8108C2.35727 30.9395 2.94481 31.0744 3.5344 31.1971C3.81281 31.2564 3.98477 31.3054 3.85785 31.6876C3.33173 33.2819 3.33378 34.9375 3.37677 36.5931C3.4259 38.3672 3.29488 40.1413 3.56715 41.9196C3.79848 43.4341 4.33279 44.8587 4.66239 46.3385C5.27654 49.0508 6.70956 51.3625 8.12005 53.6967C9.27875 55.616 10.7302 57.292 12.2881 58.8801C13.3195 59.9049 14.4472 60.8282 15.6557 61.6374C16.7816 62.412 17.9342 63.1458 19.0642 63.9184C19.58 64.2894 20.1432 64.5898 20.7388 64.8116C22.8658 65.5372 24.9437 66.4468 27.1792 66.8004C29.5601 67.1642 31.9409 67.5443 34.3729 67.4605C38.5272 67.3072 42.6039 66.2909 46.3427 64.4764C48.5622 63.4515 50.6407 62.1463 52.5272 60.5929C54.1752 59.2051 55.7495 57.7314 57.0126 55.9409C57.725 54.9333 58.5091 53.9747 59.199 52.9445C60.3044 51.3094 60.9964 49.4698 61.6781 47.6303C61.8971 47.0437 62.0486 46.4305 62.2718 45.8378C62.7672 44.5317 62.9105 43.1357 63.1828 41.7826C63.5372 40.2021 63.6688 38.5799 63.5738 36.963C63.4919 35.9227 63.3936 34.8802 63.2237 33.8521C62.9862 32.4214 62.976 30.9436 62.4683 29.5599C61.588 27.1685 60.8531 24.7342 59.461 22.5328C58.4374 20.8977 57.2623 19.3627 56.1753 17.7725C55.3155 16.5114 54.0831 15.561 52.9101 14.586C52.2713 14.0587 51.6347 13.5314 50.9837 13.0224C50.3327 12.5135 49.6244 11.98 48.8014 11.6877C48.5583 11.6134 48.3258 11.5083 48.1095 11.375C45.7409 9.75008 43.0304 9.002 40.2893 8.32546C40.1357 8.28663 39.9904 8.22531 39.8389 8.18238C39.6117 8.11698 39.583 8.01069 39.6342 7.7736C40.1337 5.61929 40.6107 3.4609 41.0897 1.3025C41.1736 0.93664 41.3784 0.893717 41.7243 0.969342C43.6009 1.44975 45.4467 2.04289 47.2517 2.74552C49.5855 3.61011 51.7555 4.78946 53.8681 6.07713C55.7552 7.20402 57.4973 8.55691 59.0557 10.1057C61.0619 12.1292 62.9842 14.2386 64.5359 16.6831C65.8097 18.6906 66.953 20.7776 67.9588 22.9314C68.8476 24.8262 69.5014 26.8222 69.9057 28.8752C70.2086 30.4265 70.6733 31.9411 70.7982 33.5374C70.8248 33.8848 70.8637 34.2303 70.8699 34.5798C70.8801 35.5302 70.9272 36.4766 71.0111 37.429C71.0828 38.2997 70.9067 39.197 70.8146 40.078Z" fill="#EC2027"/>
<path id="Vector_21" d="M121.221 23.7121C118.948 28.9773 116.668 34.239 114.382 39.4974C113.022 42.6369 111.639 45.7682 110.306 48.9199C110.052 49.5188 109.786 49.7845 109.078 49.7763C105.765 49.7293 102.451 49.7579 99.1385 49.7518C98.4179 49.7518 98.4282 49.7518 98.4835 49.0098C98.6609 46.5067 98.8362 44.0022 99.0096 41.4963C99.2006 38.7384 99.389 35.9805 99.5746 33.2225C99.591 32.9568 99.7015 32.6727 99.5234 32.4151C99.2778 32.5971 99.243 32.8832 99.1488 33.1448C97.2599 38.425 95.3697 43.7045 93.4781 48.9833C93.1997 49.7538 93.1977 49.7559 92.3563 49.7559H82.4173C81.408 49.7559 81.5431 49.8376 81.5431 48.9077C81.5431 44.6835 81.5431 40.4546 81.5431 36.221V23.6385C81.5431 22.7412 81.4633 22.8352 82.362 22.8332C85.0069 22.8332 87.6519 22.8332 90.2968 22.8332C90.9662 22.8332 90.9847 22.8455 90.9437 23.5016C90.8086 25.5618 90.6612 27.6221 90.5159 29.6824C90.3439 32.0915 90.1699 34.5006 89.9938 36.9098C89.9406 37.6701 89.8792 38.4284 89.826 39.1887C89.8204 39.2807 89.8322 39.3729 89.8608 39.4606C90.0266 39.4606 89.9816 39.3073 90.0143 39.2133C90.522 37.8479 91.0379 36.4826 91.5313 35.1131C92.9356 31.2774 94.3386 27.4395 95.7402 23.5997C96.0187 22.8373 96.0207 22.8332 96.7802 22.8311H106.244C106.338 22.8311 106.435 22.8311 106.531 22.8311C106.906 22.8005 107.172 22.8761 107.061 23.3483C107.046 23.4428 107.039 23.5387 107.043 23.6344C106.801 27.7563 106.557 31.8796 106.312 36.0043C106.248 37.0835 106.185 38.162 106.123 39.2398C106.123 39.3354 106.127 39.4309 106.136 39.526C106.184 39.4469 106.228 39.365 106.267 39.2807C106.394 38.9598 106.531 38.6389 106.641 38.3119C108.313 33.4269 109.982 28.5399 111.649 23.6508C111.925 22.8332 111.929 22.8332 112.85 22.8332H120.593C121.604 22.8209 121.604 22.8209 121.221 23.7121Z" fill="black"/>
<path id="Vector_22" d="M59.1855 37.6131C58.8907 38.7066 59.0933 39.8206 58.8784 40.9182C58.7243 41.8518 58.5192 42.7763 58.2642 43.6877C57.8712 44.9243 57.603 46.2283 57.0359 47.3668C55.8895 49.6498 54.8495 51.9758 53.0603 53.9257C51.6273 55.4873 49.9691 56.7546 48.4521 58.1955C47.3405 59.2522 45.9096 59.8307 44.5236 60.4643C43.1823 61.1083 41.7962 61.6548 40.3761 62.0994C38.1594 62.7694 35.8522 63.0928 33.5365 63.058C32.4003 63.1909 31.0205 62.7658 29.6161 62.8353C29.3935 62.8239 29.1739 62.7784 28.9652 62.7004C28.1688 62.4837 28.1135 62.3958 28.2896 61.5721C28.3838 61.1388 28.4943 60.7096 28.6008 60.2803C28.7625 59.6222 28.8055 59.5813 29.3807 59.6958C32.0973 60.2292 34.7955 60.1046 37.5182 59.659C39.7087 59.2952 41.7333 58.5001 43.7273 57.6151C45.1603 56.9814 46.4152 56.0453 47.6169 55.056C49.6554 53.4217 51.4168 51.4699 52.8331 49.2758C53.1485 48.8009 53.4153 48.2956 53.6294 47.7674C54.2927 46.0546 54.9703 44.3499 55.4043 42.5615C55.476 42.2671 55.4883 42.1118 55.1218 42.0505C54.2456 41.9033 53.3797 41.7112 52.5076 41.5375C52.3235 41.4912 52.1369 41.4557 51.9487 41.4312C51.4901 41.3903 51.2854 41.2084 51.3591 40.7035C51.4738 39.9207 51.4901 39.1215 51.6007 38.3367C51.6523 37.7413 51.6454 37.1423 51.5802 36.5482C51.31 31.3832 49.095 27.1298 45.3036 23.7307C43.0749 21.7136 40.3283 20.3549 37.3708 19.8064C36.4353 19.6326 35.5038 19.4344 34.5662 19.2688C33.3195 19.0501 32.0871 19.3342 30.8629 19.4732C26.3202 19.9944 22.621 22.21 19.6137 25.5089C17.7602 27.5362 16.4584 30.0042 15.8326 32.677C15.8182 32.7383 15.8203 32.8017 15.808 32.8651C15.6258 33.6704 15.6237 33.6724 14.8397 33.4946C13.7874 33.2534 12.7475 32.8937 11.683 32.8037C10.7187 32.724 9.83026 32.4358 8.91723 32.1906C8.33583 32.0393 8.2867 31.9862 8.41158 31.4445C8.6291 30.3618 8.97263 29.3081 9.43516 28.305C9.96742 27.2299 10.3073 26.0771 10.8989 25.0204C11.6308 23.6874 12.484 22.4244 13.4476 21.2473C14.8274 19.5918 16.3321 18.0568 18.1786 16.8611C19.4806 16.019 20.6925 15.0215 22.1256 14.4083C24.5085 13.3864 26.9262 12.4911 29.524 12.1314C31.8455 11.8084 34.165 11.927 36.4844 11.9842C38.0996 12.0271 39.6391 12.5504 41.1724 13.0736C42.761 13.6153 44.3455 14.1467 45.7929 15.0031C47.5412 16.0353 49.2731 17.1043 50.7061 18.5637C51.7542 19.6285 52.8577 20.6403 53.7605 21.8442C54.9094 23.3982 55.9101 25.0562 56.7493 26.7966C57.093 27.4373 57.3899 28.102 57.6378 28.7854C57.9624 29.809 58.231 30.8496 58.4423 31.9024C58.7248 33.2595 58.9541 34.631 59.1609 36.0045C59.2428 36.5319 59.3185 37.1123 59.1855 37.6131Z" fill="#EC2027"/>
<path id="Vector_23" d="M218.908 36.2641C218.703 34.8803 218.457 33.4802 217.227 32.5584C216.276 31.8138 215.185 31.2675 214.019 30.9519C211.792 30.3915 209.472 30.2976 207.206 30.676C204.467 31.1297 202.027 32.1374 200.09 34.1895C199.891 34.3952 199.672 34.5801 199.435 34.7414C199.127 34.9669 198.87 35.2553 198.682 35.5875C198.139 36.4828 197.599 37.378 197.267 38.3816C197.241 38.4572 197.157 38.5145 197.097 38.586C197.053 38.5051 197.021 38.4174 197.005 38.3264C197.005 37.2452 197.034 36.1578 196.69 35.1174C196.297 33.934 195.783 32.8691 194.673 32.1026C193.564 31.3362 192.278 30.9744 190.989 30.7025C189.263 30.3408 187.523 30.4062 185.772 30.6637C181.438 31.3035 178.102 33.3208 176.073 37.3147C175.473 38.492 175.193 39.7469 174.922 41.0101C174.714 42.1309 174.673 43.2764 174.802 44.4092C174.913 45.9004 175.574 47.2976 176.656 48.3315C177.008 48.6851 177.393 49.1041 177.827 49.288C178.99 49.7765 180.175 50.31 181.463 50.3284C183.78 50.3611 186.1 50.4653 188.401 49.9339C190.039 49.5558 191.574 49.0264 192.882 47.9493C194.024 47.005 194.976 45.9053 195.543 44.5236C195.851 43.7776 195.801 43.7265 195.015 43.7244C192.913 43.7244 190.808 43.7244 188.708 43.7244C188.243 43.7244 187.946 43.7674 187.67 44.2865C187.074 45.4127 186.032 45.9053 184.736 45.7459C184.176 45.6744 183.611 45.47 183.381 44.9774C183.093 44.3642 182.933 43.659 183.199 42.9518C183.549 42.0259 183.33 42.1343 184.29 42.1343C186.201 42.1343 188.112 42.1343 190.022 42.1343H196.045C196.25 42.1343 196.557 42.0607 196.454 42.4347C196.168 43.5609 196.454 44.6422 196.684 45.7255C196.89 46.7648 197.458 47.6979 198.287 48.3601C199.009 48.9222 199.783 49.472 200.743 49.7438C201.912 50.079 203.055 50.4163 204.287 50.3672C205.147 50.3325 206.007 50.3447 206.868 50.3672C208.813 50.4023 210.74 49.9955 212.504 49.1777C214.678 48.2007 216.369 46.7576 217.323 44.542C217.573 43.9636 217.722 43.3422 217.968 42.7617C218.118 42.4081 218.036 42.3284 217.686 42.3284C215.168 42.3284 212.652 42.3407 210.134 42.3284C209.977 42.3126 209.82 42.354 209.691 42.4449C209.562 42.5358 209.471 42.6701 209.433 42.8231C209.266 43.2666 209.104 43.7122 208.928 44.1557C208.568 45.0632 207.992 45.7091 206.93 45.7602C205.961 45.8052 205.511 45.4843 205.308 44.5338C205.273 44.2826 205.255 44.0292 205.255 43.7755C205.208 43.0683 205.413 42.3877 205.503 41.6969C205.747 39.9361 206.248 38.2206 206.991 36.6054C207.293 35.9693 207.823 35.4691 208.475 35.2033C209.458 34.7495 210.441 35.375 210.461 36.4644C210.476 37.0653 210.568 37.6907 210.385 38.2651C210.271 38.6289 210.367 38.7066 210.703 38.7066C213.219 38.7066 215.737 38.6964 218.253 38.7066C218.662 38.7066 218.857 38.5656 218.867 38.1752C218.896 37.5375 218.998 36.8813 218.908 36.2641ZM187.932 38.1036H184.597C184.36 38.1036 184.262 38.0219 184.323 37.7602C184.456 37.1889 184.724 36.6578 185.105 36.2115C185.487 35.7651 185.969 35.4166 186.513 35.1951C187.86 34.5819 189.089 35.422 189.105 36.8875C189.119 38.1036 189.119 38.1036 187.932 38.1036Z" fill="black"/>
<path id="Vector_24" d="M159.839 34.653C159.248 32.7194 158.249 31.2028 156.079 30.8104C155.859 30.7746 155.643 30.7171 155.434 30.6387C154.643 30.3664 153.79 30.3288 152.977 30.5304C151.311 30.8819 149.589 31.1722 148.314 32.4864C148.292 32.51 148.266 32.53 148.238 32.5457C148.158 32.5927 148.033 32.6929 147.997 32.6683C147.876 32.6009 147.909 32.464 147.931 32.3372C147.968 32.1492 148.017 31.9652 148.058 31.7792C148.664 28.9913 149.27 26.2027 149.876 23.4134C150.001 22.8452 149.991 22.8268 149.466 22.8248C146.822 22.8248 144.177 22.8248 141.534 22.8125C141.038 22.8125 140.92 22.9924 140.819 23.4502C140.254 26.1829 139.642 28.9055 139.046 31.6259C137.765 37.5125 136.482 43.399 135.198 49.2855C135.102 49.7168 135.259 49.7556 135.607 49.7556C138.157 49.7461 140.706 49.7461 143.255 49.7556C143.628 49.7556 143.847 49.6698 143.925 49.2692C144.003 48.8686 144.166 48.5477 144.252 48.1777C144.338 47.8078 144.457 47.8466 144.627 48.1082C144.85 48.4639 145.196 48.7071 145.46 49.0239C146.254 49.9846 147.35 50.2503 148.517 50.332C148.961 50.3627 149.407 50.332 149.855 50.332C151.084 50.4547 152.269 50.3075 153.295 49.5288C153.345 49.4901 153.401 49.4584 153.461 49.4347C154.552 49.0049 155.514 48.3008 156.253 47.3908C157.41 45.9825 158.413 44.4782 158.978 42.7613C159.474 41.2893 159.817 39.7701 160.001 38.2278C160.155 37.0199 160.202 35.8364 159.839 34.653ZM150.314 41.1507C150.186 41.4412 150.106 41.7504 150.077 42.0664C149.991 42.9248 149.544 43.6075 149.053 44.2758C148.603 44.889 147.886 45.0689 147.211 45.1159C146.343 45.1752 145.806 44.4271 145.806 43.3091C145.687 42.7695 145.904 42.1645 146.068 41.6249C146.459 40.3311 146.478 38.9678 146.967 37.6903C147.415 36.513 148.584 35.6872 149.821 35.8671C150.396 35.9489 150.744 36.2636 150.811 36.8216C150.998 38.3035 150.943 39.7567 150.314 41.1507Z" fill="black"/>
<path id="Vector_25" d="M46.2246 42.3648C45.7537 43.7138 44.9758 44.9116 44.1242 46.0643C43.5346 46.8615 42.7546 47.4604 42.1159 48.2023C41.8396 48.5212 41.383 48.5559 41.0391 48.7848C40.8344 48.9218 40.6911 48.7542 40.5785 48.5804C40.1895 48 39.8047 47.4174 39.4096 46.8431C39.3655 46.7954 39.3338 46.7376 39.3173 46.6748C39.3008 46.612 39.3 46.5462 39.315 46.483C39.33 46.4198 39.3602 46.3613 39.4031 46.3126C39.446 46.2638 39.5002 46.2263 39.5611 46.2033C40.2141 45.8988 40.5519 45.2161 41.1988 44.9075C41.3673 44.8138 41.5085 44.6778 41.6082 44.513C42.3391 43.4072 43.0945 42.3321 43.553 41.0588C44.5991 38.1584 44.5234 35.2908 43.0617 32.6214C41.7167 30.1687 39.8108 28.1636 36.9878 27.2847C35.7922 26.9106 35.7595 26.9086 35.479 28.1861C35.2907 29.02 35.103 29.8539 34.916 30.6878C34.8321 31.0639 34.6765 31.3603 34.2118 31.2336C32.7194 30.8248 31.3888 31.4543 30.1318 32.0511C29.2454 32.4599 28.3876 33.1079 28.0335 34.1584C27.949 34.3626 27.8329 34.5523 27.6895 34.7205C27.3547 35.1481 27.1603 35.6685 27.1327 36.2105C27.0836 37.4717 26.9976 38.743 27.5278 39.9571C28.0385 41.2138 28.9824 42.2469 30.1891 42.8697C30.6374 43.0986 31.0387 43.4297 31.5607 43.5094C32.0459 43.5871 32.1462 43.8876 32.0398 44.3393C31.7552 45.5391 31.4911 46.745 31.2209 47.9489C31.0489 48.7215 30.8838 49.4934 30.7255 50.2646C30.5822 50.9596 30.5433 50.9759 29.8431 50.8042C26.7089 50.0337 24.3158 48.2125 22.4078 45.6658C20.9748 43.7547 19.9819 41.6024 19.7097 39.2724C19.1283 34.3424 20.6862 30.1544 24.6413 26.9781C26.0047 25.8846 27.3927 24.8258 29.1123 24.3353C30.5953 23.903 32.1413 23.7268 33.6836 23.8141C35.7615 23.5893 37.7657 24.2127 39.5836 25.1529C42.5929 26.7083 44.9062 29.0363 46.2185 32.229C46.6586 33.2918 46.7425 34.4425 46.9759 35.5585C47.4754 37.9152 46.9923 40.1594 46.2246 42.3648Z" fill="#EC2027"/>
<path id="Vector_26" d="M135.417 32.6662C134.432 31.4766 132.944 30.9268 131.412 30.6959C130.698 30.5875 129.959 30.5344 129.234 30.4915C126.816 30.3647 124.411 30.4792 122.069 31.2048C121.113 31.4991 120.282 32.0408 119.498 32.6131C118.906 33.0464 118.231 33.4715 117.975 34.2482C117.928 34.3872 117.77 34.4915 117.659 34.6018C117.272 35.0231 117.01 35.5442 116.904 36.1062C116.804 36.5149 116.816 36.6928 117.299 36.6887C119.529 36.6764 121.76 36.6887 123.989 36.6887C124.313 36.6887 124.382 36.566 124.454 36.2574C124.767 34.9452 126.129 34.3239 127.418 34.8267C127.871 35.0004 128.071 35.2354 128.075 35.7301C128.075 36.4414 127.871 37.1036 127.723 37.7863C127.66 38.0867 127.48 38.101 127.242 38.099C126.604 38.099 125.967 38.0867 125.33 38.099C122.632 38.1542 120.028 38.5977 117.649 39.9753C116.063 40.891 114.953 42.1766 114.511 43.9712C114.359 44.5844 114.269 45.218 114.179 45.8475C114.024 46.9043 114.251 47.8772 114.984 48.6743C115.919 49.6963 117.031 50.3749 118.478 50.3401C118.988 50.3125 119.498 50.3125 120.008 50.3401C121.768 50.4811 123.242 49.825 124.569 48.7499L125.299 48.149C125.504 48.476 125.345 48.8133 125.322 49.1424C125.283 49.731 125.265 49.7372 125.883 49.7412C126.999 49.7412 128.112 49.7412 129.228 49.7412C130.405 49.7412 131.586 49.7249 132.763 49.7515C133.206 49.7617 133.351 49.6125 133.431 49.1771C133.711 47.6483 134.045 46.1276 134.368 44.6089C135.003 41.7311 135.478 38.8185 136.229 35.9651C136.365 35.3903 136.363 34.7914 136.221 34.2178C136.08 33.6442 135.804 33.1124 135.417 32.6662ZM126.593 42.6263C126.53 42.8392 126.493 43.0587 126.481 43.2804C126.462 44.7111 125.43 45.7454 123.705 45.7474C123.07 45.7474 122.571 45.6391 122.327 44.9973C121.954 44.0203 122.628 42.4648 123.447 42.1603C124.202 41.8782 124.939 41.6207 125.613 41.7208H125.95C126.829 41.7249 126.818 41.7229 126.593 42.6263Z" fill="black"/>
<path id="Vector_27" d="M177.164 31.4753C176.818 33.0205 176.47 34.5678 176.162 36.1232C176.068 36.5994 175.853 36.7262 175.393 36.7078C174.437 36.6751 173.481 36.7078 172.527 36.6935C172.148 36.6935 171.947 36.8059 171.855 37.1901C171.468 38.8253 171.057 40.4604 170.66 42.0833C170.607 42.2661 170.578 42.4551 170.576 42.6454C170.59 43.1134 170.371 43.7777 170.78 43.9923C171.3 44.258 171.945 44.5095 172.602 44.2724C172.748 44.2133 172.9 44.1708 173.055 44.1456C173.915 44.0414 173.982 44.1211 173.8 44.9632C173.517 46.2631 173.221 47.5631 172.967 48.8692C172.862 49.4088 172.588 49.6336 172.054 49.7644C170.3 50.2017 168.493 50.3956 166.686 50.3408C165.517 50.4491 164.24 50.1998 162.956 49.7276C161.13 49.0552 160.618 47.9392 160.798 45.9055C160.889 44.8692 161.175 43.8493 161.392 42.8253C161.783 40.998 162.188 39.1727 162.584 37.3455C162.719 36.7323 162.706 36.718 162.062 36.7016C161.998 36.7016 161.935 36.7016 161.871 36.7016C161.38 36.6383 160.737 36.9408 160.438 36.5504C160.172 36.207 160.545 35.649 160.629 35.1871C160.843 34.0036 161.126 32.8304 161.37 31.6531C161.456 31.2443 161.611 30.9561 162.119 31.0399C162.371 31.0634 162.626 31.0634 162.878 31.0399C163.943 31.0399 163.937 31.0399 164.15 30.0486C164.295 29.3741 164.174 28.5259 164.668 28.0742C165.118 27.6654 165.896 27.6061 166.51 27.3976C168.922 26.6087 171.334 25.8211 173.747 25.0349C174.347 24.8407 174.398 24.8938 174.254 25.5193C173.872 27.2219 173.499 28.9224 173.083 30.6168C172.991 31.0011 173.114 31.044 173.427 31.042C174.539 31.042 175.655 31.042 176.77 31.042C177.104 31.042 177.243 31.1135 177.164 31.4753Z" fill="black"/>
<path id="Vector_28" d="M193.997 59.8284C193.502 62.185 192.996 64.5437 192.501 66.9024C192.337 67.671 192.343 67.671 191.516 67.6689C190.546 67.6689 190.759 67.7016 190.466 66.9045C189.725 64.9137 189.015 62.9127 188.292 60.9178C188.263 60.8381 188.218 60.7604 188.181 60.6828C188.115 60.7497 188.061 60.8279 188.022 60.9137C187.723 62.2116 187.434 63.5116 187.139 64.8095C186.963 65.5821 186.748 66.3485 186.621 67.1293C186.548 67.5769 186.363 67.7118 185.934 67.6771C185.651 67.6546 185.524 67.579 185.585 67.2847C185.659 66.9433 185.723 66.5999 185.79 66.2627C186.247 64.0573 186.707 61.8539 187.158 59.6485C187.244 59.2254 187.387 58.9945 187.903 59.0088C188.906 59.0353 188.906 58.9945 189.252 59.9204C189.934 61.7585 190.624 63.5981 191.322 65.439C191.361 65.5371 191.322 65.7231 191.487 65.7047C191.653 65.6863 191.659 65.531 191.692 65.4063C192.083 63.4462 192.478 61.4881 192.859 59.5259C192.912 59.2561 192.947 59.0558 193.295 59.0231C194.042 58.9454 194.169 59.0537 193.997 59.8284Z" fill="#010101"/>
<path id="Vector_29" d="M141.761 59.3934C140.379 58.9315 138.948 59.0255 137.525 59.0214C137.21 59.0214 137.099 59.1727 137.038 59.4711C136.501 62.073 135.949 64.6749 135.4 67.2748C135.377 67.3852 135.294 67.5078 135.429 67.6161C135.748 67.8716 136.553 67.5937 136.634 67.1849C136.786 66.4409 136.888 65.6846 137.075 64.9509C137.181 64.5421 137.052 63.9084 137.441 63.7388C137.867 63.5487 138.436 63.6632 138.942 63.6795C139.158 63.7145 139.371 63.7692 139.578 63.843C140.111 63.9657 140.315 64.1844 140.338 64.7219C140.356 65.1307 140.338 65.5395 140.338 65.9606C140.338 66.308 140.338 66.6575 140.338 67.005C140.35 67.6672 140.352 67.6672 140.935 67.6713C141.564 67.6713 141.574 67.6713 141.58 67.0581C141.591 66.169 141.58 65.282 141.58 64.401C141.58 63.9922 141.515 63.6325 141.085 63.4792C140.766 63.3648 140.987 63.2176 141.085 63.1829C142.139 62.7863 142.508 61.9279 142.678 60.9161C142.712 60.5972 142.641 60.2757 142.476 60.0007C142.31 59.7257 142.059 59.5125 141.761 59.3934ZM140.827 62.2897C140.54 62.4818 140.244 62.6596 139.859 62.6146C139.572 62.5983 139.285 62.5983 138.999 62.6146C137.523 62.6146 137.523 62.6146 137.869 61.1614C138.139 60.027 138.139 60.0291 139.353 60.0352C139.733 60.024 140.113 60.0743 140.477 60.1844C140.872 60.3152 141.322 60.3336 141.38 60.8671C141.437 61.4005 141.331 61.9463 140.823 62.2897H140.827Z" fill="#010101"/>
<path id="Vector_30" d="M107.983 59.1906C106.941 59.0945 105.901 59.0311 104.857 59.0229C104.095 59.0229 104.095 59.023 103.942 59.7465C103.712 60.7991 103.477 61.8477 103.254 62.9023C102.951 64.3576 102.653 65.8143 102.361 67.2723C102.339 67.3826 102.218 67.5339 102.38 67.6034C102.681 67.7037 103.005 67.7158 103.313 67.6381C103.551 67.5973 103.541 67.3683 103.575 67.1864C103.687 66.4356 103.839 65.6912 104.03 64.9565C104.161 64.5273 103.94 63.8691 104.48 63.7015C104.941 63.5584 105.485 63.6709 105.991 63.7015C106.176 63.7348 106.358 63.7826 106.536 63.8446C107.074 63.9713 107.301 64.237 107.32 64.8032C107.33 65.1834 107.32 65.5656 107.32 65.9458C107.32 66.3893 107.32 66.8349 107.32 67.2784C107.32 67.82 107.715 67.6443 107.995 67.6708C108.312 67.7035 108.546 67.6708 108.538 67.2375C108.513 66.2156 108.521 65.2079 108.538 64.19C108.555 64.0468 108.524 63.902 108.45 63.7782C108.376 63.6543 108.263 63.5584 108.128 63.5053C107.719 63.3643 107.86 63.211 108.112 63.1435C108.726 62.9718 109.054 62.4874 109.311 61.9928C109.924 60.8196 109.784 59.3602 107.983 59.1906ZM108.333 61.257C108.28 61.956 107.827 62.5222 107.205 62.5896C106.792 62.6121 106.379 62.6121 105.966 62.5896V62.5998H105.872C104.474 62.5998 104.474 62.5998 104.814 61.1997C105.1 60.0183 105.1 60.0143 106.335 60.0224C106.713 59.9976 107.092 60.0434 107.453 60.1573C108.29 60.4782 108.392 60.5579 108.337 61.257H108.333Z" fill="#010101"/>
<path id="Vector_31" d="M98.6332 62.177C98.6332 61.8643 98.6332 61.5802 98.6332 61.2941C98.6066 60.2169 97.6424 59.1234 96.5676 59.0457C95.8704 59.008 95.1713 59.0182 94.4754 59.0764C93.8993 59.1143 93.3527 59.3447 92.9237 59.7305C92.2842 60.2515 91.7564 60.8959 91.3719 61.6252C90.9613 62.4468 90.7073 63.3374 90.6227 64.2516C90.4609 66.1034 91.1488 67.2051 92.721 67.5996C93.7804 67.8548 94.8943 67.7586 95.8941 67.3257C96.2496 67.1859 96.5667 66.9638 96.8194 66.6778C97.9188 65.3635 98.7704 63.9512 98.6332 62.177ZM96.6454 65.2593C96.2646 65.8431 95.7029 66.2864 95.046 66.5215C94.3891 66.7566 93.6732 66.7706 93.0076 66.5613C92.3935 66.3732 91.7793 65.3799 91.8612 64.5787C91.9881 63.387 92.1908 62.22 92.9012 61.1837C93.8572 59.8163 96.0272 59.5424 97.1327 60.7054C97.248 60.8111 97.3374 60.9418 97.3942 61.0874C97.451 61.2331 97.4736 61.3898 97.4602 61.5455C97.4418 61.7989 97.4602 62.0524 97.4602 62.4264C97.5523 63.3911 97.233 64.3559 96.6454 65.2593Z" fill="#010101"/>
<path id="Vector_32" d="M131.691 62.2056C131.691 61.9501 131.691 61.6966 131.691 61.4432C131.689 60.8222 131.45 60.2253 131.021 59.7755C130.592 59.3256 130.007 59.0571 129.385 59.0252C128.878 59.0048 128.362 59.0252 127.86 59.0252C127.25 59.0202 126.654 59.2131 126.163 59.575C124.321 61.0058 123.553 62.9639 123.707 65.2347C123.788 66.506 124.788 67.5198 125.903 67.6465C126.787 67.7681 127.687 67.7104 128.548 67.4769C129.016 67.3631 129.442 67.1193 129.776 66.7738C130.911 65.4656 131.793 64.041 131.691 62.2056ZM129.666 65.2715C129.285 65.8605 128.719 66.3067 128.057 66.5401C127.395 66.7735 126.674 66.7809 126.008 66.5612C125.426 66.3568 124.72 65.3512 124.845 64.7687C125.05 63.8141 125.109 62.829 125.484 61.9071C125.905 60.8627 126.982 60.0533 128.106 60.0369C128.424 60.0192 128.743 60.024 129.06 60.0512C129.453 60.1007 129.815 60.2907 130.078 60.5861C130.342 60.8815 130.489 61.2622 130.493 61.6578C130.493 61.8806 130.493 62.1013 130.493 62.4181C130.593 63.4094 130.26 64.3742 129.666 65.2796V65.2715Z" fill="#010101"/>
<path id="Vector_33" d="M181.615 61.7088C181.465 59.6546 180.591 58.9454 178.777 59.021H178.589C178.588 59.0136 178.588 59.006 178.589 58.9985C178.179 59.0251 177.77 59.0619 177.35 59.0742C176.836 59.0991 176.348 59.3123 175.981 59.673C175.326 60.2719 174.718 60.8994 174.343 61.7395C174.02 62.4426 173.905 63.1886 173.706 63.9203C173.438 64.9116 173.743 65.7967 174.171 66.6572C174.279 66.871 174.434 67.058 174.624 67.2045C174.813 67.3509 175.034 67.453 175.268 67.5033C176.346 67.7967 177.488 67.759 178.544 67.395C178.818 67.3052 179.073 67.1667 179.297 66.9862C180.921 65.6107 181.768 63.8161 181.615 61.7088ZM180.431 62.1339C180.349 63.4952 180.081 64.8299 179.039 65.8621C178.239 66.6572 177.262 66.7982 176.214 66.6224C175.408 66.4834 174.902 65.8048 174.83 64.9198C174.752 63.9714 175.129 63.1171 175.342 62.2279C175.516 61.5044 175.97 61.0016 176.529 60.5581C176.773 60.3527 177.056 60.1997 177.362 60.1086C177.667 60.0175 177.988 59.9903 178.304 60.0287C179.854 60.0328 180.521 60.6603 180.431 62.1339Z" fill="#010101"/>
<path id="Vector_34" d="M153.335 67.0805C152.883 64.6278 152.428 62.1703 151.969 59.708C151.838 59.0049 151.828 59.0437 151.124 59.009C150.63 58.9824 150.456 59.2808 150.254 59.6038L145.613 67.0069C145.496 67.1929 145.236 67.4157 145.334 67.5751C145.469 67.7897 145.799 67.6364 146.041 67.6691C146.343 67.71 146.495 67.5281 146.636 67.2951C146.913 66.8352 147.234 66.3978 147.5 65.9318C147.575 65.7592 147.705 65.6157 147.869 65.5228C148.032 65.4299 148.222 65.3927 148.409 65.4167C149.009 65.4617 149.615 65.4167 150.219 65.4351C150.747 65.4555 151.386 65.2123 151.777 65.568C152.129 65.8868 152.024 66.5184 152.133 66.9987C152.28 67.665 152.26 67.6671 152.901 67.661C153.431 67.663 153.441 67.661 153.335 67.0805ZM151.179 64.4458C150.798 64.4274 150.417 64.4458 150.035 64.4458H148.806C148.516 64.4458 148.507 64.3212 148.642 64.1045C149.363 62.9504 150.081 61.7955 150.796 60.64C150.843 60.5665 150.884 60.45 150.989 60.5072C151.064 60.5611 151.115 60.6427 151.13 60.7341C151.287 61.8276 151.429 62.9252 151.594 64.0187C151.637 64.3661 151.5 64.4581 151.179 64.4458Z" fill="#010101"/>
<path id="Vector_35" d="M119.396 59.4216C118.646 59.0733 117.817 58.9321 116.994 59.0129C116.352 59.0129 115.903 59.0312 115.459 59.0129C115.05 58.9924 114.923 59.1682 114.845 59.5524C114.556 61.0445 114.231 62.5305 113.911 64.0184C113.682 65.1058 113.457 66.1891 113.236 67.2765C113.211 67.3868 113.117 67.5054 113.265 67.6117C113.608 67.861 114.376 67.5912 114.468 67.1743C114.673 66.277 114.849 65.3756 115.039 64.4763C115.175 63.8631 115.177 63.8631 115.832 63.8386C116.587 63.8369 117.339 63.7477 118.073 63.5729C119.371 63.2417 119.989 62.4957 120.26 61.2673C120.438 60.4681 120.145 59.7957 119.396 59.4216ZM118.972 61.4247C118.728 62.322 118.063 62.8248 117.101 62.8391H116.624C115.396 62.8391 115.396 62.8391 115.623 61.67C115.624 61.6382 115.629 61.6067 115.637 61.5759C115.828 61.0854 115.637 60.2842 116.108 60.1227C116.833 59.8827 117.619 59.9022 118.331 60.1779C118.978 60.4293 119.15 60.7665 118.972 61.4247Z" fill="#010101"/>
<path id="Vector_36" d="M86.9369 61.192C86.8314 61.2426 86.7165 61.2706 86.5995 61.2741C86.4825 61.2775 86.3661 61.2564 86.2578 61.2121C86.1496 61.1678 86.0518 61.1012 85.9709 61.0168C85.8901 60.9323 85.8279 60.8318 85.7884 60.7218C85.7327 60.5409 85.6235 60.3811 85.4752 60.2633C85.3269 60.1454 85.1463 60.0752 84.9573 60.0617C83.4096 59.8327 82.3164 60.3396 81.6552 61.8419C81.2151 62.7628 81.034 63.7858 81.1311 64.8015C81.1342 65.0219 81.1686 65.2408 81.2334 65.4515C81.4934 66.0647 81.7452 66.6779 82.5989 66.6779C83.4526 66.6779 84.3124 66.7228 84.7607 65.7581C84.8856 65.4924 85.944 65.2737 86.1118 65.4638C86.1466 65.5067 86.1119 65.6375 86.0811 65.709C85.4261 67.0212 84.3103 67.5895 82.8917 67.6671C82.6378 67.6794 82.3839 67.6671 82.1301 67.6671C80.8752 67.6447 80.4596 67.2175 80.0133 66.1321C79.5261 64.9405 79.7861 63.7428 80.1505 62.6247C80.5553 61.273 81.4253 60.1075 82.6071 59.334C83.0923 59.0254 83.6307 59.0581 84.1711 59.0213C84.3288 59.0111 84.4884 59.0213 84.7996 59.0213C85.5059 58.8394 86.1917 59.1766 86.812 59.7244C86.9799 59.8736 87.162 60.0371 87.1416 60.2763C87.1006 60.589 87.3463 61.0121 86.9369 61.192Z" fill="#010101"/>
<path id="Vector_37" d="M164.472 59.3053C164.472 59.8245 164.318 60.0125 163.858 60.0269C163.397 60.0412 162.967 60.0269 162.523 60.0269C161.51 60.0269 161.518 60.0269 161.317 60.9814C160.894 62.9926 160.464 65.0025 160.026 67.011C159.98 67.2154 160.056 67.5056 159.821 67.6119C159.517 67.709 159.191 67.7196 158.881 67.6425C158.631 67.6058 158.769 67.4034 158.795 67.2726C159.024 66.1253 159.259 64.9786 159.499 63.8327C159.704 62.8107 159.968 61.7887 160.146 60.7668C160.29 59.9635 160.445 60.0371 159.504 60.0269C159.027 60.0269 158.547 60.0371 158.07 60.0269C157.866 60.0269 157.483 60.1618 157.548 59.7346C157.591 59.4321 157.548 58.9824 158.097 59.0212C158.318 59.0376 158.541 59.0212 158.764 59.0212H161.147C162.069 59.0212 162.99 59.0212 163.913 59.0212C164.124 59.0335 164.464 58.8863 164.472 59.3053Z" fill="#020202"/>
<path id="Vector_38" d="M169.877 59.5506C169.639 60.6993 169.398 61.8473 169.152 62.9947C168.861 64.358 168.538 65.7172 168.29 67.0825C168.2 67.5649 168.014 67.7509 167.625 67.6651C166.994 67.6528 166.957 67.6303 167.078 67.0519C167.473 65.1265 167.885 63.2031 168.288 61.2819C168.407 60.7218 168.509 60.1597 168.634 59.6038C168.661 59.4835 168.714 59.3708 168.79 59.274C168.866 59.1772 168.964 59.0989 169.074 59.0449C169.185 58.9908 169.307 58.9625 169.43 58.9619C169.554 58.9614 169.675 58.9886 169.787 59.0417C170.012 59.1582 169.916 59.3728 169.877 59.5506Z" fill="#020202"/>
</g>
</svg>
