<svg width="71" height="82" viewBox="0 0 71 82" fill="none" xmlns="http://www.w3.org/2000/svg">
<g id="4VjBtH">
<path id="Vector" d="M7.54861 15.0693C8.57219 13.614 9.93562 13.0254 11.7678 13.0254C19.6372 13.0949 27.5106 13.0499 35.3819 13.0581C37.5519 13.0581 38.9993 14.1577 39.3575 16.1812C39.5254 17.1276 39.0361 18.0576 38.5694 18.8159C38.311 19.2198 37.9427 19.542 37.5077 19.7447C37.0727 19.9474 36.5888 20.0222 36.1128 19.9605C33.7401 19.6968 31.4841 20.6677 29.1073 20.5185C26.8186 20.3733 24.5135 20.4857 22.0508 20.4857L20.325 22.2742V25.0846L22.0651 26.8771C25.2525 26.8771 28.2639 26.9691 31.2651 26.8383C32.7779 26.7708 34.1925 27.1244 35.603 27.4351C37.2796 27.8051 38.4383 29.0907 39.3637 30.4704C40.2276 31.7601 40.9871 33.1111 42.1785 34.1494C43.3249 35.1489 44.7825 35.0426 45.7365 33.8163C46.1411 33.2684 46.5018 32.6895 46.8154 32.0851C49.014 28.0626 51.3191 24.0994 53.6222 20.1403C54.6355 18.4071 55.784 16.7045 56.5476 14.8097C57.0922 13.4567 58.1997 13.0397 59.6184 13.0377C61.1578 13.0377 62.4537 13.6304 63.0985 14.8976C63.5653 15.8256 63.4445 16.9763 62.8938 18.1291C61.4649 21.1194 59.8292 23.9809 58.2365 26.871C55.3295 32.1341 52.6027 37.4995 49.5238 42.6686C48.3978 44.5551 47.7141 46.689 46.3568 48.4713C46.1234 48.7779 45.9658 49.2112 45.6751 49.53C44.0926 51.2694 42.2747 51.1652 40.9912 49.1724C39.5233 46.8872 38.1476 44.5428 36.733 42.223C35.6706 40.4816 34.5528 38.7687 33.5784 36.9782C33.2222 36.3242 32.7022 35.9154 32.1453 35.3431C31.8669 35.3431 31.5189 35.3247 31.175 35.3431C28.7614 35.4944 27.4901 37.4177 28.5423 39.5986C29.6785 41.9573 30.9989 44.2281 32.303 46.5071C33.9776 49.4565 35.7197 52.3691 37.4004 55.3144C38.1927 56.7043 39.0996 58.0001 39.6339 59.5719C40.1498 61.0844 39.8918 62.2883 39.0832 63.4349C37.7689 65.3051 35.6829 65.5259 33.9325 64.0481C33.378 63.6148 32.9016 63.0902 32.5241 62.4968C30.8004 59.484 29.1749 56.414 27.4512 53.4013C25.6824 50.3067 23.7663 47.2981 22.0589 44.1668C21.0108 42.2312 19.9667 40.2956 18.8654 38.3886C16.9165 35.0099 15.0576 31.5823 13.0146 28.2547C11.4239 25.661 10.2079 22.8322 8.53535 20.2998C7.41145 18.6094 7.5179 16.8884 7.54861 15.0693Z" fill="#F02535"/>
<path id="Vector_2" d="M0.660156 25.1765C1.52406 23.662 2.93047 22.8485 4.29388 22.1842C5.55289 21.571 6.22231 20.6799 6.75048 19.3022C7.88257 22.2128 9.57966 24.6369 10.9247 27.2531C11.5144 28.3929 11.8093 29.6619 11.7824 30.9445C11.766 41.5225 11.766 52.0992 11.7824 62.6745C11.7824 63.5841 11.4221 64.5856 12.4539 65.4849H1.94987C1.50768 65.3153 1.13101 64.7123 0.660156 64.1789V25.1765Z" fill="#477628"/>
<path id="Vector_3" d="M64.3353 18.5303C63.8993 20.983 65.2525 21.9109 66.7919 22.5957C67.2014 22.7755 67.5207 23.0331 67.8892 23.2375C69.2178 23.9753 69.7317 25.0463 69.6948 26.5854C69.6088 30.2052 69.6703 33.8271 69.6703 37.4489V62.0906C69.6703 62.5321 69.6703 62.9756 69.6703 63.4151C69.6314 65.3241 69.4246 65.553 67.5944 65.5775C66.0017 65.6 64.409 65.5775 62.8163 65.5775H58.0137C59.3136 63.3047 58.9922 60.9317 58.9984 58.5975C59.0147 49.5878 59.1007 40.5782 58.941 31.5706C58.8981 29.0974 59.4999 26.937 60.7835 25.0116C62.0671 23.0862 62.9166 20.9585 64.3353 18.5303Z" fill="#477628"/>
<path id="Vector_4" d="M13.0509 31.7026C14.0745 32.187 14.4553 33.2867 14.8934 34.1124C17.1985 38.558 19.7554 42.8584 22.3348 47.1364C23.6132 49.1832 24.2174 51.5784 24.0627 53.9856C23.9316 56.6264 24.0626 59.2814 24.0197 61.9283C23.9971 63.1813 24.1793 64.3279 25.1026 65.45H14.097C13.1389 64.7694 12.924 63.5022 12.9179 62.3657C12.8626 52.2196 12.8994 42.0736 12.9179 31.9275C12.9158 31.8518 13.0038 31.7783 13.0509 31.7026Z" fill="#477629"/>
<path id="Vector_5" d="M56.2299 65.4725H46.0801C46.9276 64.2359 46.8048 63.0341 46.8007 61.8425C46.8007 59.1097 46.9747 56.3607 46.7434 53.6463C46.5386 51.1466 47.4988 49.1313 48.6431 47.1057C49.941 44.8186 51.3536 42.5968 52.629 40.2953C53.9781 37.8569 55.2186 35.3592 56.5186 32.8922C56.7013 32.591 56.9009 32.3003 57.1164 32.0215C57.6077 32.7082 57.4214 33.2478 57.4234 33.7629C57.4357 43.1119 57.4234 52.4608 57.4521 61.8098C57.4582 63.1731 57.2412 64.3729 56.2299 65.4725Z" fill="#477628"/>
<path id="Vector_6" d="M47.0305 28.0195C46.2382 25.4277 46.1686 22.5581 43.2002 21.3828C43.8144 20.647 43.6342 19.762 43.6465 18.9301C43.6752 17.0905 43.3538 15.1652 43.7468 13.4115C44.2115 11.3266 44.0682 9.27658 44.1706 7.21221C44.2074 6.50092 44.2136 5.81416 43.5278 5.33588C43.2391 5.13148 42.9546 4.78402 43.1183 4.44472C43.753 3.16726 42.6106 1.85506 43.3497 0.387515C45.7715 0.387515 48.3038 0.352769 50.8362 0.403867C51.8598 0.424307 52.5537 1.30933 52.0522 2.16574C51.5998 2.93834 51.6325 3.34917 52.089 4.00528C52.2323 4.20967 52.1545 4.82285 51.9621 4.97001C50.7072 5.97563 51.0757 7.34506 51.0655 8.61843C51.047 10.3783 50.9795 12.1463 51.1228 13.8959C51.2415 15.3409 51.5998 16.7574 51.6243 18.2311C51.6465 19.6031 51.2697 20.9521 50.5393 22.1145C49.3827 24.0256 48.2445 25.9694 47.0305 28.0195Z" fill="#477628"/>
<path id="Vector_7" d="M44.4149 65.5545H39.4403C39.9521 64.737 40.558 64.0563 40.8057 63.2674C41.0534 62.4784 40.9327 61.5464 41.0104 60.6818C41.1149 59.6067 40.8057 58.6379 40.2898 57.7324C38.1608 53.9757 35.9908 50.2393 33.8556 46.4908C32.6785 44.4305 31.4973 42.3743 30.3754 40.2874C29.8411 39.3002 29.5238 38.2435 30.0028 37.0171C31.0592 36.8638 31.8453 36.7739 32.5556 38.0391C34.5373 41.5955 36.7708 45.011 38.8466 48.5163C39.8169 50.1515 40.7382 51.7682 42.9225 51.9215C43.637 52.9435 44.3023 51.5127 45.2153 51.9951C45.2153 55.8152 45.2153 59.762 45.2153 63.6905C45.2215 64.4324 44.593 64.8759 44.4149 65.5545Z" fill="#467527"/>
<path id="Vector_8" d="M26.2365 25.0989C26.2348 25.035 26.2445 24.9713 26.2652 24.9108C27.6429 22.3375 29.8764 21.7345 32.5991 22.0493C33.7166 22.1656 34.846 22.0258 35.9012 21.6405C36.8306 21.3196 37.9811 21.7468 38.8266 21.0273C40.0283 21.5874 41.1624 22.1433 42.3232 22.6461C44.2946 23.5005 44.9968 25.2092 45.1994 27.1264C45.3571 28.6083 45.1831 30.1228 45.2445 31.6231C45.2731 32.3446 44.9824 32.8372 44.4256 33.1295C43.8115 33.4463 43.2649 33.2174 42.8022 32.7023C42.0529 31.8643 41.2709 31.0937 40.7161 30.0656C39.2197 27.29 36.9534 25.6671 33.635 25.7734C31.6943 25.8367 29.7454 25.7509 27.8087 25.802C27.1188 25.8347 26.605 25.6957 26.2365 25.0989Z" fill="#477628"/>
<path id="Vector_9" d="M6.33748 0.375159C8.62826 0.375159 10.915 0.350632 13.2016 0.375159C14.8005 0.397642 15.2734 0.988339 14.692 2.41909C14.475 2.95052 14.4873 3.41244 14.4606 3.91525C14.4443 4.26681 14.6121 4.76553 14.4361 4.93722C12.5445 6.88509 14.4668 9.18656 13.7155 11.4185C11.2343 11.3756 8.63441 11.441 6.66298 13.722C6.43735 12.9642 6.46393 12.1538 6.73873 11.4124C7.26894 9.91215 6.88407 8.30766 6.99257 6.75019C7.02123 6.3414 6.71826 6.1043 6.45827 5.89991C5.98742 5.52587 5.91167 5.0619 5.91781 4.50595C5.93009 3.6618 6.08158 2.84014 5.47153 2.02257C5.10918 1.53202 5.56979 0.884098 6.33748 0.375159Z" fill="#487629"/>
<path id="Vector_10" d="M63.9376 13.1152C61.4073 11.4596 59.0449 10.7381 56.2669 12.686C56.5576 11.3022 56.2669 10.2639 56.7295 9.09888C57.1267 8.08918 57.3314 6.685 56.1747 5.72844C55.8758 5.48112 55.8247 5.16431 55.8144 4.79232C55.7919 3.86028 55.9639 2.95278 55.3681 2.02892C54.9423 1.3769 55.665 0.406033 56.5064 0.39377C58.892 0.343353 61.2804 0.343353 63.6715 0.39377C64.5067 0.412165 65.2519 1.41574 64.822 2.02892C64.2385 2.86489 64.4125 3.68042 64.3716 4.5266C64.3491 4.95583 64.4351 5.39732 64.0236 5.73048C62.8485 6.67887 63.0614 8.10553 63.4606 9.10502C63.9806 10.4274 63.5957 11.6558 63.9376 13.1152Z" fill="#477628"/>
<path id="Vector_11" d="M30.2734 1.42595C30.7545 0.782111 31.08 0.338578 31.8375 0.35493C34.0382 0.408072 36.245 0.342665 38.4478 0.387632C39.6658 0.412159 40.321 1.21747 39.7887 2.22717C39.4243 2.92415 39.4407 3.53529 39.4243 4.21388C39.4243 4.47754 39.5348 4.8618 39.4018 4.98853C37.5307 6.78106 39.2585 8.88426 38.8736 10.7974C38.806 11.1244 38.8736 11.476 38.8736 12.0994C36.6217 11.3227 34.4005 11.5148 31.9542 11.5005C31.9542 10.5071 31.9705 9.57103 31.9542 8.63899C31.9316 7.53527 32.2428 6.36614 31.1107 5.51586C30.6522 5.17248 30.9285 4.52455 30.9183 4.01561C30.8815 3.07132 31.1353 2.0841 30.2734 1.42595Z" fill="#477628"/>
<path id="Vector_12" d="M26.9934 0.37338C27.6075 1.91246 26.4918 3.23489 27.1796 4.50008C27.2165 4.56958 27.2247 4.71878 27.1796 4.75557C25.4252 6.29466 26.328 8.34677 26.1253 10.1802C26.0864 10.5236 26.1253 10.8731 26.1253 11.4924C23.8571 11.5128 21.6216 11.4924 19.2346 11.4924C19.2346 10.2067 19.2346 9.08258 19.2346 7.95842C19.2346 6.93645 19.4659 5.83886 18.4157 5.09691C18.2519 4.98041 18.1127 4.55322 18.1987 4.41015C18.7781 3.43724 18.3523 2.53382 18.1782 1.57113C18.0472 0.835309 18.7248 0.387687 19.816 0.377467C22.1661 0.357028 24.5388 0.37338 26.9934 0.37338Z" fill="#477628"/>
<path id="Vector_13" d="M25.0615 71.4471C24.8097 72.1911 24.3225 72.5099 23.4934 72.4895C21.6386 72.4425 19.7839 72.4752 17.9292 72.4752C17.487 72.4752 17.0448 72.4588 16.6047 72.4752C15.5176 72.5201 15.0365 72.9023 14.9976 73.724C14.9587 74.5457 15.4439 75.0485 16.4962 75.0751C17.9087 75.1118 19.3233 75.1037 20.7358 75.0751C21.4032 75.0607 21.9641 75.1629 22.2487 75.9172C21.7738 77.0495 20.7993 77.2989 19.5649 77.2253C18.1564 77.1394 16.7398 77.2048 15.3661 77.2048C14.7745 77.6279 14.9219 78.1716 15.1266 78.6356C15.4152 79.2733 16.0007 79.3591 16.6763 79.3469C18.8852 79.304 21.0941 79.3755 23.3009 79.308C24.1096 79.2835 24.6521 79.5267 25.0697 80.2217C24.8936 81.2947 24.1362 81.4705 23.1761 81.4623C20.2609 81.4358 17.3457 81.4521 14.3569 81.4521C13.7161 81.2334 13.319 80.6489 12.8809 80.0827V71.8497C13.104 71.1854 13.6997 70.8032 14.2115 70.3556C17.2434 70.3556 20.2445 70.3699 23.2457 70.3454C24.1034 70.3393 24.7954 70.4926 25.0615 71.4471Z" fill="#F02234"/>
<path id="Vector_14" d="M44.7537 77.2437H46.5634C47.0506 78.7828 47.587 79.2651 48.977 79.308C50.367 79.351 51.8021 79.3183 53.2863 79.3183C53.9209 79.0893 54.3099 78.5007 54.7705 77.9836C54.8421 77.3234 54.361 76.9473 53.9188 76.7736C53.4767 76.5998 52.8809 76.7163 52.3548 76.7143H46.7742C46.1439 76.2738 45.6062 75.7141 45.1918 75.0669C43.9307 73.1803 45.2614 70.5948 47.6688 70.3658C49.6833 70.1798 51.7284 70.2779 53.7571 70.3433C54.4925 70.369 55.1989 70.6357 55.7673 71.1023C56.3356 71.5689 56.7343 72.2094 56.9016 72.9248C57.135 73.8487 56.6969 74.2473 55.1287 74.56C54.4573 74.0899 55.0796 72.9248 53.5319 72.4527C52.3609 72.4527 50.6127 72.4527 48.8623 72.4527C47.8695 72.4527 47.8695 72.4711 46.8152 73.3214C46.9564 74.2432 47.4907 74.6193 48.4345 74.5947C49.933 74.5559 51.4438 74.6744 52.9383 74.5477C53.7223 74.4803 54.3058 74.8073 54.881 75.1159C56.9794 76.234 57.3376 78.329 55.7961 80.1972C55.5497 80.4601 55.2849 80.7053 55.0038 80.9309H46.633C45.5521 80.1093 44.6001 79.0996 44.7537 77.2437Z" fill="#F02132"/>
<path id="Vector_15" d="M70.2322 79.1325C69.9088 78.631 69.5894 78.1269 69.2741 77.62C67.749 75.1673 66.2279 72.7145 64.4571 69.853C61.3721 73.2684 59.7487 77.0661 57.4395 80.3384C57.5208 80.6335 57.6848 80.8993 57.9122 81.1045C58.1395 81.3098 58.4208 81.4461 58.723 81.4973L60.8521 79.4145H67.7879C68.7194 80.0093 68.5372 81.434 69.8146 81.4585C70.9426 80.2239 70.9405 80.2239 70.2322 79.1325ZM62.2483 77.1253C62.2483 75.5536 63.7099 74.8341 64.0436 73.5035C65.0672 74.5541 65.7203 75.7947 66.4613 77.1253H62.2483Z" fill="#F02334"/>
<path id="Vector_16" d="M0.102026 71.1833C0.486894 70.7868 0.748942 70.3392 1.39175 70.3433C4.3929 70.3678 7.39405 70.3637 10.3993 70.3433C10.776 70.3433 11.0912 70.3964 11.3369 70.6846C11.5048 70.889 11.7463 71.073 11.7873 71.2978C11.8384 71.6187 11.9183 71.9989 11.4966 72.4261H2.40714C2.12668 73.2988 2.23313 74.0612 2.2884 74.981H8.63462C9.3061 75.5492 9.26516 76.0745 8.97036 76.5303C8.839 76.7568 8.64649 76.9419 8.41483 77.0644C8.18316 77.1869 7.92167 77.2419 7.66018 77.2232C5.91395 77.1639 4.16566 77.2027 2.44194 77.2027C1.76637 78.6212 2.99672 80.3729 1.35694 81.45C0.493037 81.3029 0.0856554 80.8123 0.0958912 79.8701C0.122504 76.9677 0.102026 74.0571 0.102026 71.1833Z" fill="#F02033"/>
<path id="Vector_17" d="M33.0461 81.5403C31.6315 80.7799 31.091 79.5107 30.4421 78.4396C29.3878 76.7003 28.3806 74.9343 27.271 73.2215C26.8022 72.4959 26.2474 71.5863 26.7858 70.4724C27.3549 70.4029 27.7378 70.1127 28.3437 71.012C29.6334 72.9231 30.7758 74.9098 31.9856 76.8638C32.2047 77.2194 32.5363 77.5056 32.9191 77.943C34.5159 76.1443 35.4351 74.0452 36.6675 72.1607C37.2919 71.2041 37.6624 70.1167 39.1364 70.3845C39.4885 71.0488 39.5704 71.709 39.1712 72.3487C37.3683 75.2334 35.5532 78.1092 33.7257 80.9762C33.5947 81.1806 33.3368 81.3052 33.0461 81.5403Z" fill="#F02233"/>
<path id="Vector_18" d="M26.9877 65.5956C25.9006 64.6513 25.5547 63.5762 25.5772 62.2946C25.6181 59.3391 25.5895 56.3836 25.5895 52.9048L32.9777 65.4341C30.949 65.7673 28.9161 65.4872 26.9877 65.5956Z" fill="#467526"/>
<path id="Vector_19" d="M42.0195 70.3477C42.7524 70.5888 43.1434 71.016 43.1311 71.8561C43.0943 74.5704 43.0861 77.2868 43.1311 80.0032C43.1455 80.7595 42.7074 81.0804 42.1853 81.4687C41.3399 81.252 40.957 80.7574 40.957 79.8152C41.0021 77.188 41.0021 74.5602 40.957 71.9317C40.955 71.0978 41.3255 70.6563 42.0195 70.3477Z" fill="#F02233"/>
<path id="Vector_20" d="M26.7397 22.0822L24.0784 25.8716C23.4786 25.5528 22.8685 25.2789 22.3137 24.9192C21.5849 24.4429 21.7507 23.6254 21.9043 23.0101C22.0414 22.4624 22.5614 22.0393 23.3005 22.0699C24.4162 22.119 25.5319 22.0822 26.7397 22.0822Z" fill="#477626"/>
</g>
</svg>
