<svg width="89" height="89" viewBox="0 0 89 89" fill="none" xmlns="http://www.w3.org/2000/svg">
<g id="6pBsiK">
<path id="Vector" d="M88.4185 88.9925H0.185547V0.898926H88.4185V88.9925ZM43.434 44.9764C43.434 47.0714 43.434 49.1664 43.434 51.2615C43.434 51.6845 43.5343 51.8297 44.0072 51.8235C45.0411 51.8092 46.0769 51.8235 47.1107 51.8235C47.1891 51.8286 47.2678 51.8286 47.3462 51.8235C47.4256 51.8154 47.4996 51.7792 47.5548 51.7215C47.6099 51.6638 47.6427 51.5884 47.6471 51.5088C47.6471 51.4209 47.6471 51.333 47.6471 51.2451V46.8977C47.6471 46.8077 47.6471 46.7198 47.6471 46.6319C47.6528 46.588 47.6727 46.5471 47.7037 46.5154C47.7347 46.4837 47.7752 46.4629 47.8191 46.4562C47.8586 46.4531 47.8983 46.4531 47.9378 46.4562C48.3309 46.4562 48.7239 46.4562 49.119 46.4562C49.1729 46.452 49.2271 46.4593 49.2779 46.4776C49.3287 46.4959 49.375 46.5249 49.4138 46.5625C49.4486 46.5972 49.4875 46.6279 49.5244 46.6606C51.3341 48.2548 53.1431 49.8491 54.9514 51.4434C55.228 51.7022 55.5961 51.8412 55.975 51.8297C58.1818 51.8297 60.3887 51.8297 62.5935 51.8297H62.7716C62.8458 51.8345 62.9197 51.8162 62.9831 51.7774C63.0465 51.7386 63.0963 51.6812 63.1258 51.613L63.2342 51.4086C63.4963 50.8915 63.7563 50.3723 64.0204 49.8573C64.2108 49.4853 64.1452 49.5221 64.5792 49.5221H72.8846C72.9419 49.5221 73.0013 49.5221 73.0607 49.5221C73.1242 49.5101 73.1899 49.5218 73.2454 49.5549C73.3008 49.5881 73.3422 49.6404 73.3616 49.7019C73.3903 49.7755 73.4332 49.843 73.468 49.9063C73.7403 50.4398 74.0208 50.9712 74.2869 51.5108C74.3202 51.6201 74.3928 51.7132 74.4906 51.7725C74.5884 51.8317 74.7047 51.8528 74.8171 51.8317H78.4509C78.519 51.8357 78.5874 51.8357 78.6556 51.8317C78.7097 51.8275 78.7621 51.8105 78.8084 51.7821C78.8548 51.7538 78.8937 51.7149 78.9221 51.6686C78.9504 51.6224 78.9674 51.5701 78.9716 51.516C78.9758 51.4619 78.9671 51.4076 78.9463 51.3575C78.9153 51.2875 78.8805 51.2192 78.8419 51.1531C76.6282 46.929 74.4166 42.7049 72.207 38.4807C72.1611 38.3686 72.0801 38.2743 71.976 38.212C71.8719 38.1497 71.7504 38.1228 71.6297 38.1353C69.7176 38.1455 67.8076 38.1353 65.8976 38.1353H65.7216C65.662 38.1357 65.6036 38.1521 65.5525 38.1826C65.5014 38.2132 65.4594 38.2568 65.4309 38.309C65.3858 38.3847 65.3449 38.4644 65.3039 38.5421L59.4777 49.5078C59.4368 49.5854 59.3979 49.6651 59.3508 49.7408C59.273 49.8634 59.1788 49.8798 59.0519 49.7939C59.013 49.7653 58.9761 49.7326 58.9372 49.7019L58.6158 49.4424L53.5143 45.3034C53.4423 45.2507 53.3739 45.1934 53.3096 45.1317C53.2768 45.1013 53.2506 45.0644 53.2327 45.0235C53.2148 44.9825 53.2056 44.9383 53.2056 44.8936C53.2056 44.8489 53.2148 44.8047 53.2327 44.7637C53.2506 44.7227 53.2768 44.6859 53.3096 44.6555C53.3627 44.5974 53.4194 44.5428 53.4795 44.4919L55.5267 42.6074L59.6046 38.8425C59.6641 38.791 59.7201 38.7357 59.7725 38.677C59.8122 38.6294 59.8381 38.572 59.8477 38.5109C59.8572 38.4498 59.8499 38.3872 59.8265 38.3299C59.8032 38.2726 59.7647 38.2227 59.7152 38.1855C59.6656 38.1484 59.6069 38.1254 59.5453 38.119C59.4669 38.1139 59.3882 38.1139 59.3098 38.119H55.152C54.9033 38.1266 54.6644 38.2181 54.4744 38.3785C54.4151 38.4276 54.3598 38.4848 54.3025 38.538L51.8458 40.8905C51.072 41.6325 50.2962 42.3724 49.5264 43.1205C49.4765 43.1734 49.4157 43.2148 49.3482 43.242C49.2807 43.2691 49.2081 43.2814 49.1354 43.2778C48.7505 43.2778 48.3657 43.2778 47.9828 43.2778C47.9235 43.2809 47.8641 43.2809 47.8047 43.2778C47.7649 43.2755 47.7273 43.259 47.6987 43.2312C47.6701 43.2034 47.6525 43.1663 47.6492 43.1266C47.644 43.0381 47.644 42.9494 47.6492 42.8609V38.7178C47.6492 38.6402 47.6492 38.5604 47.6492 38.4828C47.6517 38.4359 47.6445 38.389 47.6281 38.345C47.6117 38.3011 47.5863 38.2609 47.5537 38.2272C47.521 38.1934 47.4817 38.1667 47.4383 38.1488C47.3948 38.1309 47.3481 38.1221 47.3011 38.123C47.2438 38.123 47.1844 38.123 47.1251 38.123H43.9581C43.8906 38.123 43.821 38.123 43.7534 38.123C43.674 38.1285 43.5992 38.1619 43.5422 38.2173C43.4852 38.2727 43.4498 38.3465 43.4422 38.4255C43.4371 38.5236 43.4371 38.6218 43.4422 38.7199L43.434 44.9764ZM27.982 38.119H14.3888C14.2803 38.119 14.1718 38.119 14.0633 38.119C13.9867 38.1228 13.9141 38.1537 13.8582 38.2061C13.8023 38.2585 13.7669 38.3291 13.7583 38.4051C13.7474 38.4727 13.7426 38.5411 13.7439 38.6095V40.7924C13.7419 40.8608 13.746 40.9292 13.7562 40.9968C13.7647 41.0713 13.799 41.1406 13.8532 41.1925C13.9074 41.2444 13.9781 41.2757 14.0531 41.2809C14.141 41.2861 14.2292 41.2861 14.3172 41.2809H17.1832C17.2718 41.2758 17.3607 41.2758 17.4493 41.2809C17.4717 41.2809 17.4939 41.2854 17.5145 41.2941C17.5352 41.3027 17.5538 41.3155 17.5695 41.3315C17.5851 41.3475 17.5974 41.3664 17.6056 41.3872C17.6138 41.408 17.6177 41.4303 17.6172 41.4526C17.6172 41.5507 17.6172 41.657 17.6172 41.7469V51.2185C17.6121 51.307 17.6121 51.3957 17.6172 51.4842C17.6227 51.5684 17.6592 51.6476 17.7197 51.7064C17.7802 51.7653 17.8603 51.7997 17.9447 51.8031C18.0041 51.8062 18.0635 51.8062 18.1228 51.8031H21.3144C21.373 51.8062 21.4318 51.8062 21.4904 51.8031C21.5751 51.799 21.6551 51.7634 21.7146 51.7032C21.7742 51.643 21.8089 51.5627 21.8118 51.4781C21.8118 51.4004 21.8118 51.3228 21.8118 51.2431V41.6754C21.8118 41.3238 21.8364 41.2952 22.1701 41.2932H28.0189C28.0782 41.2901 28.1376 41.2901 28.197 41.2932C28.2422 41.2937 28.2854 41.312 28.3172 41.3442C28.349 41.3763 28.3669 41.4197 28.3669 41.4649C28.3669 41.563 28.3669 41.6693 28.3669 41.7592V51.2001C28.3669 51.2901 28.3669 51.378 28.3669 51.4658C28.3666 51.5129 28.3758 51.5595 28.3938 51.6029C28.4119 51.6464 28.4386 51.6857 28.4722 51.7187C28.5057 51.7517 28.5456 51.7776 28.5894 51.7949C28.6332 51.8122 28.6801 51.8205 28.7272 51.8194C28.7763 51.8194 28.8254 51.8194 28.8746 51.8194C33.1395 51.8194 37.4044 51.8194 41.6694 51.8194C42.0788 51.8194 42.1914 51.6416 42.1853 51.3187C42.1709 50.542 42.1853 49.7653 42.1853 48.9886C42.1883 48.9294 42.1883 48.87 42.1853 48.8108C42.1812 48.7265 42.1454 48.6468 42.085 48.5877C42.0247 48.5286 41.9443 48.4944 41.8598 48.4919C41.7616 48.4868 41.6632 48.4868 41.565 48.4919H33.0958C32.9976 48.4919 32.8911 48.4919 32.801 48.4919C32.7467 48.4919 32.6947 48.4704 32.6563 48.4321C32.6179 48.3937 32.5963 48.3417 32.5963 48.2875C32.5933 48.2385 32.5933 48.1894 32.5963 48.1404V46.7525C32.5963 46.7239 32.5963 46.6933 32.5963 46.6646C32.6086 46.4725 32.6577 46.4194 32.844 46.4092C32.9218 46.4092 33.0017 46.4092 33.0795 46.4092H39.9068C39.9846 46.4092 40.0644 46.4092 40.1422 46.4092C40.1941 46.4138 40.2463 46.407 40.2954 46.3894C40.3444 46.3718 40.3889 46.3437 40.426 46.3071C40.463 46.2706 40.4916 46.2263 40.5098 46.1776C40.5279 46.1289 40.5352 46.0767 40.5312 46.0249C40.5312 45.2864 40.5312 44.5485 40.5312 43.8113C40.5322 43.8011 40.5322 43.7908 40.5312 43.7807C40.5326 43.7312 40.5238 43.6819 40.5053 43.6359C40.4868 43.59 40.459 43.5483 40.4237 43.5136C40.3883 43.4789 40.3461 43.4518 40.2998 43.4341C40.2535 43.4164 40.204 43.4084 40.1545 43.4107C40.0664 43.4107 39.9764 43.4107 39.8883 43.4107H33.0283C32.93 43.4107 32.8236 43.4107 32.7335 43.4005C32.7036 43.3975 32.6755 43.3849 32.6534 43.3647C32.6312 43.3444 32.6162 43.3175 32.6107 43.2881C32.5974 43.2208 32.5912 43.1523 32.5922 43.0837C32.5922 42.6013 32.5922 42.1196 32.5922 41.6386C32.5922 41.5977 32.5922 41.5589 32.5922 41.5201C32.6066 41.3627 32.6577 41.3157 32.8092 41.2973C32.9075 41.2973 33.0139 41.2973 33.1061 41.2973H41.5854C41.6837 41.2973 41.7902 41.2973 41.8802 41.2973C41.9397 41.2934 41.9971 41.274 42.0467 41.241C42.0963 41.208 42.1363 41.1626 42.1627 41.1092C42.1931 41.0456 42.2065 40.9752 42.2016 40.9048V38.4991C42.2027 38.4889 42.2027 38.4787 42.2016 38.4685C42.2023 38.4216 42.1933 38.3751 42.1752 38.3319C42.1572 38.2887 42.1304 38.2496 42.0967 38.217C42.0629 38.1845 42.0229 38.1592 41.979 38.1426C41.935 38.1261 41.8882 38.1188 41.8413 38.121C41.7431 38.121 41.6366 38.121 41.5465 38.121L27.982 38.119ZM9.74991 39.6887C9.74991 40.0832 9.74991 40.4756 9.74991 40.868C9.74991 41.1603 9.86865 41.2768 10.1593 41.2768H12.4317C12.8145 41.2768 12.9169 41.1706 12.9189 40.7802C12.9189 40.0525 12.9189 39.3269 12.9189 38.5993C12.9189 38.215 12.8104 38.1149 12.4235 38.1128H10.2433C10.1846 38.1098 10.1259 38.1098 10.0672 38.1128C9.98284 38.118 9.90348 38.1547 9.84504 38.2157C9.78659 38.2767 9.75335 38.3575 9.75196 38.4419C9.75196 38.5114 9.75196 38.5788 9.75196 38.6463L9.74991 39.6887Z" fill="#C8102E"/>
<path id="Vector_2" d="M43.4341 44.9762V38.7217C43.429 38.6237 43.429 38.5255 43.4341 38.4274C43.4417 38.3484 43.4771 38.2746 43.5341 38.2192C43.5911 38.1638 43.6659 38.1304 43.7453 38.1249C43.8149 38.1249 43.8845 38.1249 43.95 38.1249H47.1128C47.1722 38.1249 47.2316 38.1249 47.2889 38.1249C47.3359 38.124 47.3826 38.1328 47.426 38.1507C47.4695 38.1686 47.5088 38.1953 47.5414 38.229C47.5741 38.2628 47.5994 38.3029 47.6159 38.3469C47.6323 38.3909 47.6395 38.4378 47.6369 38.4846C47.6369 38.5623 47.6369 38.642 47.6369 38.7197V42.8505C47.6318 42.939 47.6318 43.0277 47.6369 43.1162C47.6403 43.1559 47.6579 43.193 47.6865 43.2208C47.7151 43.2486 47.7527 43.2651 47.7925 43.2675C47.8518 43.2705 47.9113 43.2705 47.9706 43.2675C48.3534 43.2675 48.7383 43.2675 49.1232 43.2675C49.1959 43.271 49.2685 43.2587 49.336 43.2316C49.4035 43.2044 49.4643 43.1629 49.5142 43.1101C50.2839 42.362 51.0598 41.6221 51.8336 40.8801L54.2902 38.5276C54.3475 38.4744 54.4028 38.4172 54.4622 38.3681C54.6522 38.2077 54.891 38.1162 55.1398 38.1086H59.2771C59.3555 38.1035 59.4342 38.1035 59.5126 38.1086C59.5742 38.115 59.6329 38.138 59.6825 38.1751C59.732 38.2123 59.7705 38.2622 59.7938 38.3195C59.8172 38.3768 59.8245 38.4394 59.815 38.5005C59.8054 38.5616 59.7794 38.619 59.7398 38.6666C59.6874 38.7253 59.6314 38.7806 59.5719 38.8321L55.494 42.597L53.4468 44.4815C53.3867 44.5324 53.33 44.587 53.2769 44.6451C53.2441 44.6755 53.2179 44.7123 53.2 44.7533C53.1821 44.7943 53.1729 44.8385 53.1729 44.8832C53.1729 44.9279 53.1821 44.9721 53.2 45.0131C53.2179 45.054 53.2441 45.0909 53.2769 45.1213C53.3412 45.183 53.4096 45.2403 53.4816 45.293L58.5811 49.4136L58.9025 49.6731C58.9414 49.7038 58.9782 49.7365 59.0171 49.7651C59.1441 49.851 59.2382 49.8346 59.316 49.712C59.3631 49.6363 59.402 49.5566 59.443 49.479L65.2692 38.5133C65.3101 38.4356 65.3511 38.3559 65.3961 38.2802C65.4246 38.228 65.4666 38.1844 65.5177 38.1538C65.5689 38.1233 65.6272 38.1069 65.6868 38.1065H65.8629C67.7749 38.1065 69.6849 38.1065 71.5949 38.1065C71.7156 38.094 71.8372 38.1209 71.9412 38.1832C72.0453 38.2455 72.1264 38.3398 72.1723 38.4519C74.3791 42.6761 76.5907 46.9002 78.8071 51.1243C78.8457 51.1905 78.8806 51.2587 78.9115 51.3287C78.9324 51.3788 78.9411 51.4331 78.9369 51.4872C78.9327 51.5413 78.9157 51.5936 78.8873 51.6398C78.859 51.6861 78.82 51.725 78.7737 51.7533C78.7274 51.7817 78.675 51.7987 78.6208 51.8029C78.5527 51.8069 78.4843 51.8069 78.4161 51.8029H74.8049C74.6925 51.824 74.5762 51.8029 74.4784 51.7437C74.3805 51.6845 74.308 51.5913 74.2747 51.482C74.0147 50.9424 73.7342 50.411 73.4558 49.8775C73.421 49.808 73.378 49.7406 73.3494 49.6731C73.33 49.6116 73.2886 49.5593 73.2331 49.5261C73.1777 49.493 73.1119 49.4813 73.0484 49.4933C72.9891 49.4933 72.9297 49.4933 72.8724 49.4933H64.5691C64.1351 49.4933 64.2006 49.4565 64.0102 49.8285C63.7461 50.3435 63.4861 50.8627 63.2241 51.3798L63.1156 51.5842C63.0862 51.6524 63.0363 51.7098 62.9729 51.7486C62.9095 51.7874 62.8356 51.8057 62.7614 51.8009H62.5833C60.3785 51.8009 58.1717 51.8009 55.9648 51.8009C55.5859 51.8124 55.2178 51.6735 54.9412 51.4146C53.1356 49.8162 51.3266 48.2219 49.5142 46.6318C49.4773 46.5991 49.4384 46.5684 49.4036 46.5337C49.3649 46.4961 49.3185 46.4672 49.2677 46.4488C49.2169 46.4305 49.1627 46.4232 49.1088 46.4274C48.7137 46.4274 48.3207 46.4274 47.9276 46.4274C47.8881 46.4243 47.8484 46.4243 47.8089 46.4274C47.765 46.4341 47.7245 46.4549 47.6935 46.4866C47.6625 46.5183 47.6426 46.5592 47.6369 46.6031C47.6369 46.691 47.6369 46.7789 47.6369 46.8689V51.2061C47.6369 51.294 47.6369 51.3819 47.6369 51.4698C47.6325 51.5494 47.5997 51.6248 47.5446 51.6825C47.4894 51.7402 47.4155 51.7764 47.336 51.7845C47.2576 51.7896 47.179 51.7896 47.1006 51.7845C46.0667 51.7845 45.0309 51.7743 43.9971 51.7845C43.5242 51.7845 43.4218 51.6455 43.4239 51.2224C43.4402 49.1662 43.4341 47.0712 43.4341 44.9762ZM68.7269 46.4989H71.2674C71.3458 46.503 71.4244 46.503 71.5028 46.4989C71.5353 46.5008 71.5677 46.4936 71.5963 46.478C71.6249 46.4624 71.6485 46.4391 71.6645 46.4108C71.6805 46.3825 71.6882 46.3503 71.6868 46.3178C71.6854 46.2853 71.6748 46.2539 71.6564 46.2271C71.5765 46.0574 71.4885 45.8939 71.4046 45.7263C70.6048 44.1497 69.803 42.5739 68.9991 40.9987C68.9623 40.9187 68.9184 40.8421 68.8681 40.7698C68.853 40.7506 68.8337 40.7352 68.8117 40.7245C68.7897 40.7139 68.7656 40.7084 68.7412 40.7084C68.7168 40.7084 68.6927 40.7139 68.6707 40.7245C68.6487 40.7352 68.6294 40.7506 68.6143 40.7698C68.5744 40.8259 68.5395 40.8854 68.5099 40.9476L65.8854 46.0922C65.8588 46.1433 65.8301 46.1964 65.8076 46.2495C65.7972 46.2746 65.7928 46.3017 65.7949 46.3288C65.797 46.3558 65.8055 46.382 65.8197 46.4051C65.8339 46.4282 65.8534 46.4477 65.8765 46.4619C65.8997 46.476 65.9259 46.4845 65.9529 46.4866C66.0313 46.4917 66.11 46.4917 66.1884 46.4866L68.7269 46.4989Z" fill="#FFFEFE"/>
<path id="Vector_3" d="M27.9822 38.119H41.5447C41.643 38.119 41.7494 38.119 41.8395 38.119C41.8864 38.1168 41.9332 38.1242 41.9771 38.1407C42.021 38.1572 42.0611 38.1825 42.0949 38.2151C42.1286 38.2476 42.1553 38.2867 42.1734 38.3299C42.1914 38.3732 42.2004 38.4197 42.1998 38.4665C42.2008 38.4767 42.2008 38.487 42.1998 38.4972V40.8865C42.2047 40.9569 42.1913 41.0273 42.1609 41.0909C42.1345 41.1442 42.0945 41.1897 42.0449 41.2227C41.9953 41.2557 41.9379 41.2751 41.8784 41.279C41.7801 41.279 41.6737 41.279 41.5836 41.279H33.1063C33.006 41.279 32.9016 41.279 32.8094 41.279C32.658 41.2892 32.6047 41.3444 32.5924 41.5018C32.5924 41.5406 32.5924 41.5794 32.5924 41.6203C32.5924 42.1013 32.5924 42.583 32.5924 43.0654C32.5915 43.1339 32.5976 43.2024 32.6109 43.2698C32.6165 43.2992 32.6314 43.3261 32.6536 43.3463C32.6757 43.3666 32.7038 43.3792 32.7337 43.3822C32.832 43.3822 32.9384 43.3924 33.0285 43.3924H39.8845C39.9725 43.3924 40.0626 43.3924 40.1506 43.3924C40.2001 43.3901 40.2496 43.3981 40.296 43.4158C40.3423 43.4335 40.3844 43.4606 40.4198 43.4953C40.4552 43.53 40.483 43.5717 40.5014 43.6176C40.5199 43.6636 40.5287 43.7128 40.5273 43.7623C40.5283 43.7725 40.5283 43.7828 40.5273 43.793C40.5273 44.5302 40.5273 45.268 40.5273 46.0066C40.5313 46.0584 40.524 46.1105 40.5059 46.1593C40.4877 46.208 40.4591 46.2522 40.4221 46.2888C40.3851 46.3254 40.3405 46.3535 40.2915 46.3711C40.2425 46.3887 40.1902 46.3955 40.1383 46.3908C40.0605 46.3908 39.9807 46.3908 39.9029 46.3908H33.0756C32.9978 46.3908 32.9179 46.3908 32.8402 46.3908C32.6539 46.4011 32.6047 46.4542 32.5924 46.6463C32.5924 46.675 32.5924 46.7056 32.5924 46.7342V48.1221C32.5894 48.1711 32.5894 48.2202 32.5924 48.2692C32.5924 48.3234 32.614 48.3754 32.6524 48.4137C32.6908 48.4521 32.7429 48.4736 32.7972 48.4736C32.8954 48.4736 33.0019 48.4736 33.092 48.4736H41.5734C41.6716 48.4685 41.77 48.4685 41.8682 48.4736C41.9527 48.4761 42.0331 48.5103 42.0935 48.5694C42.1538 48.6285 42.1896 48.7082 42.1937 48.7925C42.1967 48.8517 42.1967 48.9111 42.1937 48.9703C42.1937 49.747 42.1937 50.5237 42.1937 51.3004C42.1937 51.6233 42.0831 51.8032 41.6778 51.8011C37.4128 51.793 33.1479 51.793 28.883 51.8011C28.8338 51.8011 28.7847 51.8011 28.7356 51.8011C28.6885 51.8022 28.6416 51.7939 28.5978 51.7766C28.554 51.7593 28.5142 51.7334 28.4806 51.7004C28.447 51.6674 28.4203 51.6281 28.4022 51.5846C28.3842 51.5412 28.375 51.4946 28.3753 51.4475C28.3753 51.3596 28.3753 51.2718 28.3753 51.1818V41.7552C28.3753 41.6571 28.3753 41.5508 28.3753 41.4609C28.3753 41.4157 28.3574 41.3723 28.3256 41.3402C28.2938 41.308 28.2506 41.2897 28.2054 41.2892C28.146 41.2861 28.0866 41.2861 28.0273 41.2892H22.1928C21.8591 41.2892 21.8346 41.3198 21.8346 41.6714V51.2595C21.8346 51.3392 21.8346 51.4169 21.8346 51.4945C21.8316 51.5791 21.7969 51.6594 21.7374 51.7196C21.6778 51.7798 21.5978 51.8155 21.5132 51.8195C21.4545 51.8226 21.3958 51.8226 21.3371 51.8195H18.1333C18.074 51.8226 18.0145 51.8226 17.9552 51.8195C17.8708 51.8162 17.7906 51.7817 17.7301 51.7229C17.6697 51.664 17.6331 51.5848 17.6276 51.5007C17.6225 51.4122 17.6225 51.3235 17.6276 51.235V41.7572C17.6276 41.6591 17.6276 41.5529 17.6276 41.4629C17.6282 41.4406 17.6243 41.4183 17.6161 41.3975C17.6079 41.3767 17.5956 41.3578 17.58 41.3418C17.5643 41.3258 17.5456 41.313 17.525 41.3044C17.5043 41.2957 17.4822 41.2912 17.4598 41.2912C17.3711 41.2861 17.2823 41.2861 17.1937 41.2912H14.3276C14.2397 41.2964 14.1515 41.2964 14.0635 41.2912C13.9886 41.286 13.9179 41.2547 13.8636 41.2028C13.8094 41.1509 13.7751 41.0816 13.7667 41.0071C13.7565 40.9395 13.7524 40.8711 13.7544 40.8027V38.6096C13.7531 38.5412 13.7579 38.4728 13.7687 38.4052C13.7804 38.3317 13.8172 38.2646 13.8728 38.215C13.9283 38.1655 13.9993 38.1367 14.0738 38.1333C14.1823 38.1333 14.2908 38.1333 14.3993 38.1333L27.9822 38.119Z" fill="#FFFEFE"/>
<path id="Vector_4" d="M9.74907 39.6886V38.6666C9.74907 38.5971 9.74907 38.5297 9.74907 38.4622C9.75046 38.3778 9.7837 38.297 9.84214 38.236C9.90059 38.175 9.97994 38.1383 10.0643 38.1331C10.123 38.1301 10.1817 38.1301 10.2404 38.1331H12.4268C12.8137 38.1331 12.9201 38.2353 12.9222 38.6196C12.9222 39.3472 12.9222 40.0728 12.9222 40.8005C12.9222 41.1909 12.8178 41.2951 12.435 41.2971H10.1626C9.86781 41.2849 9.75317 41.1745 9.75317 40.8884C9.74498 40.4755 9.74907 40.0831 9.74907 39.6886Z" fill="#FFFEFE"/>
<path id="Vector_5" d="M68.7274 46.499H66.1889C66.1105 46.5041 66.0319 46.5041 65.9535 46.499C65.9264 46.4969 65.9002 46.4884 65.877 46.4742C65.8539 46.46 65.8344 46.4406 65.8202 46.4175C65.806 46.3943 65.7975 46.3682 65.7954 46.3411C65.7933 46.3141 65.7977 46.2869 65.8081 46.2619C65.8306 46.2087 65.8593 46.1556 65.8859 46.1045L68.5104 40.9599C68.54 40.8978 68.5749 40.8383 68.6148 40.7821C68.6299 40.763 68.6492 40.7475 68.6712 40.7369C68.6932 40.7262 68.7173 40.7207 68.7417 40.7207C68.7661 40.7207 68.7902 40.7262 68.8122 40.7369C68.8342 40.7475 68.8535 40.763 68.8686 40.7821C68.9189 40.8544 68.9628 40.931 68.9997 41.011C69.8021 42.5876 70.6039 44.1635 71.4051 45.7386C71.489 45.9062 71.577 46.0698 71.6569 46.2394C71.6753 46.2662 71.6859 46.2976 71.6873 46.3301C71.6888 46.3626 71.681 46.3948 71.665 46.4231C71.649 46.4515 71.6254 46.4747 71.5968 46.4903C71.5682 46.5059 71.5358 46.5131 71.5033 46.5113C71.4249 46.5153 71.3463 46.5153 71.2679 46.5113L68.7274 46.499Z" fill="#C91330"/>
</g>
</svg>
