<svg width="215" height="88" viewBox="0 0 215 88" fill="none" xmlns="http://www.w3.org/2000/svg">
<g id="repse-02 1" clip-path="url(#clip0_23_2731)">
<path id="Vector" d="M0.121623 4.26368C-0.111317 3.00369 0.07198 1.73224 0.0185183 0.468431C-0.000575169 0.135749 0.140716 0.00955982 0.467215 0.0286794C0.751707 0.0477991 1.04002 0.0286794 1.32451 0.0286794C71.6495 0.0312287 141.973 0.0216689 212.296 0C213.216 0 214.014 0.208404 214.587 0.764785C215.19 1.34985 215.043 2.34598 214.745 3.00561C214.539 3.45874 214.488 4.49694 213.455 4.26177L0.503492 4.25603C0.381294 4.25603 0.24764 4.26177 0.121623 4.26368Z" fill="#01474F"/>
<path id="Vector_2" d="M44.8412 15.0319C45.5724 15.0319 46.3094 15.0854 47.035 15.0319C50.531 14.7355 53.9831 15.3168 57.4409 15.6055C59.4992 15.7718 61.3093 16.875 63.0869 18.0126C64.4902 18.9113 65.527 20.1598 66.497 21.3471C67.3969 22.4488 68.0325 23.7427 68.3547 25.129C68.7519 26.8765 68.7137 28.5705 68.8053 30.2913C68.8855 31.796 68.3509 33.1592 67.8049 34.4708C66.9857 36.4306 65.5308 38.0347 63.8811 39.3004C63.337 39.7191 62.8005 40.2889 62.1207 40.6197C61.716 40.8109 61.8381 41.3845 62.0749 41.7669C62.9456 43.1817 63.6024 44.7151 64.5571 46.0879C65.3208 47.1701 65.8936 48.3937 66.5122 49.56C67.2435 50.9175 68.0168 52.2578 68.7538 53.6134C69.6493 55.2615 70.4245 57.0186 71.6656 58.4181C72.2231 59.0453 72.4293 60.0854 73.4489 60.3014C73.5004 60.3129 73.5463 60.5251 73.5329 60.6341C73.4947 60.9133 73.256 60.8253 73.0861 60.8253C71.908 60.8253 70.7319 60.8253 69.5538 60.8253C68.1218 60.8253 66.6898 60.7469 65.2616 60.8444C63.9251 60.9381 63.232 60.5653 62.7279 59.1753C62.2487 57.8522 61.1603 56.7414 60.5913 55.403C59.7665 53.4662 58.3345 51.8811 57.4906 49.9711C56.6104 47.9788 55.1994 46.2906 54.3841 44.262C53.9277 43.1148 53.1468 42.4246 51.711 42.6311C50.5883 42.7936 49.4198 42.675 48.2742 42.6578C47.8064 42.6578 47.6078 42.7898 47.6097 43.3098C47.6288 47.4836 47.5257 51.6594 47.6613 55.8293C47.7243 57.7279 48.6904 59.3206 50.4814 60.2555C50.6437 60.3397 50.8537 60.4372 50.8021 60.659C50.741 60.9152 50.4928 60.8234 50.3229 60.8234C45.7099 60.8234 41.0969 60.8234 36.4839 60.8234C36.2567 60.8234 35.9264 60.9419 35.9111 60.5328C35.894 60.1733 36.1995 60.3014 36.3847 60.2345C37.3489 59.8865 37.9427 59.1179 38.3799 58.2652C38.7332 57.575 38.7618 56.7356 39.3671 56.1448C39.6019 55.9211 39.5045 55.598 39.5064 55.3227C39.5064 43.9178 39.5733 32.513 39.4377 21.0985C39.4243 19.9017 39.2468 18.4218 38.1012 17.3148C37.4157 16.6475 37.0587 15.6494 35.9722 15.4257C35.9405 15.4235 35.9098 15.4133 35.8829 15.3961C35.8561 15.3789 35.834 15.3552 35.8186 15.3273C35.8033 15.2994 35.7951 15.268 35.7949 15.2361C35.7947 15.2042 35.8025 15.1728 35.8176 15.1447C35.8691 14.9745 36.0085 15.0147 36.1326 15.0147C36.8009 15.0147 37.4692 15.0147 38.1374 15.0147H44.8202L44.8412 15.0319ZM47.7224 28.7426C47.7224 30.9394 47.7338 33.1401 47.7224 35.335C47.7224 36.0807 47.9629 36.4535 48.7725 36.4268C50.9549 36.3598 53.1392 36.3675 55.3215 36.2814C57.5918 36.1916 58.7832 34.7519 59.6959 33.2223C60.6112 31.68 60.9717 29.8704 60.7174 28.0944C60.5952 27.2684 60.5589 26.3392 60.1446 25.6662C59.65 24.8632 59.2949 23.9455 58.6304 23.2571C57.6357 22.2342 56.4843 21.37 55.0027 21.2974C52.9024 21.1922 50.8117 21.2477 48.7152 21.1769C47.9515 21.1502 47.7052 21.414 47.7147 22.152C47.7338 24.3489 47.7224 26.5457 47.7224 28.7426Z" fill="#333332"/>
<path id="Vector_3" d="M197.826 15.0318H212.337C213.526 15.0318 213.71 15.3071 213.82 16.4485C214.069 19.0182 211.665 21.3871 209.047 21.3068C204.342 21.1634 199.63 21.2782 194.918 21.2533C194.24 21.2533 194.011 21.3929 194.021 22.1366C194.065 26.0243 194.065 29.9119 194.021 33.7996C194.011 34.5816 194.265 34.7384 194.975 34.7346C200.066 34.7116 205.156 34.7231 210.25 34.7346C212.003 34.7346 212.024 34.834 212.112 36.5452C212.194 38.134 211.564 39.2984 210.344 40.2142C209.408 40.9178 208.301 40.9561 207.206 40.9618C203.164 40.9771 199.124 40.9848 195.084 40.9618C194.32 40.9618 194.003 41.0689 194.019 41.9752C194.084 45.7991 194.07 49.623 194.019 53.4469C194.019 54.2328 194.192 54.4584 194.998 54.4545C200.978 54.4182 206.96 54.4545 212.946 54.4144C213.826 54.4144 214.013 54.7452 213.941 55.508C213.84 56.5845 214.151 57.7144 213.467 58.7106C212.871 59.5824 212.018 60.026 211.046 60.3491C207.833 61.4122 204.533 60.7602 201.28 60.8271C195.428 60.9476 189.574 60.8615 183.714 60.8615C183.459 60.8761 183.204 60.8684 182.95 60.8386C182.828 60.8156 182.729 60.6684 182.62 60.5766C182.692 60.4759 182.78 60.387 182.879 60.3128C184.714 59.3358 185.744 57.9439 185.724 55.7241C185.675 43.7456 185.702 31.7672 185.686 19.7887C185.682 17.7812 184.604 16.4218 182.916 15.4868C182.752 15.397 182.377 15.5537 182.461 15.1847C182.526 14.8903 182.843 15.0337 183.034 15.0337C185.771 15.0248 188.508 15.0248 191.244 15.0337L197.826 15.0318Z" fill="#333332"/>
<path id="Vector_4" d="M91.6918 15.0319H105.913C107.497 15.0319 107.631 15.1714 107.644 16.7526C107.665 17.4925 107.507 18.2263 107.184 18.892C106.861 19.5576 106.382 20.1355 105.789 20.5766C104.983 21.1941 103.896 21.2668 102.856 21.2629C98.2428 21.2629 93.6298 21.2744 89.0168 21.2457C88.3027 21.2457 88.0469 21.3891 88.0621 22.1711C88.108 26.0256 88.108 29.8802 88.0621 33.7347C88.0621 34.5205 88.2359 34.748 89.0435 34.7423C94.4203 34.7021 99.797 34.7423 105.174 34.6964C105.949 34.6964 106.109 34.9277 106.237 35.6734C106.514 37.312 105.832 38.7039 104.964 39.8319C104.454 40.4954 103.268 40.8778 102.205 40.8816C97.88 40.9007 93.5534 40.9619 89.2211 40.9237C88.2473 40.9237 88.0335 41.1818 88.0488 42.1263C88.1099 45.8527 88.0984 49.5829 88.0488 53.3074C88.0488 54.1411 88.2034 54.4298 89.1104 54.4221C94.932 54.3781 100.757 54.4374 106.577 54.3705C107.637 54.359 107.809 54.7529 107.763 55.6171C107.7 56.7299 107.996 57.8962 107.19 58.8789C106.128 60.1599 104.849 60.8654 103.114 60.8559C95.3826 60.8119 87.6478 60.8348 79.9207 60.8329C78.966 60.8329 78.0113 60.8329 77.0567 60.8329C76.8046 60.8329 76.4839 60.8329 76.4839 60.5366C76.4839 60.3167 76.776 60.2785 77.0089 60.2326C78.0075 60.0414 78.4314 59.1427 78.8591 58.4143C79.8806 56.6782 80.0276 54.7395 80.0181 52.73C79.9722 42.0632 80.0009 31.3906 80.0009 20.718C80.0009 19.7143 79.5445 18.8214 79.0939 17.9744C78.8915 17.592 78.9393 17.1561 78.5841 16.7928C77.9999 16.1924 77.3927 15.701 76.5927 15.4544C76.4323 15.4085 76.27 15.397 76.3139 15.1772C76.3464 15.0166 76.4934 15.0299 76.6156 15.0261C76.839 15.0261 77.0624 15.0261 77.2839 15.0261L91.6918 15.0319Z" fill="#333332"/>
<path id="Vector_5" d="M111.977 15.2459C112.255 14.9132 112.597 15.0375 112.889 15.0356C118.138 15.0356 123.404 14.7794 128.628 15.135C131.215 15.3109 134.033 15.2076 136.422 16.546C138.578 17.7525 140.764 18.9054 142.402 20.9627C143.183 21.9435 143.991 22.9836 144.43 24.0371C144.966 25.3257 145.533 26.7387 145.528 28.2319C145.528 29.1879 145.644 30.163 145.499 31.0999C145.251 32.6868 144.983 34.3062 144.403 35.7861C144.224 36.245 143.639 36.7956 143.322 37.3539C142.654 38.5393 141.694 39.4896 140.724 40.3786C139.92 41.1166 138.814 41.5029 137.881 42.1243C136.208 43.2504 134.253 43.2963 132.401 43.7743C129.795 44.4473 127.232 44.0228 124.66 44.1911C123.967 44.237 123.78 44.4186 123.788 45.126C123.83 48.7263 123.805 52.3265 123.807 55.9248C123.807 57.6628 125.174 59.6168 126.847 60.2688C127.015 60.3338 127.127 60.4026 127.112 60.5881C127.097 60.7735 126.95 60.8366 126.778 60.8366H126.3H113.034C112.725 60.8366 112.242 60.9341 112.2 60.6034C112.145 60.1827 112.685 60.372 112.912 60.221C114.016 59.5327 114.665 58.5155 115.203 57.3167C115.765 56.0701 115.696 54.8312 115.696 53.5597C115.696 42.3785 115.696 31.1897 115.728 20.0162C115.728 19.3604 115.425 18.9321 115.142 18.4867C114.527 17.5192 114.405 16.2229 113.115 15.6665C112.757 15.5269 112.309 15.6531 111.977 15.2459ZM123.815 29.6334V36.1341C123.815 38.6062 123.549 38.3596 126.106 38.4609C128.128 38.5412 130.073 38.2143 132.025 37.851C132.213 37.827 132.395 37.7617 132.555 37.6598C133.558 36.9046 134.671 36.2526 135.397 35.2029C136.031 34.2852 136.712 33.333 137.048 32.291C137.337 31.3886 137.239 30.3332 137.184 29.3543C137.113 28.1899 137.298 26.9834 136.563 25.9013C136.22 25.3965 135.609 25.0982 135.431 24.5342C134.778 22.498 132.876 21.7886 131.271 21.4177C129.122 20.9206 126.787 21.2265 124.534 21.1997C124.013 21.1997 123.782 21.3775 123.792 21.9913C123.836 24.538 123.809 27.0867 123.809 29.6353L123.815 29.6334Z" fill="#333332"/>
<path id="Vector_6" d="M148.751 26.0448L148.831 23.9416C149.57 23.9684 149.278 23.4044 149.344 23.0468C149.173 22.2132 149.826 21.6626 150.108 21.0087C151.164 18.5843 153.589 17.5538 155.493 15.9955C155.857 15.6973 156.407 15.8196 156.886 15.6131C157.982 15.1466 159.147 14.682 160.411 14.9459C160.804 14.8235 161.471 15.3282 161.537 14.4526C164.554 14.4322 167.571 14.4118 170.588 14.3914C172.4 14.3914 174.216 14.4679 176.022 14.3589C177.102 14.292 177.261 14.8598 176.999 15.5653C176.572 16.7221 176.218 18.0146 175.18 18.7774C173.996 19.6474 172.826 20.4982 171.126 20.3988C168.467 20.2305 165.79 20.3491 163.122 20.3452C162.74 20.4007 162.156 20.0317 162.141 20.829C160.275 21.0756 158.49 21.5937 157.621 23.4292C156.821 25.1271 156.182 26.888 157.43 28.7598C158.029 29.6603 158.849 30.3913 159.811 30.8821C160.434 31.2186 160.938 31.838 161.652 32.1937C162.606 32.6677 163.585 33.0902 164.585 33.4594C165.687 33.8628 166.853 34.1802 167.831 34.7844C168.785 35.3714 169.876 35.6581 170.783 36.3426C172.583 37.702 174.519 38.8282 175.938 40.7134C177.763 43.0605 178.651 46.0029 178.431 48.9692C178.31 51.06 177.591 53.0717 176.36 54.7644C175.233 56.294 173.822 57.5941 171.985 58.4354C169.973 59.3588 168.045 60.3913 165.748 60.267C165.202 60.3053 164.644 60.1638 164.107 60.355C163.369 61.1982 162.418 60.7546 161.545 60.7737C161.581 60.332 161.312 60.2536 160.951 60.2632C160.451 60.2766 159.949 60.2747 159.447 60.2804C158.4 60.2651 157.156 60.5997 156.352 60.1542C155.176 59.5061 153.87 60.0204 152.724 59.2747C152.222 58.9459 151.141 58.7489 150.49 59.5481C150.311 59.7718 150.085 59.659 149.881 59.6953C149.308 59.724 149.331 59.3263 149.329 58.9306C149.329 57.7623 149.312 56.5941 149.3 55.4259C149.281 53.8792 149.785 53.4451 151.305 53.3419C153.037 53.2522 154.772 53.4315 156.449 53.8734C157.665 54.1736 158.866 54.1545 160.052 54.3954C160.052 55.1831 160.636 54.8179 161.007 54.8829C161.099 54.8576 161.194 54.8479 161.289 54.8543C162.874 55.2175 164.331 54.4604 165.809 54.1736C167.024 53.9153 168.103 53.2235 168.846 52.2272C169.912 50.7512 170.517 49.0667 170.082 47.2217C169.933 46.5946 169.484 46.0229 169.049 45.4875C167.899 44.0761 166.423 42.9664 164.749 42.2544C163.283 41.6369 161.837 40.8969 160.247 40.505C159.209 40.2128 158.238 39.7177 157.392 39.0481C156.82 38.6274 156.096 38.4458 155.483 38.0921C153.012 36.6715 150.92 34.771 149.659 32.2396C149.1 31.1172 148.355 29.7942 148.76 28.3392C148.755 27.5744 148.752 26.8096 148.751 26.0448Z" fill="#01474F"/>
<path id="Vector_7" d="M0.123047 4.26367C0.249064 4.26367 0.37699 4.26367 0.504916 4.26367H213.452C213.405 4.66518 213.156 4.7474 212.788 4.73975C212.024 4.72063 211.26 4.75122 210.497 4.75122C140.723 4.75122 70.9502 4.74357 1.17892 4.72828C0.831414 4.72445 0.145959 5.15082 0.123047 4.26367Z" fill="#333332"/>
<path id="Vector_8" d="M52.7891 73.4366C52.7891 74.1689 52.8044 74.9011 52.7891 75.6315C52.7605 76.6984 52.1647 77.2911 51.0879 77.3102C50.2325 77.3255 49.3695 77.3102 48.5198 77.2796C48.1016 77.2662 47.7274 76.9794 47.7561 76.6219C47.7962 76.1822 48.2238 76.2605 48.6134 76.2892C49.3351 76.3408 50.0473 76.4804 50.7881 76.4212C51.3704 76.381 51.5232 75.9661 51.7275 75.6392C51.9032 75.3581 51.7962 75.1459 51.3036 75.144C50.3279 75.144 49.3389 75.4269 48.3575 74.8514C47.9756 74.6296 47.9336 74.3715 47.7962 74.1058C47.2959 73.1498 47.4601 71.2531 48.2525 70.6528C49.0449 70.0524 50.0759 70.4118 51.0039 70.4004C51.1127 70.4004 51.2349 70.5763 51.3284 70.5591C51.8153 70.4673 52.4244 70.0084 52.7356 70.5954C52.9609 71.0199 52.7929 71.6546 52.7967 72.1957C52.7967 72.6087 52.7967 73.0217 52.7967 73.4366H52.7891ZM50.116 74.0235C51.0191 74.0235 51.7466 73.5016 51.781 72.8133C51.8211 72.0389 51.065 71.3067 50.2191 71.3009C48.9246 71.2914 48.6229 71.5705 48.5675 72.8133C48.5332 73.4805 49.2205 74.0178 50.1103 74.0235H50.116Z" fill="#01474F"/>
<path id="Vector_9" d="M117.772 85.9294C115.936 85.9676 115.197 85.4437 115.174 84.0881C115.096 83.7478 115.388 83.1895 114.668 83.2297C114.368 82.2737 114.893 81.5089 115.386 80.8225C116.577 79.1821 118.563 78.8475 120.362 79.8665C122.552 81.1131 122.653 84.4744 120.482 85.7783C120.123 85.9963 119.565 85.8835 119.099 85.9236L117.772 85.9294ZM120.577 82.0768C120.36 81.2279 119.323 80.5281 118.286 80.5338C116.988 80.5338 116.549 80.8741 116.264 82.0634C115.85 82.0194 115.733 82.2374 115.737 82.6159C115.741 82.9945 115.812 83.2316 116.249 83.1761C116.392 84.2468 117.37 85.2506 118.278 85.2602C119 85.2602 120.463 83.9505 120.587 83.18C121.022 83.2297 121.078 82.9677 121.079 82.6178C121.081 82.268 120.997 82.0232 120.577 82.0768Z" fill="#01474F"/>
<path id="Vector_10" d="M57.7212 74.5799C58.2596 74.5799 58.7962 74.5799 59.3346 74.5799C59.6115 74.5799 59.8215 74.5608 59.8196 74.186C59.8196 73.8572 59.7126 73.7845 59.3957 73.6316C58.6511 73.2721 57.7174 73.3467 57.1293 72.6507C57.1293 72.1307 57.1389 71.6106 57.1446 71.0887C57.2553 70.4443 57.7288 70.387 58.2616 70.3411C59.3041 70.2512 60.3313 70.4634 61.3795 70.4137C62.2693 70.3717 62.4717 69.9338 62.5461 69.2302H63.3652C63.5122 69.7675 63.3137 70.5915 64.3619 70.3678C64.4175 70.3639 64.4732 70.3722 64.5253 70.3922C64.5773 70.4121 64.6243 70.4432 64.6631 70.4833C64.7018 70.5234 64.7314 70.5715 64.7496 70.6242C64.7678 70.6769 64.7743 70.733 64.7686 70.7885C64.7113 71.0428 64.5147 71.3238 64.1843 71.2703C63.392 71.1422 63.3996 71.6221 63.4321 72.1746C63.4579 72.6204 63.4579 73.0673 63.4321 73.513C63.3901 74.2778 63.7185 74.6277 64.4937 74.5914C64.7113 74.5818 65.0245 74.4174 65.1447 74.7711C65.2478 75.0713 64.992 75.2147 64.8392 75.4116C64.3963 75.9852 63.7356 75.8418 63.2659 75.6907C63.0354 75.6115 62.8347 75.4631 62.6913 75.2658C62.5478 75.0684 62.4685 74.8316 62.464 74.5875C62.464 73.6985 62.4507 72.8075 62.4316 71.9108C62.4316 71.6833 62.4984 71.2435 62.1452 71.3716C61.5934 71.5743 61.2993 70.4577 60.7781 71.1498C60.5012 71.5169 60.1881 71.3238 59.9265 71.2856C59.4643 71.1871 58.9869 71.1832 58.5231 71.2741C58.2596 71.341 57.9751 71.341 58.063 71.7024C58.1355 72.0007 58.0515 72.4461 58.5919 72.4385C58.9413 72.4385 59.2945 72.5131 59.6382 72.4786C60.4764 72.3926 60.7284 72.9069 60.7953 73.5838C60.8697 74.3352 60.8067 74.8992 59.9723 75.4135C58.7427 76.1783 57.853 75.1286 56.7933 75.1592C56.3961 75.1707 56.566 74.8132 56.6329 74.5856L57.7212 74.5799Z" fill="#01474F"/>
<path id="Vector_11" d="M34.6928 75.19C34.5019 73.1327 34.6603 71.0697 34.6107 69.0105C34.5973 68.4675 34.9926 68.4675 35.3324 68.5344C36.1776 68.6727 37.0373 68.6978 37.889 68.609C38.8246 68.544 39.6437 68.9378 40.0695 69.565C40.8772 70.7599 40.7531 71.9396 39.7736 72.8153C39.2008 73.3277 39.302 73.6413 39.7296 73.972C40.0084 74.1881 39.8748 74.4194 39.9588 74.6297C40.0523 75.2224 39.4853 75.1402 39.2141 75.3601C38.7062 73.9835 37.7382 73.3984 36.2852 73.6393C35.8728 73.603 35.7009 73.8305 35.7639 74.1976C35.9186 75.1249 35.4088 75.2626 34.6928 75.19ZM39.0843 71.3393C39.449 71.3756 39.5731 71.1978 39.5654 70.8479C39.5654 70.4655 39.3344 70.389 39.0194 70.41C38.8811 70.3541 38.7555 70.2707 38.6502 70.1649C38.5448 70.0591 38.462 69.9331 38.4065 69.7944C38.1315 68.6816 37.2609 69.4273 36.6881 69.2801C36.1153 69.1329 35.7334 69.6472 35.7964 70.1213C35.8823 70.9091 35.2389 71.8536 36.2145 72.4788C36.2375 72.4922 36.2775 72.4788 36.3081 72.4788C36.716 72.4593 37.1246 72.4638 37.532 72.4922C38.4447 72.6011 38.922 72.1901 39.09 71.3393H39.0843Z" fill="#01474F"/>
<path id="Vector_12" d="M129.532 75.1803C129.041 75.2759 128.487 75.0292 128.098 75.6487C127.907 75.947 127.367 75.7673 127.017 75.6774C126.254 75.4862 125.219 74.0025 125.186 73.211C125.165 72.7139 125.096 72.1594 125.163 71.7273C125.27 71.0313 126.036 70.6891 126.672 70.4023C126.912 70.2952 127.233 70.3641 127.519 70.3602C128.092 70.3488 128.766 70.5342 129.194 70.2838C129.622 70.0333 129.318 69.2895 129.37 68.7676C129.419 68.2838 129.666 68.2188 130.068 68.236C130.41 68.2513 130.674 68.236 130.658 68.7236C130.595 70.8765 130.754 73.0312 130.571 75.1822L129.532 75.1803ZM126.437 72.8458C126.437 73.993 126.918 74.5761 127.854 74.5666C128.665 74.5551 129.444 73.7788 129.448 72.9758C129.452 72.1728 128.619 71.2818 127.834 71.2703C126.731 71.2531 126.439 71.582 126.437 72.8458Z" fill="#01474F"/>
<path id="Vector_13" d="M174.938 69.7733C174.661 69.8593 174.365 69.9281 174.138 69.6987C173.342 68.8918 172.61 69.3717 172.001 69.8899C171.721 70.1346 171.188 70.7484 172.183 71.0543C172.521 71.1575 172.885 71.2665 173.225 71.4061C173.389 72.3525 174.149 71.7235 174.594 71.9261C175.549 72.2512 175.576 73.0159 175.576 73.8496C175.576 74.6143 175.091 74.9145 174.552 75.2778C173.135 76.2338 171.81 75.5015 170.478 75.1C169.981 74.9508 170.243 74.4805 170.38 74.2167C170.518 73.9528 170.779 73.7023 171.125 74.1096C171.826 74.9317 172.777 74.5283 173.607 74.492C173.811 74.458 173.997 74.3532 174.132 74.1959C174.267 74.0387 174.343 73.839 174.346 73.6316C174.373 73.1307 173.964 73.2167 173.76 73.0255C173.059 72.3773 172.124 72.5093 171.348 72.1307C170.682 71.8057 170.354 71.2397 170.378 70.6623C170.397 70.1709 170.363 69.6279 170.991 69.1079C172.316 68.0142 173.588 68.4674 174.932 68.7045C174.94 69.0677 174.938 69.4195 174.938 69.7733Z" fill="#01474F"/>
<path id="Vector_14" d="M93.8654 75.188C93.8406 73.1556 93.8253 71.1231 93.7871 69.0907C93.7871 68.6835 93.9628 68.6223 94.3045 68.628C95.3547 68.6414 96.4048 68.628 97.4511 68.628C98.2149 68.628 98.9977 69.0621 99.2307 69.5725C99.5953 70.3737 100.117 71.2359 99.3108 72.3239C98.2512 73.7559 96.8764 73.5953 95.4731 73.6622C95.0625 73.6259 94.8831 73.8362 94.948 74.2186C95.1065 75.1402 94.5833 75.2625 93.8654 75.188ZM97.5905 69.8039C97.327 68.7026 96.4659 69.4311 95.8988 69.2781C95.4253 69.15 94.9079 69.4693 94.9881 69.9569C95.1256 70.7981 94.3656 71.8038 95.4081 72.4806C95.4311 72.4959 95.4711 72.4806 95.5017 72.4806C95.8457 72.4525 96.1915 72.457 96.5347 72.494C97.5848 72.7024 98.1538 72.0543 98.5777 71.2952C99.055 70.4425 97.9266 70.5304 97.7318 70.0352C97.6909 69.9545 97.6437 69.8771 97.5905 69.8039Z" fill="#01474F"/>
<path id="Vector_15" d="M202.072 85.8893H201.085H199.926C199.53 86.0046 199.104 85.9605 198.74 85.7662C198.375 85.5719 198.101 85.2429 197.975 84.8492C197.696 84.0557 197.507 83.0519 198.12 82.2279C199.014 81.0253 200.22 80.6983 201.5 81.3159C201.941 81.53 201.998 81.3541 202.007 81.0138C202.023 80.4402 202.04 79.8666 202.007 79.293C201.983 78.8437 202.198 78.7558 202.58 78.7844C202.89 78.8074 203.222 78.7041 203.207 79.2299C203.138 81.4459 203.317 83.6676 203.115 85.8817L202.072 85.8893ZM200.476 82.0654C199.462 82.0558 198.807 82.639 198.804 83.5701C198.79 84.006 198.949 84.4296 199.247 84.7484C199.544 85.0671 199.955 85.2553 200.39 85.2717C201.127 85.2832 201.983 84.3808 202 83.572C202.023 82.5778 201.505 82.0673 200.482 82.0577L200.476 82.0654Z" fill="#01474F"/>
<path id="Vector_16" d="M82.7421 75.1842C82.3984 75.1632 82.0585 75.1651 81.7626 75.3754C81.4379 75.2238 81.084 75.1453 80.7258 75.1453C80.3676 75.1453 80.0137 75.2238 79.689 75.3754C78.0928 74.5494 78.0432 73.081 78.3926 71.6566C78.4995 71.213 78.9654 70.3412 79.8723 70.3833C80.5979 70.4158 81.354 70.2857 82.0433 70.4483C82.6542 70.5936 82.6943 70.3641 82.702 69.9282C82.7096 69.4923 82.7192 69.1041 82.702 68.6931C82.6886 68.368 82.8013 68.2227 83.1354 68.2476C83.4103 68.2667 83.733 68.1788 83.7177 68.63C83.6528 70.8096 83.8552 72.9931 83.6204 75.1708L82.7421 75.1842ZM79.4962 72.7464C79.4847 73.6451 80.2141 74.5513 80.9626 74.5704C81.711 74.5896 82.7039 73.603 82.7134 72.8344C82.7249 71.6872 82.322 71.3048 81.1096 71.3048C79.7482 71.301 79.5038 71.5209 79.4885 72.7464H79.4962Z" fill="#01474F"/>
<path id="Vector_17" d="M34.6895 85.9046C34.6647 83.876 34.6475 81.8474 34.6074 79.8188C34.6074 79.4078 34.7984 79.358 35.1287 79.3619C36.4652 79.3733 37.8018 79.3829 39.1268 79.3619C39.5908 79.3523 39.6328 79.5779 39.629 79.9355C39.6252 80.293 39.629 80.5492 39.1498 80.5358C38.2314 80.509 37.3091 80.5626 36.3908 80.5358C35.7588 80.5186 35.7969 80.9029 35.7893 81.3369C35.7817 81.7709 35.8351 82.0367 36.3812 82.0558C37.2633 82.0864 38.1531 81.9392 39.0276 82.1419C39.0276 82.4688 39.0276 82.7977 39.0276 83.1265C38.2466 83.3368 37.4523 83.2049 36.6638 83.2068C36.0356 83.2068 35.7473 83.398 35.795 84.0749C35.839 84.7058 35.7817 85.31 36.7039 85.266C37.4963 85.2278 38.2925 85.266 39.0867 85.266C39.5469 85.266 39.8868 85.3387 39.5297 85.9027L34.6895 85.9046Z" fill="#01474F"/>
<path id="Vector_18" d="M158.881 85.9045C158.005 85.7764 157.638 86.0957 157.76 87.0249C157.802 87.3384 158.142 87.9809 157.313 88C156.403 88.021 156.819 87.3423 156.809 86.9847C156.767 85.2391 156.788 83.4897 156.788 81.744C156.788 81.4056 156.744 80.8798 157.262 81.1112C158.184 81.5242 159.026 80.9773 159.92 81.0653C161.256 81.1972 161.928 81.6943 162.146 82.9926C162.377 84.3749 161.785 85.4628 160.571 85.8854L158.881 85.9045ZM159.582 82.0595C158.604 82.0461 157.806 82.7708 157.797 83.6809C157.805 84.0893 157.966 84.4795 158.25 84.7735C158.533 85.0674 158.917 85.2433 159.324 85.2659C159.897 85.2659 160.939 84.2984 160.972 83.7248C161.02 82.8147 160.401 82.0729 159.582 82.0595Z" fill="#01474F"/>
<path id="Vector_19" d="M123.252 85.8931C123.005 83.6752 123.227 81.4497 123.139 79.2299C123.118 78.6946 123.483 78.8265 123.781 78.8017C124.162 78.7711 124.372 78.8456 124.353 79.3045C124.319 79.9985 124.353 80.6964 124.353 81.4287C126.013 80.7366 127.389 80.9641 128.237 82.6982C128.789 83.8225 128.224 84.4955 127.855 85.2507C127.426 86.1436 126.454 85.9753 125.631 85.9639C125.188 85.9639 124.745 85.9142 124.294 85.8874L123.252 85.8931ZM124.34 83.5529C124.34 84.7995 124.705 85.2736 125.638 85.2622C126.322 85.2622 127.357 84.1877 127.319 83.5223C127.277 82.7575 126.471 82.0577 125.617 82.0577C124.594 82.0558 124.334 82.3598 124.34 83.5529Z" fill="#01474F"/>
<path id="Vector_20" d="M156.992 75.3848C155.945 75.3141 155.147 74.4288 155.036 73.404C154.926 72.3792 155.266 71.5227 155.844 70.7177C155.98 70.5265 156.108 70.385 156.363 70.3889C157.154 70.3984 157.992 70.234 158.723 70.4443C159.497 70.6642 159.451 70.3124 159.46 69.8325C159.46 69.4501 159.474 69.0677 159.46 68.6853C159.447 68.366 159.558 68.213 159.894 68.2398C160.171 68.2628 160.486 68.1863 160.467 68.6432C160.386 70.8229 160.606 73.0063 160.35 75.1821H159.485C159.103 74.9126 158.825 75.2777 158.504 75.3733C157.996 75.012 157.494 75.2357 156.992 75.3848ZM159.459 72.9356C159.478 71.6909 159.101 71.3104 157.843 71.3047C156.978 71.3047 156.257 71.9395 156.239 72.7272C156.216 73.7138 156.929 74.5646 157.778 74.5665C158.628 74.5684 159.447 73.7501 159.459 72.9356Z" fill="#01474F"/>
<path id="Vector_21" d="M146.18 85.9083C145.966 83.8797 146.143 81.8453 146.08 79.8148C146.071 79.4955 146.174 79.3617 146.512 79.3636C147.816 79.3751 149.12 79.3846 150.424 79.3636C150.924 79.3521 150.878 79.6428 150.896 79.9735C150.915 80.3464 150.856 80.5643 150.395 80.5471C149.538 80.5146 148.677 80.5701 147.822 80.5261C147.13 80.4917 147.268 80.9372 147.249 81.3368C147.23 81.7364 147.167 82.1111 147.783 82.0748C148.4 82.0384 149.055 82.0748 149.693 82.0614C150.055 82.0614 150.384 82.0155 150.355 82.5757C150.33 83.0269 150.266 83.2965 149.723 83.2372C149.31 83.2152 148.897 83.2152 148.484 83.2372C147.321 83.2372 146.896 83.8969 147.295 84.9982C147.426 85.3633 147.676 85.2658 147.906 85.2716C148.733 85.2869 149.56 85.2869 150.388 85.2716C150.882 85.2716 151.031 85.4513 150.81 85.9044L146.18 85.9083Z" fill="#01474F"/>
<path id="Vector_22" d="M90.7598 85.8873C89.7803 85.9255 88.8027 86.0498 87.8213 85.8969C87.6075 85.8625 87.407 85.8873 87.2142 85.7057C86.7445 85.2717 86.2118 83.0997 86.5669 82.4343C86.7753 82.0168 87.0997 81.6684 87.5011 81.431C87.9024 81.1936 88.3637 81.0772 88.8295 81.0959C89.3202 81.1055 89.8548 80.8665 90.3264 81.3751C90.5593 81.6294 90.7216 81.2604 90.7255 80.9927C90.7255 80.3904 90.7465 79.7843 90.7255 79.1821C90.714 78.7997 90.9259 78.7767 91.2085 78.7997C91.4548 78.815 91.745 78.7442 91.7336 79.1495C91.6668 81.398 91.8749 83.6503 91.6209 85.895L90.7598 85.8873ZM89.2056 82.0634C88.3789 82.0634 87.5407 82.8282 87.533 83.6082C87.533 84.0901 88.6175 85.2812 89.0605 85.2697C89.7612 85.2544 90.7331 84.3348 90.7369 83.6847C90.7388 82.7001 90.1355 82.0615 89.2056 82.0576V82.0634Z" fill="#01474F"/>
<path id="Vector_23" d="M131.767 72.7522C131.784 70.9186 132.56 70.3469 134.923 70.3469C136.338 70.3469 137.325 71.3717 137.337 72.93C137.346 74.297 135.58 75.7884 134.119 75.7234C132.75 75.6603 131.676 74.7158 131.767 72.7522ZM134.44 71.3182C134.001 71.3422 133.587 71.5314 133.281 71.848C132.975 72.1646 132.8 72.5852 132.791 73.0256C132.808 73.8095 133.615 74.5552 134.446 74.5552C135.152 74.5552 135.987 73.7273 135.973 73.0409C135.945 71.8899 135.439 71.3163 134.438 71.3163L134.44 71.3182Z" fill="#01474F"/>
<path id="Vector_24" d="M46.4627 87.91C46.3719 87.9666 46.267 87.9966 46.1601 87.9966C46.0531 87.9966 45.9482 87.9666 45.8574 87.91C45.8574 85.6654 45.8574 83.4214 45.8574 81.178C46.9744 81.1589 48.1066 81.0289 49.2083 81.1551C49.9606 81.2392 50.6232 81.7382 50.6652 82.6559C50.7188 83.2247 50.7322 83.7965 50.7053 84.3672C50.6117 85.4168 50.0523 85.8336 49.0995 85.9445C48.4828 86.0153 47.847 85.8451 47.2474 86.1013C46.7682 85.8222 46.4188 85.7801 46.4512 86.5143C46.4703 86.977 46.4589 87.4435 46.4627 87.91ZM46.9572 84.1262C47.3143 84.5717 47.53 85.2103 48.204 85.2505C48.7539 85.283 49.7525 84.2276 49.6761 83.6865C49.5596 82.8682 49.2141 82.2066 48.2575 82.046C47.3009 81.8854 47.1119 82.5451 46.9343 83.2314C46.6231 83.1894 46.4627 83.3022 46.455 83.6387C46.4474 83.9752 46.5887 84.1817 46.9572 84.1262Z" fill="#01474F"/>
<path id="Vector_25" d="M178.12 74.0237C178.593 74.278 178.96 74.8114 179.616 74.582C179.853 74.4997 180.149 74.6661 180.29 74.2435C180.418 73.8612 180.907 73.974 181.075 74.1613C181.289 74.4022 181.31 75.0198 181.031 75.0619C180.367 75.1651 179.886 75.6966 179.25 75.7444C177.757 75.8553 176.495 74.6546 176.407 73.1671C176.353 72.2666 176.455 71.4578 177.109 70.7886C177.208 70.6638 177.322 70.5525 177.449 70.4579C178.687 69.7791 181.341 70.7485 181.753 72.0792C181.913 72.6012 181.995 73.2264 181.02 73.1308C180.065 73.0409 179.11 73.0945 178.167 73.0849C177.846 73.062 177.61 73.1231 177.594 73.5266C177.594 73.8994 177.77 74.0409 178.12 74.0237ZM180.434 72.4826C180.13 71.4674 179.874 71.1443 178.994 71.1844C178.612 71.1997 177.835 71.1003 177.801 71.8804C177.766 72.6604 178.373 72.4635 178.818 72.4788C179.328 72.496 179.836 72.4826 180.434 72.4826Z" fill="#01474F"/>
<path id="Vector_26" d="M166.055 83.8912C165.612 83.8912 165.169 83.8798 164.718 83.8912C164.197 83.9103 164.123 84.287 164.336 84.612C164.84 85.3902 165.807 85.4915 166.662 84.8912C166.904 84.721 167.212 84.656 167.357 84.7975C167.502 84.939 167.447 85.2698 167.473 85.5183C167.508 85.8414 167.282 85.83 167.053 85.8797C166.217 86.0613 165.36 85.9714 164.514 86.0804C163.968 86.1493 163.559 85.4858 163.271 85.0193C162.639 84.0098 162.725 82.9161 163.284 81.9162C163.758 81.0692 164.663 81.0768 165.513 81.0806C166.778 81.0806 167.72 81.9009 167.851 82.9926C167.941 83.7115 167.731 84.0059 167.004 83.9276C166.686 83.9112 166.367 83.9112 166.049 83.9276L166.055 83.8912ZM165.148 83.1857C165.465 83.1857 165.801 83.2507 166.103 83.1704C166.647 83.0213 166.652 82.5968 166.366 82.2144C166.106 81.8665 164.695 81.9697 164.434 82.3464C164.283 82.5624 163.88 82.6867 164.004 82.9945C164.128 83.3023 164.506 83.1532 164.768 83.1857C164.894 83.1924 165.021 83.1924 165.148 83.1857Z" fill="#01474F"/>
<path id="Vector_27" d="M123.192 75.1898C122.644 75.2835 122.144 75.1898 121.578 75.6525C120.95 76.163 120.068 75.4097 119.507 75.0388C119.033 74.7271 119.192 73.8018 119.417 73.1268C119.621 72.5054 120.07 72.4519 120.605 72.4844C120.952 72.5234 121.303 72.5182 121.649 72.4691C121.964 72.4041 122.541 72.7769 122.556 72.2014C122.567 71.7483 122.145 71.3468 121.619 71.3143C121.092 71.2818 120.608 71.3716 120.106 71.3602C119.862 71.3602 119.432 71.5743 119.417 71.1537C119.406 70.8688 119.56 70.4195 119.99 70.4061C120.971 70.3736 121.97 70.2933 122.932 70.429C123.539 70.517 123.782 71.1938 123.967 71.7674C123.585 72.6068 123.831 73.4882 123.776 74.36C123.753 74.7788 123.82 75.2185 123.192 75.1898ZM121.586 73.102C121.082 72.9299 120.61 73.2205 120.534 73.8782C120.471 74.4308 120.868 74.6143 121.437 74.6182C122.165 74.6182 122.52 74.3065 122.583 73.6297C122.646 72.9528 122.126 73.1498 121.586 73.102Z" fill="#01474F"/>
<path id="Vector_28" d="M69.8975 72.4634C69.8707 70.886 70.3805 70.4653 71.9443 70.322C72.9696 70.2283 73.9033 70.5246 74.499 71.1307C74.9534 71.5934 75.5014 72.4022 75.0298 73.3505C74.6346 74.144 74.4207 74.9011 73.487 75.3944C72.3796 75.9794 71.1557 75.9087 70.5218 74.7806C70.3538 74.4805 69.949 74.3638 69.9338 73.9623C69.9223 73.4633 69.9089 72.9624 69.8975 72.4634ZM73.6341 72.5303C73.6455 71.3276 72.9085 71.2263 71.9557 71.3296C71.5261 71.3754 71.0565 71.3984 70.9514 71.8343C70.7834 72.5303 70.6173 73.3926 71.0202 73.9375C71.7648 74.9489 72.7558 74.7615 73.6131 73.6277C73.9778 73.6622 74.1362 73.4977 74.1248 73.1287C74.1133 72.796 74.1248 72.4634 73.6341 72.5303Z" fill="#01474F"/>
<path id="Vector_29" d="M136.571 85.9007C135.7 85.9217 134.793 85.7993 133.968 86.002C133.252 86.1798 132.918 85.7573 132.811 85.3825C132.682 84.9217 132.552 84.3921 133.094 83.8434C133.804 83.1245 134.566 83.2067 135.385 83.1838C135.651 83.1838 136.09 83.308 136.034 82.8396C135.996 82.5146 136.061 81.9773 135.4 82.05C134.866 82.1073 134.27 81.941 133.8 82.1265C133.331 82.3119 133.184 82.0978 133.037 81.8607C132.872 81.5739 133.228 81.4783 133.39 81.3502C133.963 80.9238 136.472 80.9391 136.918 81.4458C137.201 81.8018 137.376 82.232 137.421 82.6847C137.563 83.7552 137.563 84.8398 137.421 85.9102L136.571 85.9007ZM135.998 84.7191C136.38 84.7554 136.571 84.6044 136.544 84.1971C136.517 83.7899 136.284 83.765 135.971 83.8147C135.479 83.9639 134.933 83.6235 134.444 84.0614C134.213 84.2659 133.737 84.2334 133.911 84.7306C134.049 85.1225 134.339 85.2602 134.774 85.3213C135.372 85.3997 135.584 84.8912 136 84.7191H135.998Z" fill="#01474F"/>
<path id="Vector_30" d="M84.8834 73.0944C84.7612 71.5151 85.7293 70.4961 87.2415 70.3393C88.3871 70.2207 89.2444 70.6395 89.9947 71.3584C90.4052 71.7541 90.2181 72.3813 90.1704 72.8879C90.1284 73.3239 89.6491 73.1021 89.3704 73.1135C88.6066 73.1403 87.8429 73.0944 87.0792 73.125C86.8233 73.1365 86.4109 72.9223 86.3632 73.4749C86.325 73.9261 86.3899 74.3907 86.8405 74.4787C87.4286 74.5934 88.093 74.8267 88.6334 74.2875C88.8797 74.0389 89.2062 73.9051 89.4868 74.0733C89.7675 74.2416 89.6129 74.5991 89.6224 74.8725C89.6434 75.3582 89.2405 75.2014 88.9981 75.2167C88.6773 75.2377 88.5646 75.4958 88.3622 75.6182C88.163 75.7509 87.9277 75.8187 87.6885 75.8126C87.4493 75.8064 87.2179 75.7265 87.0257 75.5838C86.409 75.1154 85.1335 75.3199 85.3837 73.9682C85.3207 73.6106 85.6052 73.0581 84.8834 73.0944ZM87.6501 72.5399C88.0854 72.3315 88.8148 72.7484 88.9102 72.2627C89.0382 71.6146 88.2725 71.1805 87.7799 71.15C87.356 71.1232 86.5006 71.0104 86.3842 71.8115C86.1951 73.1327 87.2758 72.1709 87.6501 72.5399Z" fill="#01474F"/>
<path id="Vector_31" d="M204.204 75.1765C202.695 74.3104 202.676 71.343 204.093 70.519C204.815 70.0964 205.794 70.2322 206.606 70.41C207.86 70.6815 208.658 71.9396 208.515 73.2225C208.469 73.5517 208.358 73.8683 208.187 74.1531C208.016 74.438 207.789 74.6853 207.52 74.8802C206.877 75.3563 206.226 76.0809 205.229 75.6851C205.233 74.8286 204.559 75.3314 204.204 75.1765ZM205.678 71.3105C204.37 71.3105 204.15 71.5515 204.15 72.9415C204.15 73.7789 204.874 74.5743 205.643 74.5685C206.252 74.5685 207.362 73.5036 207.346 72.9338C207.318 72.1021 206.504 71.3163 205.678 71.3163V71.3105Z" fill="#01474F"/>
<path id="Vector_32" d="M144.003 75.6926C143.143 75.6448 142.389 75.293 141.979 74.5607C141.639 73.9508 142 73.3294 142.416 72.8227C143.006 72.1038 143.815 72.6315 144.516 72.492C144.741 72.448 145.049 72.4499 145.062 72.2358C145.079 71.9566 144.93 71.4251 144.833 71.4194C144.367 71.3983 143.957 70.9872 143.447 71.2434C143.21 71.3256 142.96 71.3619 142.71 71.3505C142.454 71.3677 142.171 71.3926 142.238 70.9796C142.282 70.71 142.217 70.406 142.668 70.406C143.938 70.3754 145.232 70.0829 146.343 71.0523C146.561 71.2434 146.687 71.4002 146.683 71.6622C146.664 72.8361 146.637 74.0081 146.613 75.1821C145.944 75.1821 145.276 75.1917 144.61 75.1821C144.239 75.1706 143.964 75.2433 144.003 75.6926ZM144.537 73.1573C143.682 73.0808 142.947 73.0579 142.937 73.9221C142.928 74.664 143.609 74.5454 144.142 74.6009C144.438 74.635 144.735 74.5513 144.97 74.3678C145.204 74.1843 145.358 73.9157 145.396 73.62C145.492 72.9126 144.728 73.2166 144.537 73.1573Z" fill="#01474F"/>
<path id="Vector_33" d="M84.2733 85.893H83.6279C83.015 85.9542 82.3716 85.7286 81.7873 86.0842C81.0961 85.6693 80.5806 85.1493 80.8575 84.2583C81.1477 83.3176 81.8904 83.136 82.7668 83.1914C83.0819 83.2125 83.4007 83.1914 83.7215 83.178C83.9716 83.178 84.2657 83.1991 84.2084 82.7956C84.1683 82.5069 84.279 82.1169 83.7788 82.1131C83.015 82.1131 82.2513 82.1016 81.4971 82.0825C81.3062 82.0825 81.0255 82.1685 81.0045 81.8072C80.9911 81.5854 81.1076 81.4898 81.2814 81.3712C82.236 80.7288 84.5597 81.0902 85.2337 81.9792C85.3565 82.1187 85.4244 82.2981 85.4246 82.484C85.4113 83.6312 85.5564 84.7669 85.3425 85.9007L84.2733 85.893ZM83.5096 83.8281C82.9463 83.7937 82.3239 83.8377 82.173 84.5011C82.1466 84.6098 82.1491 84.7236 82.1804 84.831C82.2116 84.9384 82.2705 85.0357 82.3512 85.1131C82.4318 85.1906 82.5313 85.2455 82.6398 85.2723C82.7483 85.2991 82.8619 85.2969 82.9692 85.2659C83.5038 85.1531 84.1664 85.0518 84.2256 84.2736C84.2733 83.7172 83.8742 83.8147 83.5153 83.8281H83.5096Z" fill="#01474F"/>
<path id="Vector_34" d="M68.206 82.0711C67.511 82.0711 66.8141 82.0807 66.1172 82.0902C65.9263 82.0902 65.6609 82.4937 65.531 82.0271C65.4788 81.8923 65.473 81.7439 65.5145 81.6054C65.556 81.4669 65.6425 81.3461 65.7602 81.2623C66.2661 80.901 68.8533 81.0712 69.3173 81.4956C69.7812 81.9201 70.0104 82.3369 69.9531 82.9755C69.8672 83.9487 70.0466 84.9333 69.8538 85.9065L68.8285 85.895C67.9788 85.895 67.133 85.962 66.2833 85.9543C65.3057 85.9543 65.3172 85.2144 65.3286 84.7039C65.3496 84.0863 65.4126 83.2623 66.3616 83.2087C66.9917 83.1743 67.6256 83.1992 68.2576 83.1973C68.6929 83.2298 68.775 82.9812 68.775 82.6045C68.7807 82.1916 68.6051 82.0233 68.206 82.0711ZM67.9158 83.8359C67.2284 83.7708 66.6213 83.897 66.4093 84.4744C66.352 84.6274 66.6709 85.3941 67.4327 85.3253C67.727 85.3154 68.0101 85.2099 68.2392 85.0247C68.4683 84.8394 68.6309 84.5845 68.7025 84.2985C68.8686 83.6466 68.164 83.9238 67.9158 83.8359Z" fill="#01474F"/>
<path id="Vector_35" d="M107.179 75.6907H106.576C106.586 74.7883 105.789 75.381 105.469 75.0923C103.974 74.1363 104.398 72.6794 104.514 71.3238C104.552 70.8821 105.119 70.886 105.383 70.5781C105.646 70.2703 107.913 70.2932 108.312 70.4978C109.266 70.9949 109.306 71.9433 109.446 72.8189C109.507 73.2109 109.106 73.1057 108.873 73.1096C107.985 73.1249 107.095 73.1096 106.2 73.121C106.009 73.121 105.7 72.9738 105.669 73.3122C105.646 73.5493 105.6 73.7558 105.912 74.012C106.773 74.7194 107.504 74.9355 108.371 74.0522C108.562 73.861 108.877 74.0197 108.978 74.3963C109.119 74.9221 109.011 75.2012 108.426 75.1802C108.029 75.3676 107.286 74.7328 107.179 75.6907ZM106.861 72.4786C107.108 72.4974 107.356 72.4974 107.603 72.4786C107.865 72.4365 108.275 72.6354 108.268 72.0771C108.268 71.6335 108.142 71.385 107.649 71.3544C107.15 71.3095 106.648 71.3095 106.148 71.3544C105.725 71.4041 105.631 71.5819 105.654 71.9547C105.725 73.0178 106.557 72.1995 106.861 72.4786Z" fill="#01474F"/>
<path id="Vector_36" d="M42.7056 75.1802C41.2239 74.2243 41.1571 71.4118 42.5967 70.4806C43.4235 69.9434 46.1596 70.6948 46.5835 71.5743C46.6625 71.7364 46.6991 71.916 46.6897 72.0962C46.6803 72.2764 46.6253 72.4512 46.5298 72.6042C46.4343 72.7572 46.3015 72.8834 46.1438 72.9708C45.9862 73.0582 45.809 73.104 45.6288 73.1039C44.8059 73.1039 43.981 73.1039 43.1562 73.1039C42.9901 73.1039 42.7323 73.0006 42.6903 73.2683C42.6578 73.4748 42.6445 73.7597 42.759 73.9031C43.3968 74.708 44.3992 74.7634 45.2889 74.0942C45.4799 73.9508 45.7682 73.903 45.8617 74.1172C46.0087 74.4174 46.0928 75.0082 45.8465 75.0636C45.1324 75.2242 44.6092 76.0731 43.7462 75.6716C43.7366 74.8399 43.0779 75.3103 42.7056 75.1802ZM43.9142 72.4825C44.1357 72.4825 44.3591 72.4978 44.5786 72.4825C44.8803 72.4557 45.3157 72.6641 45.2889 72.0427C45.2698 71.6068 45.1858 71.3066 44.6646 71.3296C44.193 71.3487 43.7099 71.297 43.2517 71.3621C42.7934 71.4271 42.696 71.8917 42.6788 72.2263C42.6655 72.6775 43.1085 72.4175 43.3395 72.4748C43.5299 72.5028 43.7231 72.5054 43.9142 72.4825Z" fill="#01474F"/>
<path id="Vector_37" d="M95.1683 85.9483C94.7865 85.8107 94.0819 86.1587 93.8318 85.7323C93.4251 85.023 92.6633 84.3939 92.8408 83.4551C93.2227 81.396 93.7726 80.9562 96.1612 81.0977C97.4977 81.178 98.2748 82.3061 98.1947 84.0784C98.1412 85.2945 96.9688 86.0382 95.1683 85.9483ZM94.0456 82.8892C93.954 83.3481 93.2494 83.9351 94.3091 84.153C94.5745 84.8241 95.0958 85.3652 95.7698 85.2046C96.2376 85.0937 96.6958 84.5239 96.9536 84.0574C97.4653 83.1148 96.7626 82.1455 95.7144 82.0479C94.9259 81.9657 94.4676 82.3443 94.0456 82.8892Z" fill="#01474F"/>
<path id="Vector_38" d="M163.148 75.1803C162.598 74.9183 162.384 74.3906 162.142 73.8935C162.033 73.1287 162.333 72.3257 161.941 71.5819C162.988 70.0524 165.76 69.8612 166.799 71.2971C167.114 71.7349 167.036 72.3639 166.936 72.8668C166.837 73.3696 166.297 73.0924 165.961 73.1077C165.17 73.1478 164.374 73.1268 163.582 73.1077C162.913 73.0981 163.034 73.6144 163.2 73.8725C163.708 74.7233 164.825 74.7845 165.754 74.0904C165.829 74.0316 165.921 73.9976 166.016 73.9931C166.111 73.9887 166.205 74.014 166.285 74.0656C166.596 74.2453 166.531 74.5455 166.533 74.8304C166.533 75.3313 166.138 75.0961 165.911 75.1764C165.529 75.2873 164.867 74.8265 164.819 75.6812H164.246C164.191 74.8399 163.53 75.3084 163.148 75.1803ZM164.742 72.4634C165.14 72.5303 165.52 72.5437 165.565 71.9337C165.623 71.1862 164.813 71.4481 164.572 71.0523C164.089 71.3965 163.045 71.1919 163.161 72.0695C163.301 73.0867 164.204 72.1632 164.742 72.4634Z" fill="#01474F"/>
<path id="Vector_39" d="M180.278 85.897C179.306 85.8472 178.338 86.0881 177.359 85.9122C177.04 85.8568 176.744 85.8587 176.645 85.4801C177.408 85.0978 176.835 84.4037 177.007 83.8798C177.389 82.9238 178.239 83.2699 178.94 83.1743C179.23 83.1361 179.728 83.4535 179.753 82.811C179.776 82.2375 179.488 81.9774 178.913 82.031C178.416 82.0769 177.893 82.031 177.425 82.1782C177.015 82.3044 176.881 82.0501 176.753 81.8474C176.582 81.574 176.918 81.465 177.068 81.3962C178.136 80.8704 179.262 80.9411 180.337 81.2987C181.174 81.5778 181.183 82.4114 181.202 83.1476C181.225 84.0653 181.309 84.9849 181.143 85.897H180.278ZM179.247 83.8263C178.514 83.7995 177.746 83.9009 177.67 84.5911C177.582 85.3712 178.395 85.4247 178.909 85.2584C179.423 85.092 180.085 84.7918 180.142 84.2393C180.2 83.6867 179.535 83.8951 179.247 83.8263Z" fill="#01474F"/>
<path id="Vector_40" d="M151.461 71.2607C150.858 71.5781 150.266 70.9319 149.64 71.2607C149.407 71.3793 148.929 71.4137 149.086 71.6737C149.243 71.9337 149.22 72.4557 149.727 72.4614C150.317 72.4488 150.895 72.6339 151.368 72.9872C152.093 73.513 152.362 74.2243 151.671 74.817C151.028 75.3695 150.335 75.9642 149.34 75.7003C149.034 74.708 148.401 75.251 147.854 75.381C147.341 75.0196 147.511 74.425 147.717 74.1363C147.98 73.7635 148.269 74.2969 148.555 74.4288C149.214 74.7329 149.911 74.5837 150.594 74.5359C150.875 74.5149 150.785 74.2625 150.814 74.0923C150.844 73.8916 150.844 73.6679 150.566 73.7004C149.714 73.8056 149.162 72.9796 148.274 73.0503C147.61 73.1019 147.402 71.7425 147.822 71.0887C148.271 70.3927 148.866 70.3239 149.571 70.364C150.203 70.4042 150.835 70.4195 151.467 70.4443C151.461 70.7101 151.461 70.9854 151.461 71.2607Z" fill="#01474F"/>
<path id="Vector_41" d="M52.9693 86.0805C51.9459 85.3157 51.3349 83.1475 51.8237 81.9793C51.9994 81.5548 52.4366 81.4841 52.788 81.3082C53.8782 80.769 55.503 81.14 56.305 82.0003C56.7976 82.5299 56.6353 83.138 56.5436 83.6504C56.473 84.0328 55.8754 83.7938 55.5202 83.8091C54.7565 83.8435 53.9927 83.8224 53.229 83.8091C52.5397 83.8091 52.7097 84.3234 52.872 84.5738C53.3722 85.3692 54.6343 85.4916 55.3541 84.853C55.4148 84.7824 55.4961 84.7326 55.5865 84.7106C55.6769 84.6887 55.7719 84.6957 55.8582 84.7306C56.1484 84.874 55.9937 85.1799 56.0167 85.4132C56.0396 85.6464 56.0701 85.8854 55.7188 85.8797C55.4973 85.8797 55.2758 85.8797 55.0543 85.8797C54.3593 85.9505 53.6357 85.7076 52.9693 86.0805ZM54.3059 83.2565C54.5503 82.8875 55.2606 83.6026 55.3618 82.7938C55.4725 81.8263 54.5407 82.029 54.0997 81.9564C53.8266 81.9162 52.8815 81.7747 52.9541 82.6581C53.0266 83.5414 53.7904 83.0385 54.3059 83.2565Z" fill="#01474F"/>
<path id="Vector_42" d="M195.763 85.895C194.896 85.9046 194.028 85.8855 193.161 85.9294C192.559 85.9619 192.397 85.6694 192.42 85.1474C192.435 84.83 192.433 84.5127 192.443 84.1915C192.464 83.5012 192.79 83.1552 193.51 83.1896C194.083 83.2164 194.656 83.1896 195.229 83.1896C195.666 83.2278 195.737 82.9697 195.742 82.6045C195.742 82.1973 195.578 82.0309 195.181 82.0692C194.484 82.0692 193.789 82.0826 193.092 82.0864C192.901 82.0864 192.632 82.4955 192.498 82.0328C192.418 81.7518 192.422 81.4191 192.75 81.2948C193.699 80.9249 194.746 80.8965 195.714 81.2145C196.46 81.4765 196.844 82.3101 196.731 83.2469C196.624 84.1207 196.817 85.0155 196.626 85.8912L195.763 85.895ZM194.917 83.8836C194.075 83.7058 193.598 83.9735 193.34 84.4572C193.26 84.6044 193.558 85.1188 193.799 85.2411C194.562 85.6331 194.914 84.5949 195.624 84.6178C195.754 84.6178 195.731 84.2698 195.66 84.1092C195.452 83.6446 195.007 83.9142 194.917 83.8836Z" fill="#01474F"/>
<path id="Vector_43" d="M207.577 83.1915C207.176 82.0634 206.56 81.7479 205.225 82.1169C204.761 82.245 204.49 82.1361 204.423 81.8282C204.356 81.5204 204.679 81.1935 205.025 81.1743C205.908 81.0903 206.798 81.0845 207.682 81.1571C208.129 81.2088 208.618 81.4898 208.597 82.1781C208.566 83.2259 208.631 84.2813 208.635 85.3252C208.635 85.6235 208.677 86.0498 208.188 85.9887C207.119 85.8529 206.067 85.9734 205.004 86.0785C204.605 86.1168 204.282 85.6961 204.19 85.3787C204.07 84.9562 203.936 84.4228 204.322 84.027C204.824 83.5241 205.315 82.9869 206.176 83.1762C206.59 83.2679 207.058 83.1915 207.577 83.1915ZM207.387 84.721C207.768 84.7535 207.959 84.6121 207.94 84.201C207.921 83.7899 207.663 83.7861 207.367 83.8014C206.873 83.941 206.333 83.6599 205.84 84.0633C205.596 84.2545 205.143 84.2392 205.311 84.7287C205.445 85.1206 205.733 85.264 206.168 85.3233C206.76 85.3979 206.972 84.8912 207.387 84.7191V84.721Z" fill="#01474F"/>
<path id="Vector_44" d="M113.102 73.6527L112.475 73.5781C112.462 72.7732 111.866 73.1671 111.496 73.1001C111.337 73.3391 111.19 73.3181 110.957 73.1556C110.23 72.6451 110.295 71.9319 110.423 71.2054C110.551 70.4788 111.078 70.3106 111.734 70.3507C112.573 70.4043 113.424 70.2341 114.249 70.5113C114.238 70.7331 114.228 70.9568 114.217 71.1805C113.686 71.6394 113.153 71.0926 112.634 71.1805C112.252 71.2494 111.622 71.018 111.584 71.6528C111.545 72.2876 112.011 72.4558 112.594 72.4864C114.035 72.5648 114.633 73.039 114.597 73.9643C114.556 75.0178 113.42 75.6736 112.359 75.7482C112.203 75.7432 112.048 75.7214 111.897 75.6832C111.691 74.7062 111.104 75.2626 110.629 75.3696C110.115 75.1306 109.754 74.7406 110.146 74.2225C110.491 73.7579 110.91 74.0771 111.269 74.3697C111.817 74.8075 112.477 74.494 113.079 74.5857C113.375 74.6029 113.619 74.5723 113.64 74.1804C113.661 73.7884 113.483 73.6202 113.102 73.6527Z" fill="#01474F"/>
<path id="Vector_45" d="M209.531 75.1803C209.1 75.2109 208.691 75.2205 208.983 74.5838H210.058C210.561 74.5838 211.065 74.5685 211.569 74.5838C211.951 74.5991 212.115 74.5092 212.155 74.079C212.199 73.5877 211.899 73.71 211.639 73.6431C210.996 73.4787 210.37 73.2416 209.73 73.0906C209.318 72.995 209.522 72.7082 209.47 72.4998C209.47 72.0199 209.47 71.5438 209.486 71.0581C209.543 70.5228 209.848 70.3373 210.373 70.3603C211.194 70.3947 212.017 70.3794 212.838 70.387C213.094 70.387 213.369 70.3641 213.32 70.7694C213.285 71.0677 213.251 71.343 212.84 71.3124C212.338 71.2818 211.834 71.2398 211.332 71.257C210.977 71.2685 210.377 71.1805 210.377 71.6069C210.377 72.0332 210.849 72.3831 211.351 72.4711C211.542 72.5036 211.756 72.4328 211.924 72.5055C212.43 72.733 213.131 72.733 213.321 73.385C213.535 74.1154 213.266 74.7368 212.646 75.1918C212.279 75.3046 211.634 74.8457 211.618 75.6889C211.287 75.7959 210.93 75.7905 210.603 75.6736C210.555 74.8228 209.894 75.3314 209.531 75.1803Z" fill="#01474F"/>
<path id="Vector_46" d="M110.429 85.8967L109.236 85.8852C108.61 85.9388 107.957 85.7246 107.361 86.0764C106.765 85.7935 106.511 85.3117 106.513 84.6616C106.513 83.6559 106.498 82.6502 106.471 81.6445C106.458 81.1015 106.691 80.9715 107.166 81.1723C107.166 81.8357 107.166 82.4972 107.166 83.1588C107.166 83.5049 107.191 83.805 107.647 83.7859C107.892 84.1549 107.558 84.6635 107.983 85.0134C108.556 85.4856 109.343 85.1338 109.857 84.4111C110.462 83.5622 110.374 82.6693 110.361 81.7573C110.361 81.3137 110.395 81.0652 110.951 81.0652C111.506 81.0652 111.583 81.2564 111.565 81.7286C111.516 83.1186 111.506 84.5105 111.481 85.9025L110.429 85.8967Z" fill="#01474F"/>
<path id="Vector_47" d="M188.314 75.1842C188.169 75.0733 187.911 74.9777 187.896 74.8496C187.743 73.626 186.559 72.8325 186.546 71.5553C186.546 71.4062 186.509 71.1729 186.42 71.127C186.072 70.976 185.692 70.7676 186.089 70.4349C186.341 70.2246 186.83 70.2437 187.22 70.5439C187.957 71.1175 187.754 72.1059 188.302 72.7541C188.452 72.9735 188.565 73.2165 188.635 73.473C188.649 73.5501 188.693 73.6186 188.756 73.6648C188.82 73.7109 188.899 73.7312 188.976 73.7216C189.184 73.7082 189.179 73.5495 189.244 73.4042C189.606 72.5992 189.994 71.8058 190.376 71.0104C190.542 70.6643 190.741 70.2456 191.185 70.3871C191.667 70.5401 191.42 71.0142 191.319 71.28C190.821 72.5954 190.261 73.8879 189.725 75.188L188.314 75.1842Z" fill="#01474F"/>
<path id="Vector_48" d="M195.168 71.387C195.953 70.1538 198.403 69.9033 199.273 70.9626C199.394 71.106 199.419 71.2226 199.298 71.366L198.429 71.3756C198.303 71.3756 198.176 71.3756 198.048 71.3545C196.274 71.1346 195.642 71.8516 196.1 73.6087C196.23 74.1058 196.723 74.3965 197.122 74.4997C197.486 74.5915 198.076 74.9337 198.397 74.2091C198.438 74.1257 198.499 74.0537 198.574 73.9991C198.649 73.9444 198.736 73.9089 198.828 73.8956C198.92 73.8822 199.014 73.8914 199.101 73.9224C199.189 73.9533 199.268 74.0052 199.331 74.0733C199.749 74.4748 199.245 74.6049 199.084 74.775C197.899 76.0121 196.635 76.1822 195.522 74.9662C194.987 74.3831 194.322 73.5246 194.653 72.4807C195.506 72.4386 195.031 71.7694 195.168 71.387Z" fill="#01474F"/>
<path id="Vector_49" d="M170.194 85.8835C169.35 85.9924 168.968 85.6253 168.955 84.7707C168.955 84.1378 168.178 83.7688 168.543 82.8798C168.833 82.1704 169.182 81.6217 169.782 81.3502C170.259 81.1254 170.781 81.0113 171.308 81.0163C171.835 81.0212 172.354 81.1452 172.827 81.3789C173.496 81.702 173.158 82.1188 172.907 82.4247C172.61 82.7899 172.489 82.5012 172.19 82.2469C171.706 81.8358 170.78 81.8186 170.372 82.2469C170.04 82.5968 169.068 83.2163 170.021 84.004C170.284 84.2239 170.271 84.6043 170.53 84.9007C170.981 85.4131 171.353 85.3844 171.754 85.0556C172.155 84.7267 172.497 84.4284 173.049 84.7229C173.331 84.8739 173.24 85.0651 173.19 85.2755C172.999 85.9695 172.438 85.9293 171.894 85.9179C171.83 85.9134 171.766 85.9051 171.703 85.893L170.194 85.8835Z" fill="#01474F"/>
<path id="Vector_50" d="M100.858 81.9869C100.602 82.201 99.9356 81.8492 100.033 82.3941C100.063 82.6328 100.183 82.8508 100.369 83.0033C100.555 83.1559 100.792 83.2314 101.032 83.2144C102.502 83.1991 103.048 83.7306 102.989 84.7688C102.949 85.4418 102.565 85.7554 101.961 85.8911H99.6702C99.2502 86.3519 98.9389 85.8911 98.7977 85.6693C98.6564 85.4475 98.7976 85.0192 99.0783 84.8414C99.359 84.6636 99.5499 84.6617 99.8039 85.0651C100.144 85.6043 101.585 85.2104 101.772 84.591C101.845 84.3482 101.82 84.134 101.482 84.1627C100.936 84.2105 100.449 83.8568 99.9547 83.8434C98.7327 83.809 99.0993 82.939 99.0554 82.3138C99.002 81.5337 99.4258 81.0883 100.214 81.0844C100.94 81.0844 101.671 80.985 102.393 81.159V81.9888C102.299 82.035 102.195 82.0591 102.09 82.0591C101.985 82.0591 101.882 82.035 101.788 81.9888C101.83 81.6427 101.685 81.4917 101.329 81.484C100.974 81.4764 100.837 81.6542 100.858 81.9869Z" fill="#01474F"/>
<path id="Vector_51" d="M42.2625 81.9963C41.8119 82.0422 41.6668 82.2506 41.7069 82.7324C41.7508 83.2544 42.0888 83.1684 42.3675 83.1588C43.2248 83.1301 43.895 83.612 44.5976 83.9599C44.9929 84.1511 45.0273 84.4685 44.7256 84.8012C44.4035 85.1632 44.0796 85.5233 43.7537 85.8815L41.6687 85.8968C41.1303 85.847 40.294 86.2619 40.4983 85.088C40.5766 84.6349 40.8802 84.6138 41.0711 84.8203C41.6878 85.5048 42.4745 85.2027 43.1943 85.2868C43.5647 85.3308 43.7671 85.2084 43.7671 84.7935C43.7671 84.3786 43.6983 84.1186 43.2191 84.176C42.4687 84.2697 41.8005 83.9007 41.0997 83.7515C40.399 83.6024 40.4372 82.9045 40.5097 82.3367C40.5899 81.7191 40.9241 81.2144 41.5713 81.1302C42.2346 81.0683 42.9015 81.0562 43.5666 81.0939C43.9695 81.1054 44.4468 81.1111 44.3552 81.7382C44.2597 82.3998 43.8015 82.1072 43.4463 82.0575C43.3548 82.0379 43.2649 82.0117 43.1771 81.9791C43.2172 81.6312 43.0606 81.4878 42.7112 81.4859C42.3618 81.4839 42.2301 81.6637 42.2625 81.9963Z" fill="#01474F"/>
<path id="Vector_52" d="M140.194 81.9945C139.973 82.1456 139.387 81.9945 139.551 82.3769C139.677 82.679 139.794 83.1972 140.46 83.201C141.999 83.2125 142.526 83.8797 142.3 85.2124C142.216 85.7076 141.993 85.9274 141.5 85.8777L139.169 85.8969C138.81 86.3576 138.581 85.8395 138.304 85.7535C138.253 85.7363 138.239 85.4495 138.438 85.2831C138.726 85.0441 139.011 84.6828 139.362 84.9753C139.818 85.3462 140.317 85.2047 140.796 85.2831C141.415 85.3864 141.369 84.8376 141.451 84.5795C141.558 84.2449 141.185 84.157 140.878 84.1589C140.366 84.1589 139.9 83.9524 139.414 83.8511C138.772 83.7191 138.615 83.3444 138.615 82.8033C138.615 82.2622 138.356 81.5988 139.131 81.2737C140.086 80.8799 141.04 81.0825 141.995 81.1495C142.341 81.1724 142.299 81.5701 142.23 81.7689C142.039 82.2871 141.628 82.0175 141.287 81.9735C141.346 81.5338 141.075 81.484 140.731 81.4745C140.387 81.4649 140.147 81.5816 140.194 81.9945Z" fill="#01474F"/>
<path id="Vector_53" d="M213.302 82.0061C213.208 82.0484 213.105 82.0692 213.001 82.0669C212.897 82.0645 212.795 82.0392 212.703 81.9927C212.758 81.5204 212.456 81.4918 212.103 81.4879C211.75 81.4841 211.555 81.6065 211.593 81.987C211.372 82.1476 210.776 82.0004 210.935 82.3694C211.051 82.6428 211.126 83.2431 211.742 83.1934C212.327 83.15 212.911 83.2832 213.419 83.5758C214.099 83.9582 213.961 84.5318 213.854 85.0251C213.762 85.4591 213.539 85.9811 212.88 85.8893H211.162C210.878 85.9113 210.594 85.9113 210.31 85.8893C210.077 85.8549 209.631 86.069 209.684 85.5834C209.726 85.201 210.066 85.1092 210.448 85.1608C210.947 85.2274 211.449 85.2663 211.952 85.2775C212.311 85.2775 212.686 85.3482 212.716 84.7345C212.747 84.1207 212.411 84.1819 212.021 84.1513C210.303 84.0175 209.886 83.5529 209.984 82.1151C210.034 81.4 210.486 81.1591 211.034 81.1075C211.786 81.0482 212.55 81.1323 213.31 81.1534L213.302 82.0061Z" fill="#01474F"/>
<path id="Vector_54" d="M60.7886 82.0766C60.5042 82.0766 60.2158 82.0575 59.9352 82.0613C59.4006 82.0613 58.9079 82.0384 58.6655 82.7343C58.3829 83.5431 58.4745 84.2123 59.1161 84.7285C59.622 85.1319 60.1605 85.891 60.8345 84.7954C60.9834 84.5507 61.6479 84.5259 61.9343 84.8757C62.2207 85.2256 61.6994 85.3461 61.5524 85.5736C61.4931 85.6872 61.3989 85.7786 61.2837 85.8344C61.1685 85.8902 61.0385 85.9074 60.9128 85.8833C60.2368 85.9484 59.5304 85.7208 58.8831 86.0745C58.5013 85.7667 58.0449 85.5163 57.7604 85.1377C57.1361 84.3002 57.7375 81.8395 58.6406 81.2832C59.2784 80.8912 61.413 81.0499 61.8865 81.5432C62.0297 81.6923 61.9629 81.895 61.8712 82.069L60.7886 82.0766Z" fill="#01474F"/>
<path id="Vector_55" d="M187.207 85.8853C187.184 85.7381 187.089 85.5354 187.152 85.4494C187.847 84.4934 188.567 83.5661 189.279 82.6292C189.777 82.6675 189.821 82.3577 189.812 81.9696C189.8 81.5203 189.514 81.484 189.178 81.4859H187.213C187.076 81.1952 187.194 81.0786 187.49 81.0786C188.636 81.0786 189.781 81.0786 190.927 81.0786C191.704 81.0786 191.421 81.7593 191.288 81.9524C190.766 82.7212 190.169 83.4355 189.504 84.0842C189.189 84.3844 188.977 84.8375 189.006 85.0555C189.058 85.4379 189.579 85.2582 189.913 85.2792C190.247 85.3002 190.61 85.2792 190.959 85.2792C191.456 85.2792 191.471 85.5277 191.284 85.8872L187.207 85.8853Z" fill="#01474F"/>
<path id="Vector_56" d="M153.565 81.9889C153.269 82.0883 152.874 82.008 152.95 82.5854C153.019 83.1035 153.275 83.159 153.695 83.1838C155.184 83.268 155.721 83.7211 155.711 84.6981C155.717 84.9382 155.652 85.1746 155.525 85.3784C155.398 85.5822 155.215 85.7445 154.997 85.8453C154.092 86.243 153.076 85.8453 152.114 86.0365C151.996 86.0613 151.606 85.7745 151.692 85.5336C151.746 85.3882 151.854 85.2688 151.993 85.1996C152.132 85.1304 152.292 85.1166 152.44 85.1608C152.971 85.3138 153.508 85.266 154.042 85.2966C154.44 85.3195 154.672 85.2602 154.695 84.7555C154.718 84.2507 154.541 84.1417 154.123 84.1589C153.931 84.1613 153.739 84.1472 153.55 84.1169C152.177 83.9429 151.608 83.0882 152.022 81.7652C152.093 81.5619 152.227 81.3871 152.406 81.2673C152.584 81.1476 152.797 81.0894 153.011 81.1017C153.706 81.1017 154.401 81.1457 155.094 81.1724L155.077 82.0768L154.671 82.008C154.718 81.5873 154.48 81.4956 154.121 81.4937C153.762 81.4917 153.512 81.5587 153.565 81.9889Z" fill="#01474F"/>
<path id="Vector_57" d="M76.2743 85.8968C75.86 84.9619 76.3411 84.2793 77.0572 83.874C77.6414 83.5432 77.9412 83.027 78.2199 82.5356C78.4987 82.0442 78.3116 81.5796 77.5612 81.5586C77.1049 81.5433 76.2247 81.8397 76.2648 81.3387C76.2991 80.7651 77.1526 81.1705 77.6376 81.0997C78.1738 81.0405 78.7148 81.0405 79.251 81.0997C79.5259 81.1227 79.9403 80.8799 80.0625 81.3158C80.1656 81.6982 80.0224 82.0156 79.7111 82.3196C78.9923 83.0417 78.364 83.8487 77.84 84.7229C77.4581 85.3366 77.8171 85.2659 78.1741 85.2965C78.8023 85.3443 79.4381 85.1932 80.0606 85.3749C80.0701 85.8739 79.7379 85.8911 79.3656 85.8892C78.3345 85.8815 77.3054 85.893 76.2743 85.8968Z" fill="#01474F"/>
<path id="Vector_58" d="M116.371 75.1823C115.877 75.0293 115.724 74.6775 115.732 74.1823C115.749 73.2359 115.732 72.2856 115.732 71.3392C115.756 70.909 115.008 70.974 115.159 70.4559C115.936 70.3488 115.607 69.6471 115.812 69.2341H116.639C116.7 70.0983 117.102 70.5285 118.017 70.3469C118.277 70.2953 118.428 70.4062 118.424 70.7083C118.42 71.0103 118.256 71.1021 118.006 71.0696C116.829 70.9243 116.614 71.5744 116.736 72.5533C116.764 72.932 116.764 73.3122 116.736 73.6909C116.724 74.2645 116.973 74.557 117.568 74.5895C117.866 74.6048 118.342 74.2989 118.433 74.8285C118.515 75.3104 118.019 75.4843 117.706 75.7195C117.61 75.7903 117.404 75.7195 117.25 75.7042C117.295 74.9681 116.734 75.2415 116.371 75.1823Z" fill="#01474F"/>
<path id="Vector_59" d="M71.4391 78.8798C72.3002 78.6064 72.6763 78.8034 72.6267 79.8205C72.5274 81.8434 72.5522 83.872 72.5255 85.8967C71.6396 86.0363 71.4066 85.6424 71.4314 84.7821C71.4906 82.8166 71.4429 80.8472 71.4391 78.8798Z" fill="#01474F"/>
<path id="Vector_60" d="M129.557 85.8987C129.321 84.4207 129.506 82.9332 129.454 81.4515C129.454 81.2354 129.517 81.0595 129.771 81.0939C130.493 81.1914 131.201 81.3578 131.938 81.113C132.185 81.0289 132.192 81.3329 132.175 81.5126C132.158 81.6924 132.307 81.983 131.963 82.0499C130.806 82.2717 130.64 83.1282 130.627 84.1053C130.627 84.7037 130.581 85.3021 130.556 85.9006L129.557 85.8987Z" fill="#01474F"/>
<path id="Vector_61" d="M66.1777 75.1841C66.149 73.731 66.1223 72.2779 66.0898 70.8249C66.0898 70.5381 66.1414 70.2513 66.4832 70.366C67.2584 70.6222 68.045 70.1882 68.8049 70.4616C68.8049 70.7331 68.8049 71.0065 68.8049 71.278C67.4111 71.4998 67.3233 71.6164 67.2775 73.1288C67.2526 73.8152 67.3806 74.5092 67.1954 75.188L66.1777 75.1841Z" fill="#01474F"/>
<path id="Vector_62" d="M182.449 85.8969C182.421 83.6848 182.396 81.4726 182.363 79.2605C182.363 78.9603 182.415 78.7634 182.774 78.8035C183.033 78.8322 183.383 78.7041 183.37 79.1744C183.307 81.4134 183.496 83.6561 183.266 85.8912L182.449 85.8969Z" fill="#01474F"/>
<path id="Vector_63" d="M100.922 75.1803C100.895 73.7196 100.87 72.2588 100.836 70.8C100.836 70.4864 100.939 70.2608 101.262 70.366C101.901 70.5744 102.524 70.3985 103.152 70.3507C103.534 70.322 103.635 70.5113 103.648 70.8593C103.66 71.1633 103.61 71.3411 103.267 71.3583C102.161 71.4118 101.919 72.2072 101.842 73.0982C101.781 73.7922 101.777 74.4882 101.749 75.1841L100.922 75.1803Z" fill="#01474F"/>
<path id="Vector_64" d="M183.002 75.1821C182.773 73.7023 182.97 72.2109 182.891 70.7273C182.876 70.429 183.059 70.2875 183.302 70.364C183.936 70.5686 184.553 70.3984 185.175 70.3487C185.542 70.32 185.685 70.4615 185.669 70.8343C185.658 71.1498 185.647 71.3773 185.221 71.3678C184.169 71.3429 183.842 71.928 183.901 72.9164C183.945 73.6698 183.858 74.4288 183.831 75.1859L183.002 75.1821Z" fill="#01474F"/>
<path id="Vector_65" d="M139.229 75.1402C139.194 75.1844 139.15 75.2201 139.099 75.2446C139.049 75.2691 138.993 75.2819 138.937 75.2819C138.881 75.2819 138.826 75.2691 138.776 75.2446C138.725 75.2201 138.681 75.1844 138.646 75.1402L138.635 70.4559C139.399 70.4215 140.181 70.3909 140.953 70.3489C141.315 70.3297 141.35 70.5401 141.346 70.8269C141.342 71.1136 141.346 71.4004 140.916 71.3584C140.069 71.2685 139.876 71.8631 139.738 72.5056C139.307 72.4673 139.225 72.7216 139.23 73.0791C139.24 73.7732 139.23 74.4558 139.229 75.1402Z" fill="#01474F"/>
<path id="Vector_66" d="M174.427 85.8969C174.236 84.4514 174.408 82.9984 174.332 81.551C174.305 81.0539 174.597 81.0864 174.929 81.0826C175.262 81.0787 175.548 81.0826 175.521 81.5606C175.441 83.006 175.638 84.4591 175.422 85.9026L174.427 85.8969Z" fill="#01474F"/>
<path id="Vector_67" d="M62.9345 85.8893C62.9116 84.44 62.9039 82.9888 62.8562 81.5415C62.839 81.0405 63.1235 81.075 63.4577 81.0788C63.7918 81.0826 64.0954 81.0788 64.0648 81.5529C63.9732 82.9965 64.1927 84.4477 63.9464 85.8874L62.9345 85.8893Z" fill="#01474F"/>
<path id="Vector_68" d="M192.553 75.1861C192.362 73.7368 192.538 72.2799 192.468 70.8287C192.443 70.3335 192.741 70.3679 193.067 70.3469C193.43 70.3239 193.678 70.3564 193.655 70.8287C193.586 72.2799 193.753 73.7349 193.563 75.1841L192.553 75.1861Z" fill="#01474F"/>
<path id="Vector_69" d="M71.4386 78.8799C71.4386 80.8473 71.4902 82.8166 71.4386 84.7821C71.4138 85.6425 71.6467 86.0364 72.5327 85.8968C72.5919 86.6616 72.0057 86.348 71.6792 86.3652C71.2381 86.3882 70.9766 86.0918 70.9747 85.6521C70.9632 83.5241 70.9747 81.3941 70.9632 79.2661C70.9536 78.8799 71.1694 78.8723 71.4386 78.8799Z" fill="#01474F"/>
<path id="Vector_70" d="M185.116 85.8931C184.925 84.4458 185.08 82.9908 185.027 81.5396C185.015 81.2318 185.088 81.0463 185.439 81.0846C185.701 81.1132 186.058 80.9813 186.039 81.4517C185.979 82.9315 186.17 84.4152 185.934 85.8912L185.116 85.8931Z" fill="#01474F"/>
<path id="Vector_71" d="M54.5376 75.1842C54.5109 73.7272 54.4956 72.2684 54.4517 70.8134C54.4402 70.4062 54.6273 70.3373 54.9672 70.3488C55.246 70.3488 55.4808 70.3641 55.4636 70.7312C55.3949 72.2149 55.5935 73.7043 55.3529 75.1842H54.5376Z" fill="#01474F"/>
<path id="Vector_72" d="M45.8547 81.1762C45.8547 83.4208 45.8547 85.6648 45.8547 87.9082C45.3811 87.9885 45.3716 87.6998 45.3735 87.3461C45.3811 85.4825 45.3811 83.6196 45.3735 81.7574C45.3697 81.4094 45.3792 81.1092 45.8547 81.1762Z" fill="#01474F"/>
<path id="Vector_73" d="M149.312 55.4296C149.323 56.5978 149.336 57.766 149.34 58.9342C149.34 59.33 149.315 59.7277 149.892 59.699C149.953 60.3816 149.298 60.2497 149.037 60.2726C148.687 60.3051 148.871 59.8329 148.861 59.5939C148.821 58.4314 148.819 57.267 148.804 56.1045C148.8 55.7527 148.785 55.3856 149.312 55.4296Z" fill="#01474F"/>
<path id="Vector_74" d="M34.6891 85.9046L39.5216 85.895C39.5999 86.3749 39.2963 86.3864 38.9488 86.3845C37.6829 86.3845 36.417 86.3634 35.1511 86.3845C34.7655 86.394 34.6299 86.2698 34.6891 85.9046Z" fill="#01474F"/>
<path id="Vector_75" d="M76.2754 85.8969C77.3064 85.8969 78.3356 85.8816 79.3666 85.8874C79.7389 85.8874 80.0712 85.8721 80.0616 85.373C80.2277 85.4094 80.4779 85.2832 80.5294 85.5509C80.5465 85.6756 80.5292 85.8026 80.4794 85.9182C80.4296 86.0338 80.3492 86.1336 80.2468 86.2067C79.9986 86.4265 76.6191 86.4782 76.3479 86.2564C76.2754 86.199 76.2964 86.0193 76.2754 85.8969Z" fill="#01474F"/>
<path id="Vector_76" d="M138.636 70.4559L138.647 75.1402C138.301 75.165 138.143 75.0541 138.151 74.6583C138.175 73.4194 138.17 72.1728 138.151 70.9377C138.145 70.5687 138.261 70.4023 138.636 70.4559Z" fill="#01474F"/>
<path id="Vector_77" d="M201.071 75.1401C200.722 75.1765 200.565 75.0637 200.575 74.6679C200.599 73.4289 200.599 72.1893 200.575 70.9491C200.575 70.5763 200.695 70.4195 201.062 70.4578C201.068 72.0154 201.071 73.5762 201.071 75.1401Z" fill="#01474F"/>
<path id="Vector_78" d="M201.469 70.4502C201.824 70.4176 201.969 70.5553 201.963 70.9358C201.944 72.1735 201.944 73.4099 201.963 74.645C201.963 75.0274 201.82 75.1612 201.467 75.1325L201.469 70.4502Z" fill="#01474F"/>
<path id="Vector_79" d="M74.7185 81.1705C74.9705 81.1705 75.2149 81.115 75.2073 81.528C75.1806 82.8281 75.1806 84.1283 75.1939 85.4284C75.1939 85.8108 74.9724 85.8223 74.707 85.8356L74.7185 81.1705Z" fill="#01474F"/>
<path id="Vector_80" d="M74.1122 85.8337C73.7532 85.8796 73.6177 85.7457 73.6253 85.3614C73.6501 84.1263 73.6482 82.8912 73.6253 81.656C73.6253 81.289 73.7208 81.1188 74.1007 81.1781C74.1058 82.7306 74.1096 84.2824 74.1122 85.8337Z" fill="#01474F"/>
<path id="Vector_81" d="M146.179 85.9084L150.815 85.8931C150.815 86.155 150.838 86.3902 150.446 86.3844C149.152 86.3679 147.858 86.3679 146.565 86.3844C146.194 86.3844 146.15 86.1952 146.179 85.9084Z" fill="#01474F"/>
<path id="Vector_82" d="M74.1113 85.8339C74.1113 84.2813 74.1113 82.7295 74.1113 81.1782C74.2025 81.1179 74.3094 81.0857 74.4187 81.0857C74.528 81.0857 74.6349 81.1179 74.7261 81.1782L74.7147 85.8434C74.6799 85.8914 74.6341 85.9303 74.5812 85.9568C74.5283 85.9833 74.4697 85.9967 74.4105 85.9958C74.3513 85.9948 74.2932 85.9796 74.2412 85.9514C74.1891 85.9233 74.1445 85.8829 74.1113 85.8339Z" fill="#01474F"/>
<path id="Vector_83" d="M123.191 75.1898C123.82 75.2185 123.753 74.7787 123.778 74.3619C123.829 73.4977 123.587 72.6086 123.969 71.7693C124.564 72.8897 124.242 74.0636 124.159 75.2204C124.131 75.5531 123.804 75.6334 123.526 75.6601C123.165 75.6926 123.281 75.36 123.191 75.1898Z" fill="#01474F"/>
<path id="Vector_84" d="M187.207 85.8853L191.276 85.8967C191.293 86.1797 191.23 86.3881 190.881 86.3843C189.785 86.3747 188.691 86.3652 187.595 86.3843C187.215 86.3804 187.218 86.1415 187.207 85.8853Z" fill="#01474F"/>
<path id="Vector_85" d="M74.3832 79.9908C74.0452 79.8876 73.5488 80.1418 73.5469 79.4172C73.5469 78.7882 73.8944 78.7385 74.3106 78.7824C74.6753 78.8226 75.2156 78.5912 75.2538 79.3407C75.292 80.0902 74.7517 79.8895 74.3832 79.9908Z" fill="#01474F"/>
<path id="Vector_86" d="M187.213 81.4917H189.178C189.514 81.4917 189.8 81.5261 189.812 81.9754C189.812 82.3578 189.777 82.6733 189.279 82.6351C189.559 81.8129 188.897 82.1188 188.548 81.9697C188.11 81.7766 187.341 82.5127 187.213 81.4917Z" fill="#01474F"/>
<path id="Vector_87" d="M201.469 70.4501V75.1401C201.338 75.316 201.206 75.3122 201.072 75.1401C201.072 73.58 201.072 72.0192 201.072 70.4577C201.097 70.4299 201.127 70.4075 201.161 70.3919C201.195 70.3764 201.232 70.368 201.269 70.3672C201.306 70.3665 201.343 70.3735 201.378 70.3878C201.412 70.402 201.444 70.4232 201.469 70.4501Z" fill="#01474F"/>
<path id="Vector_88" d="M34.692 75.1898C35.408 75.2625 35.9178 75.1248 35.7631 74.2147C35.7001 73.8457 35.8719 73.6201 36.2844 73.6564C36.2931 74.0292 36.2778 74.4022 36.2385 74.773C36.1564 75.2625 35.87 75.6219 35.3431 75.6697C35.0146 75.7003 34.6118 75.75 34.692 75.1898Z" fill="#01474F"/>
<path id="Vector_89" d="M93.8652 75.1879C94.5831 75.2624 95.1062 75.1324 94.9478 74.2128C94.8828 73.8304 95.0623 73.6201 95.4728 73.6564C95.479 74.0324 95.463 74.4084 95.4251 74.7825C95.4019 75.0156 95.2965 75.2327 95.1278 75.3949C94.9592 75.5572 94.7383 75.6539 94.5048 75.6678C94.163 75.7137 93.7735 75.7538 93.8652 75.1879Z" fill="#01474F"/>
<path id="Vector_90" d="M139.23 75.1402C139.23 74.4576 139.242 73.775 139.23 73.0924C139.23 72.7292 139.307 72.4749 139.738 72.5189C139.738 73.2053 139.706 73.8916 139.725 74.578C139.738 74.949 139.658 75.1765 139.23 75.1402Z" fill="#01474F"/>
<path id="Vector_91" d="M107.638 83.7842C107.182 83.8034 107.151 83.5032 107.157 83.1571C107.157 82.4956 107.157 81.834 107.157 81.1706C107.592 81.1285 107.657 81.3809 107.646 81.7442C107.634 82.4229 107.642 83.1036 107.638 83.7842Z" fill="#01474F"/>
<path id="Vector_92" d="M144.003 75.6928C143.969 75.2435 144.24 75.1708 144.606 75.1766C145.273 75.188 145.943 75.1766 146.609 75.1766C146.663 75.6106 146.374 75.8228 146.065 75.6488C145.341 75.2473 144.686 75.7483 144.003 75.6928Z" fill="#01474F"/>
<path id="Vector_93" d="M201.14 69.2741C200.804 69.1193 200.468 68.93 200.521 68.5342C200.563 68.2379 200.643 67.8383 201.144 67.9033C201.543 67.9568 201.717 68.3105 202.024 68.4902C201.818 68.8306 201.585 69.1728 201.14 69.2741Z" fill="#01474F"/>
<path id="Vector_94" d="M99.668 85.9006H101.959C101.883 86.0727 102.018 86.436 101.677 86.3748C101.005 86.2467 100.164 86.7801 99.668 85.9006Z" fill="#01474F"/>
<path id="Vector_95" d="M139.168 85.9063L141.499 85.8872C141.005 86.5736 139.535 86.5851 139.168 85.9063Z" fill="#01474F"/>
<path id="Vector_96" d="M148.751 26.0447C148.751 26.8095 148.751 27.5742 148.751 28.339C147.872 28.1823 148.369 27.4882 148.292 27.0504C148.239 26.6947 148.029 26.1116 148.751 26.0447Z" fill="#01474F"/>
<path id="Vector_97" d="M174.912 78.7863C175.328 78.7175 175.563 78.8112 175.548 79.3159C175.532 79.7595 175.494 80.008 174.941 79.9966C174.435 79.9966 174.303 79.8264 174.305 79.3408C174.307 78.8551 174.471 78.7079 174.912 78.7863Z" fill="#01474F"/>
<path id="Vector_98" d="M64.0962 79.3236C64.1306 79.7309 64.0637 80.0272 63.5081 79.9871C63.0862 79.9565 62.8303 79.9373 62.836 79.3886C62.836 78.8705 63.027 78.75 63.4852 78.771C63.8652 78.7883 64.1936 78.7844 64.0962 79.3236Z" fill="#01474F"/>
<path id="Vector_99" d="M161.941 71.582C162.322 72.3258 162.032 73.1269 162.141 73.8936C161.148 73.2034 161.721 72.3774 161.941 71.582Z" fill="#01474F"/>
<path id="Vector_100" d="M46.4627 87.9102C46.4627 87.4436 46.4627 86.9771 46.4494 86.5125C46.4169 85.7783 46.7663 85.8204 47.2456 86.0995C46.6995 86.415 46.984 86.9389 46.9572 87.3672C46.9343 87.7285 46.9171 87.9885 46.4627 87.9102Z" fill="#01474F"/>
<path id="Vector_101" d="M193.596 68.2915C193.978 68.6491 193.636 68.9913 193.453 69.1863C193.321 69.3259 192.851 69.3202 192.656 69.1863C192.355 68.9856 192.418 68.5994 192.546 68.2705L193.596 68.2915Z" fill="#01474F"/>
<path id="Vector_102" d="M41.6699 85.8969L43.7549 85.8816C43.2012 86.5909 42.0308 86.6005 41.6699 85.8969Z" fill="#01474F"/>
<path id="Vector_103" d="M159.459 60.2843C159.961 60.2843 160.463 60.2843 160.964 60.2671C161.324 60.2671 161.594 60.3359 161.557 60.7776C161.061 60.7776 160.564 60.7432 160.072 60.7661C159.7 60.7852 159.476 60.6839 159.459 60.2843Z" fill="#01474F"/>
<path id="Vector_104" d="M115.16 70.4558C115.002 70.974 115.75 70.9089 115.733 71.3391C115.219 71.4022 114.769 70.8401 114.225 71.1804C114.236 70.9567 114.246 70.733 114.257 70.5113L115.16 70.4558Z" fill="#01474F"/>
<path id="Vector_105" d="M52.9688 86.0803C53.6351 85.6979 54.3588 85.9503 55.0538 85.8891C54.7425 86.5067 53.7573 86.5927 52.9688 86.0803Z" fill="#01474F"/>
<path id="Vector_106" d="M185.015 79.247C184.933 78.8207 185.206 78.7843 185.572 78.771C186.038 78.7557 186.078 78.9927 186.053 79.3618C186.029 79.7308 186.027 80.0099 185.481 79.9908C184.913 79.9679 185.041 79.6084 185.015 79.247Z" fill="#01474F"/>
<path id="Vector_107" d="M58.877 86.0804C59.5242 85.7209 60.2307 85.9485 60.9066 85.8892C60.2975 86.6425 59.6044 86.5354 58.877 86.0804Z" fill="#01474F"/>
<path id="Vector_108" d="M79.6875 75.3754C80.0122 75.2238 80.3661 75.1453 80.7243 75.1453C81.0825 75.1453 81.4364 75.2238 81.7611 75.3754C81.068 75.9337 80.3825 75.8247 79.6875 75.3754Z" fill="#01474F"/>
<path id="Vector_109" d="M81.7871 86.0803C82.3714 85.7209 83.0148 85.9465 83.6277 85.8891C83.1026 86.7878 82.4458 86.4474 81.7871 86.0803Z" fill="#01474F"/>
<path id="Vector_110" d="M39.2148 75.3714C39.486 75.1515 40.053 75.2338 39.9595 74.641C40.0614 74.6288 40.1646 74.6479 40.2556 74.6956C40.3465 74.7433 40.4208 74.8175 40.4688 74.9084C40.5168 74.9993 40.5361 75.1026 40.5243 75.2047C40.5124 75.3068 40.4699 75.4029 40.4025 75.4804C40.0817 75.8551 39.5795 75.7863 39.2148 75.3714Z" fill="#01474F"/>
<path id="Vector_111" d="M107.361 86.0746C107.957 85.7247 108.61 85.9388 109.236 85.8834C108.69 86.7323 108.033 86.4723 107.361 86.0746Z" fill="#01474F"/>
<path id="Vector_112" d="M158.881 85.9044L160.571 85.8853C160.38 86.5984 159.79 86.2982 159.352 86.3862C158.953 86.4665 158.888 86.2122 158.881 85.9044Z" fill="#01474F"/>
<path id="Vector_113" d="M57.1447 71.0867C57.1447 71.6086 57.1352 72.1287 57.1295 72.6487C56.402 72.2415 56.4077 71.5761 57.1447 71.0867Z" fill="#01474F"/>
<path id="Vector_114" d="M174.594 71.9339C174.149 71.7312 173.389 72.3602 173.225 71.4138C173.689 71.5668 174.368 71.1538 174.594 71.9339Z" fill="#01474F"/>
<path id="Vector_115" d="M164.119 60.3587C164.656 60.1675 165.213 60.309 165.759 60.2708C165.255 60.9342 164.541 60.9724 164.119 60.3587Z" fill="#01474F"/>
<path id="Vector_116" d="M177.008 83.8796C176.844 84.4035 177.413 85.0937 176.645 85.48C176.468 84.8777 176.086 84.2314 177.008 83.8796Z" fill="#01474F"/>
<path id="Vector_117" d="M211.174 85.9026H212.892C212.423 86.5871 211.527 86.5909 211.174 85.9026Z" fill="#01474F"/>
<path id="Vector_118" d="M105.469 75.0962C105.79 75.3849 106.586 74.7922 106.577 75.6946C106.221 75.6296 105.864 75.5665 105.509 75.5034C105.059 75.4117 105.397 75.2396 105.469 75.0962Z" fill="#01474F"/>
<path id="Vector_119" d="M69.8979 72.4634C69.9094 72.9624 69.9228 73.4633 69.9342 73.9624C69.4015 73.7444 69.4263 73.276 69.4034 72.8152C69.3824 72.4175 69.6726 72.494 69.8979 72.4634Z" fill="#01474F"/>
<path id="Vector_120" d="M209.477 71.0581C209.477 71.538 209.477 72.0141 209.462 72.4997C209.189 72.473 208.968 72.4806 208.927 72.0638C208.882 71.5514 209.042 71.2569 209.477 71.0581Z" fill="#01474F"/>
<path id="Vector_121" d="M188.312 75.1841H189.723C189.655 75.7902 189.174 75.6238 188.807 75.6774C188.412 75.7385 188.356 75.4709 188.312 75.1841Z" fill="#01474F"/>
<path id="Vector_122" d="M170.193 85.8835L171.704 85.8969C171.366 86.5948 170.678 86.5891 170.193 85.8835Z" fill="#01474F"/>
<path id="Vector_123" d="M55.3913 68.2801C55.4763 68.4229 55.515 68.5886 55.5021 68.7543C55.4891 68.9201 55.425 69.0777 55.3187 69.2055C55.2413 69.2494 55.1538 69.2724 55.0648 69.2724C54.9758 69.2724 54.8883 69.2494 54.8108 69.2055C54.5741 68.9588 54.28 68.6758 54.5531 68.2705L55.3913 68.2801Z" fill="#01474F"/>
<path id="Vector_124" d="M147.854 75.3714C148.4 75.2414 149.033 74.6984 149.339 75.6907C148.835 75.6238 148.264 75.8723 147.854 75.3714Z" fill="#01474F"/>
<path id="Vector_125" d="M107.18 75.6908C107.287 74.7349 108.029 75.3677 108.447 75.1861C108.308 76.0694 107.623 75.5761 107.18 75.6908Z" fill="#01474F"/>
<path id="Vector_126" d="M156.992 75.3849C157.494 75.2358 157.997 75.0121 158.502 75.3849C158 75.905 157.498 75.8821 156.992 75.3849Z" fill="#01474F"/>
<path id="Vector_127" d="M110.629 75.3734C111.104 75.2664 111.691 74.71 111.897 75.687C111.461 75.6392 110.965 75.8285 110.629 75.3734Z" fill="#01474F"/>
<path id="Vector_128" d="M161.541 14.4469C161.474 15.3188 160.807 14.8178 160.414 14.9402C160.513 14.1486 161.134 14.531 161.541 14.4469Z" fill="#01474F"/>
<path id="Vector_129" d="M163.148 75.1803C163.53 75.3084 164.191 74.84 164.233 75.6908C163.822 75.6277 163.25 75.9049 163.148 75.1803Z" fill="#01474F"/>
<path id="Vector_130" d="M199.926 85.8987H201.085C201.029 86.1874 200.966 86.4149 200.56 86.3939C200.193 86.3709 199.953 86.304 199.926 85.8987Z" fill="#01474F"/>
<path id="Vector_131" d="M174.427 85.8967H175.422C175.504 86.3632 175.216 86.3652 174.872 86.3805C174.486 86.4034 174.378 86.2409 174.427 85.8967Z" fill="#01474F"/>
<path id="Vector_132" d="M195.167 71.387C195.03 71.7694 195.505 72.4385 194.654 72.4844C194.648 72.0351 194.581 71.5571 195.167 71.387Z" fill="#01474F"/>
<path id="Vector_133" d="M140.195 81.9945C140.153 81.5815 140.374 81.4744 140.743 81.4859C141.111 81.4974 141.357 81.5452 141.298 81.9849L140.195 81.9945Z" fill="#01474F"/>
<path id="Vector_134" d="M153.565 81.9888C153.515 81.5586 153.756 81.4859 154.121 81.4878C154.485 81.4897 154.718 81.5815 154.671 82.0021L153.565 81.9888Z" fill="#01474F"/>
<path id="Vector_135" d="M129.532 75.1802H130.57C130.605 75.5129 130.523 75.6926 130.118 75.683C129.744 75.6754 129.518 75.5951 129.532 75.1802Z" fill="#01474F"/>
<path id="Vector_136" d="M211.595 81.9868C211.556 81.6044 211.749 81.482 212.104 81.4877C212.46 81.4935 212.759 81.5202 212.704 81.9925L211.595 81.9868Z" fill="#01474F"/>
<path id="Vector_137" d="M129.557 85.8987H130.564C130.611 86.2447 130.502 86.4073 130.113 86.3862C129.769 86.369 129.481 86.3633 129.557 85.8987Z" fill="#01474F"/>
<path id="Vector_138" d="M39.0195 83.1265C39.0195 82.7976 39.0195 82.4688 39.0195 82.1418C39.4148 82.0806 39.4911 82.2795 39.493 82.6351C39.495 82.9907 39.3995 83.1705 39.0195 83.1265Z" fill="#01474F"/>
<path id="Vector_139" d="M202.072 85.8892H203.109C203.159 86.2352 203.052 86.3882 202.662 86.3824C202.273 86.3767 202.074 86.2868 202.072 85.8892Z" fill="#01474F"/>
<path id="Vector_140" d="M60.7873 82.0767H61.8623C61.9501 82.4743 61.7974 82.6063 61.3907 82.6005C60.984 82.5948 60.7301 82.5508 60.7873 82.0767Z" fill="#01474F"/>
<path id="Vector_141" d="M68.2057 82.0711C68.6048 82.0252 68.7785 82.1916 68.7785 82.6046C68.7785 82.987 68.6964 83.2298 68.2611 83.1973C68.4597 82.8111 68.1904 82.4478 68.2057 82.0711Z" fill="#01474F"/>
<path id="Vector_142" d="M211.607 75.6869C211.623 74.8438 212.268 75.3045 212.635 75.1898C212.541 75.8724 212.008 75.6449 211.607 75.6869Z" fill="#01474F"/>
<path id="Vector_143" d="M123.252 85.8931H124.296C124.315 86.3061 124.105 86.4055 123.723 86.3959C123.342 86.3864 123.202 86.2544 123.252 85.8931Z" fill="#01474F"/>
<path id="Vector_144" d="M117.772 85.9294H119.099C119.172 86.4916 118.784 86.4323 118.431 86.4285C118.078 86.4246 117.684 86.5049 117.772 85.9294Z" fill="#01474F"/>
<path id="Vector_145" d="M66.1789 75.1841H67.187C67.2329 75.5321 67.1221 75.6888 66.7326 75.6793C66.3431 75.6697 66.114 75.6315 66.1789 75.1841Z" fill="#01474F"/>
<path id="Vector_146" d="M110.429 85.8967H111.471C111.529 86.2638 111.38 86.3881 111.004 86.39C110.628 86.3919 110.385 86.3384 110.429 85.8967Z" fill="#01474F"/>
<path id="Vector_147" d="M195.172 82.071C195.569 82.0308 195.745 82.1991 195.733 82.6063C195.733 82.9715 195.657 83.2296 195.22 83.1914C195.204 82.8166 195.188 82.4432 195.172 82.071Z" fill="#01474F"/>
<path id="Vector_148" d="M42.707 75.1803C43.0889 75.3103 43.7381 74.84 43.7648 75.6889C43.3428 75.6678 42.8292 75.8323 42.707 75.1803Z" fill="#01474F"/>
<path id="Vector_149" d="M193.595 68.2915L192.545 68.2762C192.459 67.8345 192.689 67.7695 193.072 67.7599C193.487 67.7485 193.653 67.8842 193.595 68.2915Z" fill="#01474F"/>
<path id="Vector_150" d="M192.553 75.186H193.563C193.626 75.6449 193.34 75.664 192.99 75.6908C192.58 75.7137 192.507 75.5225 192.553 75.186Z" fill="#01474F"/>
<path id="Vector_151" d="M209.531 75.1803C209.894 75.3256 210.555 74.8228 210.591 75.6717C210.165 75.664 209.673 75.8036 209.531 75.1803Z" fill="#01474F"/>
<path id="Vector_152" d="M210.059 74.5799H208.984C208.911 74.0503 209.291 74.1153 209.618 74.077C210.028 74.0311 210.049 74.2931 210.059 74.5799Z" fill="#01474F"/>
<path id="Vector_153" d="M57.7219 74.58L56.6355 74.5896C56.5629 74.1498 56.8169 74.1039 57.1739 74.0752C57.5825 74.0408 57.7429 74.1842 57.7219 74.58Z" fill="#01474F"/>
<path id="Vector_154" d="M84.2735 85.8931H85.337C85.4 86.2277 85.3179 86.4055 84.9208 86.3959C84.5236 86.3864 84.2449 86.3768 84.2735 85.8931Z" fill="#01474F"/>
<path id="Vector_155" d="M68.8279 85.895L69.8532 85.9065C69.9181 86.2736 69.7711 86.3902 69.3988 86.3921C69.0265 86.394 68.7916 86.3233 68.8279 85.895Z" fill="#01474F"/>
<path id="Vector_156" d="M62.9336 85.8892H63.9456C64.0048 86.3442 63.7241 86.3652 63.3728 86.3901C62.9661 86.4207 62.8993 86.218 62.9336 85.8892Z" fill="#01474F"/>
<path id="Vector_157" d="M111.506 73.1C111.876 73.1669 112.472 72.773 112.485 73.578C112.113 73.49 111.527 73.8629 111.506 73.1Z" fill="#01474F"/>
<path id="Vector_158" d="M174.938 69.7733C174.938 69.4196 174.938 69.0678 174.938 68.7141C175.319 68.6319 175.548 68.7141 175.484 69.1787C175.438 69.5133 175.495 69.9186 174.938 69.7733Z" fill="#01474F"/>
<path id="Vector_159" d="M204.203 75.1766C204.558 75.3314 205.232 74.8286 205.246 75.6852C204.814 75.689 204.329 75.7999 204.203 75.1766Z" fill="#01474F"/>
<path id="Vector_160" d="M43.224 84.1761C43.7033 84.1188 43.7758 84.3998 43.772 84.7937C43.7682 85.1876 43.5639 85.331 43.1992 85.287C43.203 84.9161 43.2145 84.5471 43.224 84.1761Z" fill="#01474F"/>
<path id="Vector_161" d="M155.076 82.0711L155.093 81.1667C155.615 81.0482 155.666 81.3809 155.622 81.7499C155.588 82.0711 155.498 82.3732 155.076 82.0711Z" fill="#01474F"/>
<path id="Vector_162" d="M164.809 75.6927C164.856 74.838 165.511 75.2988 165.901 75.1879C165.78 75.8858 165.232 75.6563 164.809 75.6927Z" fill="#01474F"/>
<path id="Vector_163" d="M198.43 71.3755L199.298 71.366C199.342 71.7025 199.228 71.8344 198.857 71.8726C198.397 71.9185 198.449 71.6451 198.43 71.3755Z" fill="#01474F"/>
<path id="Vector_164" d="M151.461 71.2607C151.461 70.9854 151.461 70.7101 151.461 70.4348C151.652 70.4615 151.927 70.2761 151.99 70.626C152.06 71.0351 151.793 71.1804 151.461 71.2607Z" fill="#01474F"/>
<path id="Vector_165" d="M68.8027 71.278C68.8027 71.0065 68.8027 70.7331 68.8027 70.4616C69.1751 70.3985 69.2896 70.5553 69.2915 70.9262C69.2973 71.3354 69.0567 71.2895 68.8027 71.278Z" fill="#01474F"/>
<path id="Vector_166" d="M84.8843 73.0942C85.606 73.0579 85.3215 73.6143 85.3941 73.9584C85.0485 73.7749 84.7449 73.5646 84.8843 73.0942Z" fill="#01474F"/>
<path id="Vector_167" d="M116.64 69.238H115.814C115.814 68.9876 115.774 68.7486 116.173 68.7428C116.572 68.7371 116.673 68.8939 116.64 69.238Z" fill="#01474F"/>
<path id="Vector_168" d="M178.119 74.0235C177.77 74.0407 177.594 73.8992 177.602 73.5264C177.602 73.123 177.846 73.0618 178.175 73.0848C178.142 73.3983 178.142 73.71 178.119 74.0235Z" fill="#01474F"/>
<path id="Vector_169" d="M113.101 73.6526C113.483 73.6201 113.66 73.7769 113.639 74.1784C113.618 74.5799 113.374 74.6009 113.078 74.5837L113.101 73.6526Z" fill="#01474F"/>
<path id="Vector_170" d="M63.3659 69.2322H62.5468C62.4857 68.867 62.6289 68.7408 63.0051 68.7427C63.3812 68.7446 63.3717 68.976 63.3659 69.2322Z" fill="#01474F"/>
<path id="Vector_171" d="M90.7598 85.8872H91.6247C91.6247 86.1453 91.6438 86.3556 91.2581 86.3786C90.8724 86.4015 90.817 86.1606 90.7598 85.8872Z" fill="#01474F"/>
<path id="Vector_172" d="M114.667 83.2296C115.387 83.1894 115.095 83.7477 115.173 84.0881C114.824 83.9083 114.536 83.6942 114.667 83.2296Z" fill="#01474F"/>
<path id="Vector_173" d="M54.5391 75.1841H55.3544C55.4002 75.5359 55.2742 75.6793 54.8961 75.6755C54.5181 75.6716 54.5448 75.4288 54.5391 75.1841Z" fill="#01474F"/>
<path id="Vector_174" d="M82.7422 75.1841H83.6186C83.6033 75.4365 83.6186 75.6621 83.2367 75.6908C82.8186 75.7137 82.7823 75.4728 82.7422 75.1841Z" fill="#01474F"/>
<path id="Vector_175" d="M100.923 75.1802H101.742C101.742 75.4306 101.777 75.6696 101.379 75.6773C100.982 75.6849 100.887 75.5224 100.923 75.1802Z" fill="#01474F"/>
<path id="Vector_176" d="M116.371 75.1821C116.734 75.2414 117.295 74.968 117.255 75.7079C116.793 75.8131 116.482 75.6678 116.371 75.1821Z" fill="#01474F"/>
<path id="Vector_177" d="M136.572 85.9006L137.43 85.9102C137.462 86.1817 137.47 86.3844 137.074 86.3939C136.679 86.4035 136.586 86.2295 136.572 85.9006Z" fill="#01474F"/>
<path id="Vector_178" d="M55.3921 68.2801H54.5539C54.531 67.8308 54.8556 67.783 55.1687 67.7887C55.5257 67.7907 55.3711 68.0928 55.3921 68.2801Z" fill="#01474F"/>
<path id="Vector_179" d="M161.013 54.8866C160.647 54.8216 160.059 55.1868 160.059 54.399C160.448 54.4277 160.946 54.2346 161.013 54.8866Z" fill="#01474F"/>
<path id="Vector_180" d="M149.345 23.0391C149.278 23.3966 149.57 23.9606 148.831 23.9339C148.724 23.475 148.953 23.2111 149.345 23.0391Z" fill="#01474F"/>
<path id="Vector_181" d="M100.858 81.987C100.837 81.6543 100.959 81.4803 101.326 81.4899C101.692 81.4994 101.826 81.6486 101.784 81.9946L100.858 81.987Z" fill="#01474F"/>
<path id="Vector_182" d="M42.2629 81.9963C42.2305 81.6637 42.3489 81.4839 42.7154 81.4859C43.082 81.4878 43.2214 81.6312 43.1813 81.9791L42.2629 81.9963Z" fill="#01474F"/>
<path id="Vector_183" d="M180.279 85.8967H181.144C181.144 86.1606 181.144 86.3613 180.774 86.3862C180.367 86.4206 180.321 86.1816 180.279 85.8967Z" fill="#01474F"/>
<path id="Vector_184" d="M182.45 85.8967H183.267C183.302 86.2409 183.187 86.3996 182.802 86.3957C182.416 86.3919 182.439 86.1529 182.45 85.8967Z" fill="#01474F"/>
<path id="Vector_185" d="M185.117 85.8931H185.934C185.95 86.22 185.843 86.3883 185.467 86.3825C185.09 86.3768 185.123 86.134 185.117 85.8931Z" fill="#01474F"/>
<path id="Vector_186" d="M162.145 20.8231C162.16 20.0258 162.746 20.3948 163.126 20.3394C163.08 21.0736 162.521 20.76 162.145 20.8231Z" fill="#01474F"/>
<path id="Vector_187" d="M195.764 85.895H196.617C196.617 86.1398 196.657 86.3749 196.264 86.3864C195.871 86.3979 195.796 86.1971 195.764 85.895Z" fill="#01474F"/>
<path id="Vector_188" d="M213.303 82.0061V81.161C213.589 81.1304 213.828 81.1036 213.83 81.5434C213.832 81.9831 213.687 82.0864 213.303 82.0061Z" fill="#01474F"/>
<path id="Vector_189" d="M159.484 75.186H160.349C160.359 75.4537 160.349 75.6564 159.967 75.687C159.551 75.7137 159.519 75.4747 159.484 75.186Z" fill="#01474F"/>
<path id="Vector_190" d="M102.389 82.0023V81.1725C102.713 81.1285 102.9 81.1973 102.906 81.5988C102.912 82.0003 102.704 82.0501 102.389 82.0023Z" fill="#01474F"/>
<path id="Vector_191" d="M183.001 75.1821H183.83C183.83 75.4422 183.86 75.6716 183.463 75.6792C183.066 75.6869 182.957 75.532 183.001 75.1821Z" fill="#01474F"/>
<path id="Vector_192" d="M116.279 82.069C116.279 82.44 116.267 82.8109 116.264 83.1818C115.826 83.2373 115.754 82.9906 115.752 82.6216C115.75 82.2526 115.859 82.0232 116.279 82.069Z" fill="#01474F"/>
<path id="Vector_193" d="M120.595 83.1857C120.595 82.8167 120.582 82.4457 120.576 82.0767C120.996 82.0251 121.09 82.2679 121.088 82.6236C121.086 82.9792 121.031 83.2354 120.595 83.1857Z" fill="#01474F"/>
<path id="Vector_194" d="M39.0903 71.3392C39.0674 71.0295 39.0464 70.7198 39.0254 70.41C39.3404 70.389 39.5638 70.4616 39.5715 70.8479C39.5791 71.1977 39.455 71.3756 39.0903 71.3392Z" fill="#01474F"/>
<path id="Vector_195" d="M97.5898 69.8039C94.9301 69.6987 95.4895 69.3431 95.4571 71.907C95.4571 72.0982 95.4857 72.2894 95.501 72.4806C95.4704 72.4806 95.4303 72.494 95.4074 72.4806C94.3649 71.8038 95.1248 70.7981 94.9874 69.9568C94.9072 69.4655 95.4246 69.15 95.8981 69.2781C96.4652 69.431 97.3263 68.7026 97.5898 69.8039Z" fill="#01474F"/>
<path id="Vector_196" d="M46.9327 83.2373C46.9327 83.5356 46.948 83.8339 46.9575 84.1341C46.5756 84.1819 46.4458 84.004 46.4534 83.6446C46.4611 83.2851 46.6215 83.1953 46.9327 83.2373Z" fill="#01474F"/>
<path id="Vector_197" d="M73.6133 73.6315C73.6133 73.2644 73.6266 72.8973 73.6343 72.5302C74.125 72.4652 74.1135 72.796 74.125 73.1325C74.1364 73.5015 73.978 73.6659 73.6133 73.6315Z" fill="#01474F"/>
<path id="Vector_198" d="M136.001 84.7191C136.001 84.417 135.986 84.1149 135.98 83.8109C136.288 83.765 136.525 83.8014 136.553 84.1933C136.582 84.5853 136.383 84.7554 136.001 84.7191Z" fill="#01474F"/>
<path id="Vector_199" d="M94.0447 82.8894C94.3082 83.2718 94.2719 83.7211 94.3082 84.1532C93.2485 83.9353 93.953 83.3483 94.0447 82.8894Z" fill="#01474F"/>
<path id="Vector_200" d="M207.388 84.719L207.371 83.7993C207.665 83.784 207.923 83.7993 207.944 84.1989C207.965 84.5985 207.766 84.7515 207.388 84.719Z" fill="#01474F"/>
</g>
<defs>
<clipPath id="clip0_23_2731">
<rect width="215" height="88" fill="white"/>
</clipPath>
</defs>
</svg>
