<svg width="91" height="86" viewBox="0 0 91 86" fill="none" xmlns="http://www.w3.org/2000/svg">
<g id="solar:medal-ribbons-star-bold">
<g id="Group">
<path id="Vector" fill-rule="evenodd" clip-rule="evenodd" d="M45.5253 57.3334C52.5017 57.3334 59.1924 54.6907 64.1255 49.9866C69.0586 45.2826 71.8299 38.9025 71.8299 32.25C71.8299 25.5975 69.0586 19.2175 64.1255 14.5134C59.1924 9.80939 52.5017 7.16669 45.5253 7.16669C38.5489 7.16669 31.8582 9.80939 26.9251 14.5134C21.9921 19.2175 19.2207 25.5975 19.2207 32.25C19.2207 38.9025 21.9921 45.2826 26.9251 49.9866C31.8582 54.6907 38.5489 57.3334 45.5253 57.3334ZM45.5253 21.5C44.4581 21.5 43.7441 22.7184 42.3162 25.1658L41.9479 25.7964C41.5421 26.4916 41.3391 26.8356 41.0235 27.0649C40.7041 27.2943 40.3095 27.3803 39.5204 27.5487L38.8064 27.7064C36.0331 28.3048 34.6465 28.6022 34.3158 29.6127C33.9851 30.6268 34.9321 31.6803 36.8223 33.7873L37.3108 34.3319C37.8481 34.9304 38.1187 35.2278 38.2389 35.6004C38.3592 35.9731 38.3179 36.3709 38.2389 37.1699L38.1638 37.8974C37.8782 40.7103 37.7354 42.1185 38.5959 42.742C39.4602 43.3655 40.7604 42.7958 43.3571 41.6563L44.026 41.3624C44.7662 41.0399 45.1345 40.8787 45.5253 40.8787C45.9161 40.8787 46.2844 41.0399 47.0247 41.3624L47.6936 41.6563C50.2902 42.7994 51.5904 43.3655 52.4547 42.742C53.319 42.1185 53.1725 40.7103 52.8869 37.8974L52.8117 37.1699C52.7328 36.3709 52.6915 35.9731 52.8117 35.6004C52.932 35.2314 53.2025 34.9304 53.7399 34.3319L54.2284 33.7873C56.1186 31.6803 57.0655 30.6268 56.7348 29.6127C56.4042 28.6022 55.0175 28.3048 52.2443 27.7064L51.5303 27.5487C50.7411 27.3803 50.3466 27.2979 50.0272 27.0649C49.7115 26.8356 49.5086 26.4916 49.1027 25.7964L48.7345 25.1658C47.3065 22.7184 46.5925 21.5 45.5253 21.5Z" fill="#00CAFF"/>
<path id="Vector_2" d="M17.3223 46.5654L11.6743 52.1375C9.64507 54.1442 8.63046 55.1439 8.27723 55.9932C7.47682 57.9282 8.1645 60.071 9.90436 61.0887C10.6709 61.533 12.0463 61.6727 14.8083 61.9487C16.364 62.1063 17.1456 62.1852 17.7957 62.4252C19.2575 62.9592 20.3886 64.0807 20.9335 65.5212C21.174 66.1662 21.2529 66.9331 21.4108 68.4703C21.6926 71.1937 21.8354 72.5553 22.2863 73.3114C23.316 75.0314 25.4917 75.7087 27.4495 74.9167C28.3063 74.5727 29.3209 73.5694 31.3539 71.5663L40.6808 62.3572C35.7676 61.6371 31.0981 59.8346 27.0433 57.0926C22.9885 54.3507 19.66 50.7486 17.3223 46.5654ZM50.3721 62.3607L59.699 71.5699C61.7282 73.5766 62.7428 74.5763 63.5996 74.9239C65.5574 75.7122 67.7332 75.035 68.7628 73.315C69.2138 72.5625 69.3528 71.2008 69.6346 68.4775C69.7962 66.9367 69.8751 66.1698 70.1156 65.5248C70.6568 64.0843 71.7916 62.9627 73.2534 62.4288C73.9035 62.1887 74.6814 62.1135 76.2409 61.9558C78.9991 61.6763 80.3782 61.5366 81.1448 61.0922C82.8847 60.0746 83.5723 57.9282 82.7719 55.9967C82.4187 55.1475 81.4041 54.1442 79.3749 52.1411L73.7269 46.5654C71.3891 50.7486 68.0606 54.3543 64.0058 57.0962C59.951 59.8382 55.2816 61.6407 50.3684 62.3607H50.3721Z" fill="#00CAFF"/>
</g>
</g>
</svg>
